<svg width="120" height="60" viewBox="0 0 120 60" fill="none" xmlns="http://www.w3.org/2000/svg">
<path fill-rule="evenodd" clip-rule="evenodd" d="M29.3583 59.2634L0 29.5694L29.3583 0V4.44787L4.13433 29.5694L29.3583 54.9401V59.2634Z" fill="#7D1715"/>
<path fill-rule="evenodd" clip-rule="evenodd" d="M29.3583 7.48699V4.38574L4.13428 29.5696L29.3583 54.9644V51.5376L7.69378 29.5696L29.3583 7.48699Z" fill="#A91918"/>
<path fill-rule="evenodd" clip-rule="evenodd" d="M7.69385 29.5694L29.3584 7.45264V17.4578L16.9715 29.5694L20.2496 32.8053L31.2858 21.7791V31.4265L24.8462 37.5868L29.3584 41.8719V51.6198L7.69385 29.5694Z" fill="#D21217"/>
<path fill-rule="evenodd" clip-rule="evenodd" d="M31.2859 59.2634L60.6442 29.5694L31.2859 0V4.44787L56.5099 29.5694L31.2859 54.9401V59.2634Z" fill="#D21217"/>
<path fill-rule="evenodd" clip-rule="evenodd" d="M31.2859 7.55535V4.4541L56.5099 29.5696L31.2859 54.9464V51.5336L52.9504 29.5696L31.2859 7.55535Z" fill="#A91918"/>
<path fill-rule="evenodd" clip-rule="evenodd" d="M52.9504 29.5693L31.2859 7.54102V17.4578L43.6607 29.5693L35.7981 37.4862L31.2859 41.8718V51.6016L52.9504 29.5693Z" fill="#7D1715"/>
<path fill-rule="evenodd" clip-rule="evenodd" d="M75.9251 15.255V18.9412H70.806V32.7511H66.9048V2.3335H76.5763V6.01962H70.806V15.255H75.9251ZM82.9155 32.7511H79.0143V7.54512C79.0143 4.07204 80.572 2.3335 83.6873 2.3335H86.6137C89.729 2.3335 91.2867 4.07003 91.2867 7.54512V32.7511H87.3855V21.6103H82.9155V32.7511ZM87.3855 17.9242V7.80038C87.3855 6.61454 86.8167 6.02163 85.6791 6.02163H84.6219C83.4843 6.02163 82.9155 6.61454 82.9155 7.80038V17.9242H87.3855ZM102.218 10.5097V7.84057C102.218 6.6266 101.65 6.01962 100.512 6.01962H99.903C98.7916 6.01962 98.2368 6.6266 98.2368 7.84057V12.8814C98.2368 13.4461 98.3454 13.828 98.5624 14.025C98.7795 14.2219 99.1312 14.4772 99.6196 14.7867L103.318 16.8629C104.13 17.3433 104.707 17.7171 105.044 17.9865C105.382 18.2558 105.647 18.5794 105.836 18.9612C106.025 19.3431 106.12 20.0707 106.12 21.144V27.6259C106.12 31.0427 104.548 32.7511 101.406 32.7511H99.0086C95.8933 32.7511 94.3357 30.8879 94.3357 27.1596V25.6341H98.2368V27.2862C98.2368 28.472 98.8197 29.0649 99.9834 29.0649H100.675C101.704 29.0649 102.218 28.472 102.218 27.2862V22.1188C102.218 21.554 102.11 21.1721 101.893 20.9752C101.676 20.7782 101.324 20.5229 100.836 20.2134L97.1374 18.0528C96.3254 17.6006 95.7345 17.2207 95.3687 16.9092C95.0029 16.5996 94.7396 16.1957 94.5768 15.7012C94.414 15.2068 94.3336 14.5636 94.3336 13.7737V7.54713C94.3336 4.07405 95.8913 2.33551 99.0066 2.33551H101.445C104.56 2.33551 106.118 4.07204 106.118 7.54713V10.5117H102.216L102.218 10.5097ZM115.588 6.01962V32.7511H111.687V6.01962H107.949V2.3335H119.327V6.01962H115.588Z" fill="#191A1A"/>
<path d="M67.2747 45.0134L67.6365 44.2014C68.0867 44.5632 68.8022 44.8205 69.4916 44.8205C70.3679 44.8205 70.7377 44.5069 70.7377 44.0889C70.7377 42.8749 67.3953 43.6708 67.3953 41.5825C67.3953 40.6741 68.1189 39.9043 69.6604 39.9043C70.3358 39.9043 71.0432 40.0812 71.5316 40.4027L71.202 41.2147C70.6955 40.9173 70.1408 40.7726 69.6504 40.7726C68.7821 40.7726 68.4284 41.1102 68.4284 41.5363C68.4284 42.7342 71.7628 41.9544 71.7628 44.0185C71.7628 44.919 71.0312 45.6887 69.4896 45.6887C68.6133 45.6887 67.739 45.4154 67.2727 45.0134H67.2747Z" fill="#D21217"/>
<path d="M72.6494 40.0068C72.6494 39.6691 72.9228 39.4038 73.2926 39.4038C73.6624 39.4038 73.9357 39.653 73.9357 39.9827C73.9357 40.3364 73.6704 40.6097 73.2926 40.6097C72.9147 40.6097 72.6494 40.3444 72.6494 40.0068ZM72.7861 41.3172H73.791V45.6083H72.7861V41.3172Z" fill="#D21217"/>
<path d="M74.6995 45.1818L75.0854 44.418C75.4632 44.6673 76.0421 44.8441 76.5807 44.8441C77.2158 44.8441 77.4811 44.6673 77.4811 44.3698C77.4811 43.5498 74.8301 44.3216 74.8301 42.6112C74.8301 41.7992 75.5617 41.2686 76.7174 41.2686C77.2882 41.2686 77.9394 41.4052 78.3233 41.6384L77.9374 42.4021C77.5274 42.1609 77.1173 42.0805 76.7073 42.0805C76.0963 42.0805 75.8069 42.2815 75.8069 42.5629C75.8069 43.4312 78.4579 42.6594 78.4579 44.3376C78.4579 45.1416 77.7183 45.6642 76.5144 45.6642C75.7989 45.6642 75.0834 45.4551 74.6995 45.1818Z" fill="#D21217"/>
<path d="M81.9872 45.3728C81.746 45.5658 81.3842 45.6623 81.0224 45.6623C80.0818 45.6623 79.5432 45.1638 79.5432 44.2151V42.151H78.8357V41.347H79.5432V40.3662H80.5481V41.347H81.6978V42.151H80.5481V44.191C80.5481 44.6091 80.7571 44.8342 81.143 44.8342C81.3521 44.8342 81.5531 44.7779 81.7058 44.6573L81.9872 45.3728Z" fill="#D21217"/>
<path d="M86.7666 43.7833H83.4001C83.5207 44.4104 84.0433 44.8124 84.7909 44.8124C85.2733 44.8124 85.6512 44.6597 85.9567 44.3461L86.4953 44.9652C86.1094 45.4234 85.5064 45.6646 84.7688 45.6646C83.3297 45.6646 82.3992 44.7401 82.3992 43.4638C82.3992 42.1875 83.3398 41.271 84.6161 41.271C85.8923 41.271 86.7847 42.1473 86.7847 43.4879C86.7847 43.5683 86.7767 43.6889 86.7687 43.7854L86.7666 43.7833ZM83.3921 43.1161H85.826C85.7456 42.497 85.2713 42.0709 84.6121 42.0709C83.9528 42.0709 83.4865 42.489 83.39 43.1161H83.3921Z" fill="#D21217"/>
<path d="M95.003 43.1478V45.6059H93.9981V43.2765C93.9981 42.5127 93.6444 42.1429 93.0333 42.1429C92.3741 42.1429 91.9159 42.577 91.9159 43.4292V45.6059H90.9109V43.2765C90.9109 42.5127 90.5572 42.1429 89.9462 42.1429C89.2789 42.1429 88.8287 42.577 88.8287 43.4292V45.6059H87.8237V41.3148H88.7804V41.8615C89.102 41.4756 89.6005 41.2666 90.1874 41.2666C90.8144 41.2666 91.337 41.4997 91.6345 41.9821C91.9802 41.5399 92.559 41.2666 93.2424 41.2666C94.2795 41.2666 95.001 41.8535 95.001 43.1458L95.003 43.1478Z" fill="#D21217"/>
<path d="M99.9614 43.0916V45.606H99.0128V45.0834C98.7716 45.4532 98.3053 45.6623 97.6621 45.6623C96.6813 45.6623 96.0623 45.1236 96.0623 44.3759C96.0623 43.6283 96.5446 43.0977 97.845 43.0977H98.9545V43.0333C98.9545 42.4465 98.6007 42.1008 97.8852 42.1008C97.4028 42.1008 96.9044 42.2615 96.5828 42.5269L96.1889 41.7953C96.6471 41.4415 97.3144 41.2646 98.0038 41.2646C99.2419 41.2646 99.9554 41.8515 99.9554 43.0876L99.9614 43.0916ZM98.9565 44.2654V43.767H97.9194C97.236 43.767 97.0511 44.0242 97.0511 44.3378C97.0511 44.6995 97.3566 44.9327 97.8711 44.9327C98.3857 44.9327 98.7877 44.7076 98.9565 44.2654Z" fill="#D21217"/>
<path d="M100.838 45.1818L101.224 44.418C101.601 44.6673 102.18 44.8441 102.719 44.8441C103.354 44.8441 103.619 44.6673 103.619 44.3698C103.619 43.5498 100.968 44.3216 100.968 42.6112C100.968 41.7992 101.7 41.2686 102.856 41.2686C103.426 41.2686 104.078 41.4052 104.461 41.6384L104.076 42.4021C103.666 42.1609 103.256 42.0805 102.846 42.0805C102.235 42.0805 101.945 42.2815 101.945 42.5629C101.945 43.4312 104.596 42.6594 104.596 44.3376C104.596 45.1416 103.856 45.6642 102.653 45.6642C101.937 45.6642 101.222 45.4551 100.838 45.1818Z" fill="#D21217"/>
<path d="M67.3472 52.4376C67.3472 50.7594 68.6335 49.5454 70.36 49.5454C71.2765 49.5454 72.0624 49.875 72.5849 50.486L71.9096 51.1212C71.4996 50.679 70.9931 50.4619 70.4082 50.4619C69.2425 50.4619 68.4004 51.2819 68.4004 52.4376C68.4004 53.5933 69.2445 54.4133 70.4082 54.4133C70.9951 54.4133 71.5016 54.1963 71.9096 53.7461L72.5849 54.3892C72.0624 55.0002 71.2745 55.3299 70.3519 55.3299C68.6335 55.3299 67.3472 54.1159 67.3472 52.4376Z" fill="#D21217"/>
<path d="M73.0593 53.1049C73.0593 51.8186 74.0241 50.9121 75.3405 50.9121C76.657 50.9121 77.6298 51.8206 77.6298 53.1049C77.6298 54.3892 76.6731 55.3057 75.3405 55.3057C74.008 55.3057 73.0593 54.3892 73.0593 53.1049ZM76.6188 53.1049C76.6188 52.2849 76.0721 51.7623 75.3405 51.7623C74.6089 51.7623 74.0703 52.2849 74.0703 53.1049C74.0703 53.9249 74.617 54.4475 75.3405 54.4475C76.0641 54.4475 76.6188 53.9249 76.6188 53.1049Z" fill="#D21217"/>
<path d="M82.9016 52.7919V55.25H81.8967V52.9205C81.8967 52.1568 81.5188 51.787 80.8757 51.787C80.1602 51.787 79.6778 52.2211 79.6778 53.0813V55.25H78.6729V50.9589H79.6296V51.5136C79.9592 51.1197 80.4817 50.9106 81.1088 50.9106C82.1379 50.9106 82.8996 51.4975 82.8996 52.7899L82.9016 52.7919Z" fill="#D21217"/>
<path d="M83.77 54.8239L84.1559 54.0601C84.5338 54.3094 85.1126 54.4862 85.6513 54.4862C86.2864 54.4862 86.5517 54.3094 86.5517 54.0119C86.5517 53.1919 83.9007 53.9637 83.9007 52.2532C83.9007 51.4413 84.6323 50.9106 85.7879 50.9106C86.3587 50.9106 87.0099 51.0473 87.3938 51.2805L87.0079 52.0442C86.5979 51.803 86.1879 51.7226 85.7779 51.7226C85.1669 51.7226 84.8775 51.9236 84.8775 52.205C84.8775 53.0733 87.5285 52.3015 87.5285 53.9797C87.5285 54.7837 86.7889 55.3063 85.5849 55.3063C84.8694 55.3063 84.1539 55.0972 83.77 54.8239Z" fill="#D21217"/>
<path d="M91.0575 55.0169C90.8163 55.2098 90.4545 55.3063 90.0928 55.3063C89.1521 55.3063 88.6135 54.8078 88.6135 53.8592V51.795H87.906V50.9911H88.6135V50.0103H89.6184V50.9911H90.7681V51.795H89.6184V53.8351C89.6184 54.2531 89.8275 54.4782 90.2134 54.4782C90.4224 54.4782 90.6234 54.4219 90.7761 54.3014L91.0575 55.0169Z" fill="#D21217"/>
<path d="M94.4483 50.9106V51.8673C94.3599 51.8513 94.2875 51.8432 94.2152 51.8432C93.4514 51.8432 92.9691 52.2934 92.9691 53.1698V55.25H91.9641V50.9589H92.9208V51.586C93.2102 51.1358 93.7328 50.9106 94.4463 50.9106H94.4483Z" fill="#D21217"/>
<path d="M99.5755 50.9585V55.2496H98.6188V54.7029C98.2972 55.0968 97.7907 55.3059 97.236 55.3059C96.1346 55.3059 95.3889 54.7029 95.3889 53.4106V50.9605H96.3939V53.2739C96.3939 54.0537 96.7637 54.4235 97.3988 54.4235C98.0982 54.4235 98.5726 53.9894 98.5726 53.1292V50.9605H99.5775L99.5755 50.9585Z" fill="#D21217"/>
<path d="M103.553 55.0169C103.312 55.2098 102.95 55.3063 102.589 55.3063C101.648 55.3063 101.109 54.8078 101.109 53.8592V51.795H100.402V50.9911H101.109V50.0103H102.114V50.9911H103.264V51.795H102.114V53.8351C102.114 54.2531 102.323 54.4782 102.709 54.4782C102.918 54.4782 103.119 54.4219 103.272 54.3014L103.553 55.0169Z" fill="#D21217"/>
<path d="M104.325 49.6498C104.325 49.3122 104.598 49.0469 104.968 49.0469C105.338 49.0469 105.611 49.2961 105.611 49.6257C105.611 49.9795 105.346 50.2528 104.968 50.2528C104.59 50.2528 104.325 49.9875 104.325 49.6498ZM104.462 50.9583H105.467V55.2494H104.462V50.9583Z" fill="#D21217"/>
<path d="M110.881 50.9585L109.042 55.2496H108.005L106.166 50.9585H107.211L108.546 54.1401L109.92 50.9585H110.885H110.881Z" fill="#D21217"/>
<path d="M111.115 53.1049C111.115 51.8186 112.079 50.9121 113.396 50.9121C114.712 50.9121 115.685 51.8206 115.685 53.1049C115.685 54.3892 114.728 55.3057 113.396 55.3057C112.063 55.3057 111.115 54.3892 111.115 53.1049ZM114.674 53.1049C114.674 52.2849 114.127 51.7623 113.396 51.7623C112.664 51.7623 112.125 52.2849 112.125 53.1049C112.125 53.9249 112.672 54.4475 113.396 54.4475C114.119 54.4475 114.674 53.9249 114.674 53.1049Z" fill="#D21217"/>
<path d="M116.241 54.8239L116.627 54.0601C117.005 54.3094 117.584 54.4862 118.123 54.4862C118.758 54.4862 119.023 54.3094 119.023 54.0119C119.023 53.1919 116.372 53.9637 116.372 52.2532C116.372 51.4413 117.104 50.9106 118.259 50.9106C118.83 50.9106 119.481 51.0473 119.865 51.2805L119.479 52.0442C119.069 51.803 118.659 51.7226 118.249 51.7226C117.638 51.7226 117.349 51.9236 117.349 52.205C117.349 53.0733 120 52.3015 120 53.9797C120 54.7837 119.26 55.3063 118.056 55.3063C117.341 55.3063 116.625 55.0972 116.241 54.8239Z" fill="#D21217"/>
</svg>
