<svg width="500" height="489" viewBox="0 0 500 489" fill="none" xmlns="http://www.w3.org/2000/svg">
<path fill-rule="evenodd" clip-rule="evenodd" d="M242.036 488.606L0 243.78L242.036 0V36.6818L34.0949 243.78L242.036 452.971V488.606Z" fill="#7D1715"/>
<path fill-rule="evenodd" clip-rule="evenodd" d="M242.036 61.7078V36.1584L34.0948 243.78L242.036 453.145V424.892L63.4519 243.78L242.036 61.7078Z" fill="#A91918"/>
<path fill-rule="evenodd" clip-rule="evenodd" d="M63.4518 243.779L242.036 61.446V143.936L139.925 243.779L166.928 270.462L257.935 179.543V259.097L204.86 309.906L242.036 345.221V425.59L63.4518 243.779Z" fill="#D21217"/>
<path fill-rule="evenodd" clip-rule="evenodd" d="M257.935 488.606L500 243.78L257.935 0V36.6818L465.905 243.78L257.935 452.971V488.606Z" fill="#D21217"/>
<path fill-rule="evenodd" clip-rule="evenodd" d="M257.935 62.2889V36.7104L465.905 243.779L257.935 452.999V424.863L436.548 243.779L257.935 62.2889Z" fill="#A91918"/>
<path fill-rule="evenodd" clip-rule="evenodd" d="M436.548 243.779L257.935 62.1726V143.936L359.958 243.779L295.14 309.063L257.935 345.221V425.444L436.548 243.779Z" fill="#7D1715"/>
</svg>
