<svg width="500" height="489" viewBox="0 0 500 489" fill="none" xmlns="http://www.w3.org/2000/svg">
<path fill-rule="evenodd" clip-rule="evenodd" d="M242.054 488.616L0 243.794L242.054 0V36.6719L34.0868 243.794L242.054 452.971V488.616Z" fill="#CCCCCC"/>
<path fill-rule="evenodd" clip-rule="evenodd" d="M242.054 61.7274V36.1582L34.0868 243.794L242.054 453.17V424.916L63.4342 243.794L242.054 61.7274Z" fill="#D8D8D8"/>
<path fill-rule="evenodd" clip-rule="evenodd" d="M63.4342 243.794L242.054 61.4458V143.937L139.926 243.794L166.954 270.474L257.946 179.565V259.106L204.852 309.896L242.054 345.226V425.596L63.4342 243.794Z" fill="white"/>
<path fill-rule="evenodd" clip-rule="evenodd" d="M257.946 488.616L500 243.794L257.946 0V36.6719L465.913 243.794L257.946 452.971V488.616Z" fill="white"/>
<path fill-rule="evenodd" clip-rule="evenodd" d="M257.946 62.2907V36.7214L465.913 243.794L257.946 453.021V424.883L436.566 243.794L257.946 62.2907Z" fill="#D8D8D8"/>
<path fill-rule="evenodd" clip-rule="evenodd" d="M436.566 243.794L257.946 62.175V143.937L359.974 243.794L295.148 309.068L257.946 345.226V425.447L436.566 243.794Z" fill="#CCCCCC"/>
</svg>
