<svg width="500" height="247" viewBox="0 0 500 247" fill="none" xmlns="http://www.w3.org/2000/svg">
<path fill-rule="evenodd" clip-rule="evenodd" d="M122.326 246.931L0 123.206L122.326 0V18.5328L17.2264 123.206L122.326 228.917V246.931Z" fill="#7D1715"/>
<path fill-rule="evenodd" clip-rule="evenodd" d="M122.326 31.1951V18.2732L17.2263 123.206L122.326 229.018V214.739L32.0576 123.206L122.326 31.1951Z" fill="#A91918"/>
<path fill-rule="evenodd" clip-rule="evenodd" d="M32.0576 123.206L122.326 31.0527V72.741L70.7143 123.206L84.3732 136.689L130.358 90.7462V130.944L103.526 156.612L122.326 174.466V215.083L32.0576 123.206Z" fill="#D21217"/>
<path fill-rule="evenodd" clip-rule="evenodd" d="M130.358 246.931L252.684 123.206L130.358 0V18.5328L235.458 123.206L130.358 228.917V246.931Z" fill="#D21217"/>
<path fill-rule="evenodd" clip-rule="evenodd" d="M130.358 31.4797V18.5579L235.458 123.206L130.358 228.942V214.722L220.626 123.206L130.358 31.4797Z" fill="#A91918"/>
<path fill-rule="evenodd" clip-rule="evenodd" d="M220.626 123.206L130.358 31.4211V72.741L181.92 123.206L149.158 156.193L130.358 174.466V215.007L220.626 123.206Z" fill="#7D1715"/>
<path fill-rule="evenodd" clip-rule="evenodd" d="M316.355 63.5626V78.9215H295.025V136.463H278.771V9.7229H319.069V25.0817H295.025V63.5626H316.355ZM345.482 136.463H329.227V31.438C329.227 16.9669 335.717 9.7229 348.698 9.7229H360.891C373.871 9.7229 380.362 16.9585 380.362 31.438V136.463H364.107V90.0428H345.482V136.463ZM364.107 74.684V32.5016C364.107 27.5606 361.737 25.0901 356.997 25.0901H352.592C347.852 25.0901 345.482 27.5606 345.482 32.5016V74.684H364.107ZM425.911 43.7904V32.6691C425.911 27.6108 423.541 25.0817 418.801 25.0817H416.263C411.632 25.0817 409.321 27.6108 409.321 32.6691V53.6723C409.321 56.0256 409.773 57.6167 410.677 58.4374C411.582 59.2581 413.047 60.3217 415.082 61.6114L430.491 70.2622C433.875 72.2637 436.278 73.8214 437.685 74.9436C439.092 76.0658 440.198 77.4141 440.985 79.0052C441.772 80.5964 442.166 83.6279 442.166 88.0999V115.108C442.166 129.344 435.617 136.463 422.527 136.463H412.537C399.556 136.463 393.066 128.7 393.066 113.165V106.809H409.321V113.692C409.321 118.633 411.749 121.104 416.598 121.104H419.479C423.767 121.104 425.911 118.633 425.911 113.692V92.1616C425.911 89.8083 425.458 88.2172 424.554 87.3965C423.649 86.5758 422.184 85.5122 420.149 84.2225L404.74 75.2199C401.357 73.3357 398.894 71.7529 397.37 70.4548C395.846 69.1652 394.749 67.4819 394.071 65.4218C393.392 63.3616 393.057 60.6818 393.057 57.3906V31.4464C393.057 16.9752 399.548 9.73128 412.528 9.73128H422.686C435.667 9.73128 442.157 16.9668 442.157 31.4464V43.7988H425.902L425.911 43.7904ZM481.618 25.0817V136.463H465.363V25.0817H449.786V9.7229H497.194V25.0817H481.618Z" fill="#191A1A"/>
<path d="M280.312 187.556L281.819 184.172C283.695 185.68 286.676 186.752 289.549 186.752C293.2 186.752 294.741 185.445 294.741 183.703C294.741 178.645 280.814 181.961 280.814 173.26C280.814 169.475 283.829 166.268 290.252 166.268C293.066 166.268 296.014 167.005 298.049 168.344L296.675 171.728C294.565 170.488 292.254 169.885 290.21 169.885C286.592 169.885 285.119 171.292 285.119 173.068C285.119 178.059 299.012 174.81 299.012 183.41C299.012 187.162 295.964 190.369 289.54 190.369C285.889 190.369 282.246 189.23 280.303 187.556H280.312Z" fill="#D21217"/>
<path d="M302.705 166.695C302.705 165.288 303.844 164.182 305.385 164.182C306.926 164.182 308.065 165.221 308.065 166.594C308.065 168.068 306.959 169.207 305.385 169.207C303.811 169.207 302.705 168.102 302.705 166.695ZM303.275 172.155H307.462V190.034H303.275V172.155Z" fill="#D21217"/>
<path d="M311.247 188.259L312.855 185.077C314.429 186.115 316.841 186.852 319.086 186.852C321.732 186.852 322.837 186.115 322.837 184.876C322.837 181.459 311.791 184.675 311.791 177.548C311.791 174.165 314.84 171.954 319.655 171.954C322.033 171.954 324.747 172.523 326.346 173.495L324.738 176.677C323.03 175.672 321.322 175.337 319.613 175.337C317.067 175.337 315.861 176.175 315.861 177.347C315.861 180.965 326.907 177.749 326.907 184.742C326.907 188.092 323.826 190.269 318.809 190.269C315.828 190.269 312.847 189.398 311.247 188.259Z" fill="#D21217"/>
<path d="M341.613 189.055C340.608 189.859 339.101 190.261 337.593 190.261C333.674 190.261 331.43 188.184 331.43 184.231V175.63H328.482V172.281H331.43V168.194H335.617V172.281H340.407V175.63H335.617V184.131C335.617 185.872 336.488 186.81 338.096 186.81C338.967 186.81 339.804 186.576 340.441 186.073L341.613 189.055Z" fill="#D21217"/>
<path d="M361.528 182.431H347.5C348.003 185.043 350.18 186.718 353.295 186.718C355.305 186.718 356.88 186.082 358.153 184.775L360.397 187.355C358.789 189.264 356.277 190.269 353.203 190.269C347.207 190.269 343.33 186.417 343.33 181.099C343.33 175.781 347.249 171.962 352.567 171.962C357.885 171.962 361.603 175.614 361.603 181.199C361.603 181.534 361.57 182.037 361.536 182.439L361.528 182.431ZM347.467 179.65H357.608C357.273 177.071 355.297 175.295 352.55 175.295C349.803 175.295 347.86 177.037 347.458 179.65H347.467Z" fill="#D21217"/>
<path d="M395.846 179.784V190.026H391.659V180.32C391.659 177.138 390.185 175.597 387.639 175.597C384.893 175.597 382.983 177.406 382.983 180.957V190.026H378.796V180.32C378.796 177.138 377.322 175.597 374.776 175.597C371.996 175.597 370.12 177.406 370.12 180.957V190.026H365.933V172.147H369.919V174.424C371.259 172.816 373.336 171.946 375.781 171.946C378.394 171.946 380.571 172.917 381.811 174.927C383.251 173.084 385.663 171.946 388.51 171.946C392.832 171.946 395.838 174.391 395.838 179.776L395.846 179.784Z" fill="#D21217"/>
<path d="M416.506 179.55V190.026H412.554V187.849C411.549 189.39 409.606 190.261 406.926 190.261C402.839 190.261 400.26 188.016 400.26 184.901C400.26 181.786 402.27 179.575 407.688 179.575H412.311V179.307C412.311 176.861 410.837 175.421 407.855 175.421C405.846 175.421 403.769 176.091 402.429 177.196L400.787 174.148C402.697 172.674 405.477 171.937 408.35 171.937C413.508 171.937 416.481 174.383 416.481 179.533L416.506 179.55ZM412.319 184.44V182.364H407.998C405.15 182.364 404.38 183.435 404.38 184.742C404.38 186.249 405.653 187.221 407.797 187.221C409.941 187.221 411.616 186.283 412.319 184.44Z" fill="#D21217"/>
<path d="M420.157 188.259L421.765 185.077C423.34 186.115 425.752 186.852 427.996 186.852C430.642 186.852 431.748 186.115 431.748 184.876C431.748 181.459 420.702 184.675 420.702 177.548C420.702 174.165 423.75 171.954 428.565 171.954C430.944 171.954 433.657 172.523 435.257 173.495L433.649 176.677C431.94 175.672 430.232 175.337 428.524 175.337C425.978 175.337 424.772 176.175 424.772 177.347C424.772 180.965 435.818 177.749 435.818 184.742C435.818 188.092 432.736 190.269 427.72 190.269C424.738 190.269 421.757 189.398 420.157 188.259Z" fill="#D21217"/>
<path d="M280.613 218.491C280.613 211.498 285.973 206.44 293.166 206.44C296.985 206.44 300.26 207.814 302.437 210.359L299.623 213.006C297.915 211.163 295.804 210.259 293.367 210.259C288.51 210.259 285.001 213.676 285.001 218.491C285.001 223.306 288.519 226.723 293.367 226.723C295.813 226.723 297.923 225.819 299.623 223.943L302.437 226.623C300.26 229.169 296.977 230.542 293.133 230.542C285.973 230.542 280.613 225.484 280.613 218.491Z" fill="#D21217"/>
<path d="M304.414 221.271C304.414 215.912 308.433 212.135 313.919 212.135C319.404 212.135 323.457 215.92 323.457 221.271C323.457 226.623 319.471 230.441 313.919 230.441C308.366 230.441 304.414 226.623 304.414 221.271ZM319.245 221.271C319.245 217.855 316.967 215.677 313.919 215.677C310.87 215.677 308.626 217.855 308.626 221.271C308.626 224.688 310.904 226.866 313.919 226.866C316.933 226.866 319.245 224.688 319.245 221.271Z" fill="#D21217"/>
<path d="M345.423 219.965V230.207H341.236V220.501C341.236 217.319 339.662 215.778 336.982 215.778C334.001 215.778 331.991 217.587 331.991 221.171V230.207H327.803V212.327H331.79V214.639C333.163 212.997 335.341 212.126 337.953 212.126C342.241 212.126 345.415 214.572 345.415 219.957L345.423 219.965Z" fill="#D21217"/>
<path d="M349.041 228.432L350.649 225.249C352.224 226.288 354.635 227.025 356.88 227.025C359.526 227.025 360.632 226.288 360.632 225.048C360.632 221.632 349.586 224.847 349.586 217.721C349.586 214.337 352.634 212.126 357.449 212.126C359.828 212.126 362.541 212.696 364.14 213.667L362.533 216.85C360.824 215.845 359.116 215.51 357.407 215.51C354.862 215.51 353.656 216.347 353.656 217.52C353.656 221.137 364.702 217.922 364.702 224.914C364.702 228.264 361.62 230.442 356.603 230.442C353.622 230.442 350.641 229.571 349.041 228.432Z" fill="#D21217"/>
<path d="M379.407 229.236C378.402 230.04 376.895 230.442 375.387 230.442C371.468 230.442 369.224 228.365 369.224 224.412V215.811H366.276V212.462H369.224V208.375H373.411V212.462H378.201V215.811H373.411V224.311C373.411 226.053 374.282 226.991 375.89 226.991C376.761 226.991 377.598 226.757 378.235 226.254L379.407 229.236Z" fill="#D21217"/>
<path d="M393.535 212.126V216.113C393.167 216.046 392.865 216.012 392.564 216.012C389.381 216.012 387.371 217.888 387.371 221.539V230.207H383.184V212.327H387.17V214.94C388.376 213.064 390.554 212.126 393.527 212.126H393.535Z" fill="#D21217"/>
<path d="M414.898 212.327V230.207H410.912V227.929C409.572 229.571 407.462 230.441 405.151 230.441C400.561 230.441 397.454 227.929 397.454 222.544V212.336H401.642V221.975C401.642 225.224 403.183 226.765 405.829 226.765C408.743 226.765 410.72 224.956 410.72 221.372V212.336H414.907L414.898 212.327Z" fill="#D21217"/>
<path d="M431.472 229.236C430.467 230.04 428.959 230.442 427.452 230.442C423.533 230.442 421.288 228.365 421.288 224.412V215.811H418.34V212.462H421.288V208.375H425.475V212.462H430.266V215.811H425.475V224.311C425.475 226.053 426.346 226.991 427.954 226.991C428.825 226.991 429.663 226.757 430.299 226.254L431.472 229.236Z" fill="#D21217"/>
<path d="M434.687 206.876C434.687 205.469 435.826 204.363 437.367 204.363C438.908 204.363 440.047 205.402 440.047 206.775C440.047 208.249 438.942 209.388 437.367 209.388C435.793 209.388 434.687 208.283 434.687 206.876ZM435.257 212.327H439.444V230.207H435.257V212.327Z" fill="#D21217"/>
<path d="M462.005 212.327L454.342 230.207H450.021L442.358 212.327H446.713L452.274 225.584L458.002 212.327H462.022H462.005Z" fill="#D21217"/>
<path d="M462.976 221.271C462.976 215.912 466.996 212.135 472.481 212.135C477.967 212.135 482.02 215.92 482.02 221.271C482.02 226.623 478.034 230.441 472.481 230.441C466.929 230.441 462.976 226.623 462.976 221.271ZM477.808 221.271C477.808 217.855 475.53 215.677 472.481 215.677C469.433 215.677 467.189 217.855 467.189 221.271C467.189 224.688 469.467 226.866 472.481 226.866C475.496 226.866 477.808 224.688 477.808 221.271Z" fill="#D21217"/>
<path d="M484.34 228.432L485.948 225.249C487.522 226.288 489.934 227.025 492.178 227.025C494.825 227.025 495.93 226.288 495.93 225.048C495.93 221.632 484.884 224.847 484.884 217.721C484.884 214.337 487.932 212.126 492.748 212.126C495.126 212.126 497.839 212.696 499.439 213.667L497.831 216.85C496.123 215.845 494.414 215.51 492.706 215.51C490.16 215.51 488.954 216.347 488.954 217.52C488.954 221.137 500 217.922 500 224.914C500 228.264 496.918 230.442 491.902 230.442C488.92 230.442 485.939 229.571 484.34 228.432Z" fill="#D21217"/>
</svg>
