<svg width="500" height="120" viewBox="0 0 500 120" fill="none" xmlns="http://www.w3.org/2000/svg">
<path fill-rule="evenodd" clip-rule="evenodd" d="M59.1423 119.393L0 59.5685L59.1423 0V8.96332L8.3312 59.5685L59.1423 110.685V119.393Z" fill="#CCCCCC"/>
<path fill-rule="evenodd" clip-rule="evenodd" d="M59.1423 15.0785V8.83545L8.33118 59.5684L59.1423 110.728V103.824L15.5047 59.5684L59.1423 15.0785Z" fill="#D8D8D8"/>
<path fill-rule="evenodd" clip-rule="evenodd" d="M15.5046 59.5685L59.1422 15.0146V35.1715L34.1912 59.5685L40.7894 66.0885L63.0273 43.872V63.3115L50.0582 75.7266L59.1422 84.3561V103.994L15.5046 59.5685Z" fill="white"/>
<path fill-rule="evenodd" clip-rule="evenodd" d="M63.0273 119.393L122.177 59.5685L63.0273 0V8.96332L113.846 59.5685L63.0273 110.685V119.393Z" fill="white"/>
<path fill-rule="evenodd" clip-rule="evenodd" d="M63.0273 15.2206V8.97046L113.846 59.5685L63.0273 110.692V103.817L106.672 59.5685L63.0273 15.2206Z" fill="#D8D8D8"/>
<path fill-rule="evenodd" clip-rule="evenodd" d="M106.672 59.5684L63.0273 15.1921V35.1714L87.957 59.5684L72.1185 75.5206L63.0273 84.356V103.959L106.672 59.5684Z" fill="#CCCCCC"/>
<path fill-rule="evenodd" clip-rule="evenodd" d="M165.928 52.6151V64.0217H150.082V106.757H138.008V12.6353H167.938V24.0418H150.082V52.6222H165.928V52.6151ZM187.555 106.757H175.481V28.7579C175.481 18.0118 180.303 12.6353 189.941 12.6353H198.997C208.635 12.6353 213.458 18.0118 213.458 28.7579V106.757H201.384V72.2818H187.555V106.757ZM201.391 60.8753V29.5462C201.391 25.8743 199.629 24.0418 196.106 24.0418H192.839C189.316 24.0418 187.555 25.8743 187.555 29.5462V60.8753H201.384H201.391ZM247.287 37.9343V29.6741C247.287 25.9169 245.525 24.0347 242.003 24.0347H240.113C236.676 24.0347 234.957 25.9169 234.957 29.6741V45.2711C234.957 47.0183 235.291 48.1973 235.966 48.8082C236.633 49.419 237.727 50.2073 239.233 51.1662L250.675 57.5868C253.189 59.0712 254.972 60.2289 256.016 61.0599C257.067 61.8909 257.884 62.8924 258.466 64.0785C259.056 65.2575 259.347 67.509 259.347 70.8329V90.8903C259.347 101.466 254.482 106.75 244.758 106.75H237.336C227.698 106.75 222.876 100.983 222.876 89.4485V84.7325H234.95V89.8463C234.95 93.5182 236.754 95.3507 240.355 95.3507H242.493C245.682 95.3507 247.273 93.5182 247.273 89.8463V73.8515C247.273 72.1043 246.939 70.9253 246.264 70.3144C245.589 69.7036 244.503 68.9153 242.997 67.9564L231.555 61.273C229.041 59.8738 227.215 58.6948 226.086 57.736C224.957 56.7771 224.14 55.5271 223.636 54.0001C223.131 52.473 222.883 50.4843 222.883 48.034V28.765C222.883 18.0189 227.705 12.6424 237.343 12.6424H244.886C254.524 12.6424 259.347 18.0189 259.347 28.765V37.9414H247.273L247.287 37.9343ZM288.659 24.0418V106.757H276.585V24.0418H265.015V12.6353H300.222V24.0418H288.652H288.659Z" fill="white"/>
<path d="M313.667 49.5965L314.945 46.7271C316.536 48.0056 319.064 48.9147 321.508 48.9147C324.604 48.9147 325.911 47.8067 325.911 46.3294C325.911 42.0395 314.1 44.852 314.1 37.4726C314.1 34.2623 316.657 31.5349 322.104 31.5349C324.491 31.5349 326.991 32.1599 328.724 33.2963L327.559 36.1657C325.769 35.1146 323.809 34.6032 322.076 34.6032C319.008 34.6032 317.758 35.7964 317.758 37.3021C317.758 41.5352 329.541 38.7794 329.541 46.0737C329.541 49.2556 326.955 51.9829 321.508 51.9829C318.411 51.9829 315.314 51.017 313.674 49.5965H313.667Z" fill="white"/>
<path d="M332.666 31.9115C332.666 30.7183 333.631 29.7808 334.938 29.7808C336.245 29.7808 337.211 30.6615 337.211 31.8263C337.211 33.0763 336.274 34.0422 334.938 34.0422C333.603 34.0422 332.666 33.1047 332.666 31.9115ZM333.148 36.5352H336.7V51.699H333.148V36.5352Z" fill="white"/>
<path d="M339.903 50.1933L341.267 47.4943C342.602 48.375 344.648 49 346.551 49C348.795 49 349.733 48.375 349.733 47.3239C349.733 44.4261 340.365 47.1534 340.365 41.1092C340.365 38.2398 342.95 36.3647 347.034 36.3647C349.051 36.3647 351.352 36.8477 352.716 37.6716L351.352 40.3705C349.903 39.5182 348.454 39.2341 347.006 39.2341C344.846 39.2341 343.824 39.9444 343.824 40.9387C343.824 44.007 353.192 41.2797 353.192 47.2173C353.192 50.0583 350.578 51.905 346.324 51.905C343.795 51.905 341.267 51.1663 339.903 50.2004V50.1933Z" fill="white"/>
<path d="M365.664 50.8751C364.811 51.557 363.533 51.8979 362.255 51.8979C358.931 51.8979 357.027 50.1365 357.027 46.7841V39.4899H354.527V36.6489H357.027V33.1829H360.578V36.6489H364.641V39.4899H360.578V46.6989C360.578 48.1762 361.317 48.9717 362.681 48.9717C363.419 48.9717 364.13 48.7728 364.669 48.3466L365.664 50.8751Z" fill="white"/>
<path d="M382.553 45.257H370.657C371.083 47.473 372.929 48.8935 375.572 48.8935C377.276 48.8935 378.611 48.3537 379.691 47.2457L381.595 49.4333C380.231 51.0526 378.1 51.9049 375.486 51.9049C370.401 51.9049 367.113 48.6378 367.113 44.1277C367.113 39.6176 370.436 36.3789 374.947 36.3789C379.457 36.3789 382.61 39.4756 382.61 44.2129C382.61 44.497 382.582 44.9232 382.553 45.2641V45.257ZM370.628 42.899H379.229C378.945 40.7114 377.269 39.2057 374.939 39.2057C372.61 39.2057 370.962 40.683 370.621 42.899H370.628Z" fill="white"/>
<path d="M411.659 43.0127V51.699H408.108V43.4672C408.108 40.7683 406.858 39.4614 404.699 39.4614C402.369 39.4614 400.75 40.9956 400.75 44.007V51.699H397.199V43.4672C397.199 40.7683 395.949 39.4614 393.79 39.4614C391.431 39.4614 389.841 40.9956 389.841 44.007V51.699H386.289V36.5352H389.67V38.4671C390.806 37.1034 392.568 36.3647 394.642 36.3647C396.858 36.3647 398.704 37.1886 399.756 38.8932C400.977 37.3307 403.023 36.3647 405.438 36.3647C409.102 36.3647 411.652 38.4387 411.652 43.0056L411.659 43.0127Z" fill="white"/>
<path d="M429.181 42.8138V51.699H425.829V49.8524C424.976 51.1592 423.329 51.8979 421.056 51.8979C417.59 51.8979 415.402 49.9944 415.402 47.3523C415.402 44.7102 417.107 42.8351 421.709 42.8351H425.63V42.6078C425.63 40.5339 424.38 39.3123 421.851 39.3123C420.147 39.3123 418.385 39.8805 417.249 40.818L415.857 38.2327C417.476 36.9827 419.834 36.3577 422.278 36.3577C426.653 36.3577 429.174 38.4316 429.174 42.8067L429.181 42.8138ZM425.63 46.9617V45.2002H421.965C419.55 45.2002 418.897 46.1094 418.897 47.2174C418.897 48.4958 419.976 49.3197 421.795 49.3197C423.613 49.3197 425.033 48.5242 425.63 46.9617Z" fill="white"/>
<path d="M432.278 50.1933L433.641 47.4943C434.977 48.375 437.022 49 438.926 49C441.17 49 442.108 48.375 442.108 47.3239C442.108 44.4261 432.74 47.1534 432.74 41.1092C432.74 38.2398 435.325 36.3647 439.409 36.3647C441.426 36.3647 443.727 36.8477 445.091 37.6716L443.727 40.3705C442.278 39.5182 440.829 39.2341 439.38 39.2341C437.221 39.2341 436.198 39.9444 436.198 40.9387C436.198 44.007 445.567 41.2797 445.567 47.2173C445.567 50.0583 442.953 51.905 438.698 51.905C436.17 51.905 433.642 51.1663 432.278 50.2004V50.1933Z" fill="white"/>
<path d="M313.922 75.8403C313.922 69.9027 318.468 65.6199 324.569 65.6199C327.807 65.6199 330.592 66.7847 332.431 68.9438L330.045 71.1882C328.596 69.6257 326.806 68.8586 324.732 68.8586C320.613 68.8586 317.637 71.7564 317.637 75.8403C317.637 79.9243 320.62 82.8221 324.732 82.8221C326.806 82.8221 328.596 82.055 330.045 80.464L332.431 82.7368C330.585 84.896 327.8 86.0608 324.54 86.0608C318.461 86.0608 313.922 81.7709 313.922 75.8403Z" fill="white"/>
<path d="M334.115 78.1912C334.115 73.6456 337.524 70.4424 342.176 70.4424C346.828 70.4424 350.266 73.6527 350.266 78.1912C350.266 82.7297 346.885 85.9684 342.176 85.9684C337.467 85.9684 334.115 82.7297 334.115 78.1912ZM346.693 78.1912C346.693 75.2934 344.761 73.4467 342.176 73.4467C339.59 73.4467 337.687 75.2934 337.687 78.1912C337.687 81.089 339.619 82.9356 342.176 82.9356C344.733 82.9356 346.693 81.089 346.693 78.1912Z" fill="white"/>
<path d="M368.895 77.0832V85.7695H365.344V77.5378C365.344 74.8388 364.009 73.532 361.736 73.532C359.207 73.532 357.503 75.0661 357.503 78.106V85.7695H353.952V70.6058H357.332V72.566C358.497 71.174 360.344 70.4353 362.56 70.4353C366.196 70.4353 368.895 72.5092 368.895 77.0761V77.0832Z" fill="white"/>
<path d="M371.964 84.2709L373.327 81.572C374.663 82.4527 376.708 83.0777 378.612 83.0777C380.856 83.0777 381.793 82.4527 381.793 81.4015C381.793 78.5037 372.425 81.231 372.425 75.1868C372.425 72.3174 375.011 70.4424 379.094 70.4424C381.112 70.4424 383.413 70.9253 384.776 71.7492L383.413 74.4482C381.964 73.5959 380.515 73.3118 379.066 73.3118C376.907 73.3118 375.884 74.022 375.884 75.0164C375.884 78.0846 385.252 75.3573 385.252 81.295C385.252 84.136 382.639 85.9826 378.384 85.9826C375.856 85.9826 373.327 85.2439 371.964 84.278V84.2709Z" fill="white"/>
<path d="M397.717 84.9528C396.865 85.6346 395.587 85.9755 394.308 85.9755C390.984 85.9755 389.081 84.2141 389.081 80.8617V73.5675H386.581V70.7265H389.081V67.2605H392.632V70.7265H396.695V73.5675H392.632V80.7765C392.632 82.2538 393.371 83.0493 394.734 83.0493C395.473 83.0493 396.183 82.8504 396.723 82.4243L397.717 84.9528Z" fill="white"/>
<path d="M409.699 70.4424V73.8232C409.387 73.7663 409.131 73.7379 408.875 73.7379C406.176 73.7379 404.472 75.3289 404.472 78.4256V85.7766H400.92V70.6128H404.301V72.8288C405.324 71.2379 407.171 70.4424 409.699 70.4424Z" fill="white"/>
<path d="M427.817 70.6128V85.7766H424.437V83.8447C423.3 85.2368 421.51 85.9754 419.55 85.9754C415.658 85.9754 413.016 83.8447 413.016 79.2778V70.6199H416.567V78.7948C416.567 81.5506 417.874 82.8575 420.118 82.8575C422.59 82.8575 424.266 81.3233 424.266 78.2835V70.6199H427.817V70.6128Z" fill="white"/>
<path d="M441.873 84.9528C441.021 85.6346 439.743 85.9755 438.464 85.9755C435.14 85.9755 433.237 84.2141 433.237 80.8617V73.5675H430.737V70.7265H433.237V67.2605H436.788V70.7265H440.85V73.5675H436.788V80.7765C436.788 82.2538 437.527 83.0493 438.89 83.0493C439.629 83.0493 440.339 82.8504 440.879 82.4243L441.873 84.9528Z" fill="white"/>
<path d="M444.601 65.9821C444.601 64.7888 445.567 63.8513 446.873 63.8513C448.18 63.8513 449.146 64.732 449.146 65.8968C449.146 67.1469 448.209 68.1128 446.873 68.1128C445.538 68.1128 444.601 67.1753 444.601 65.9821ZM445.084 70.6129H448.635V85.7767H445.084V70.6129Z" fill="white"/>
<path d="M467.769 70.6128L461.263 85.7766H457.598L451.092 70.6128H454.786L459.502 81.856L464.36 70.6128H467.769Z" fill="white"/>
<path d="M468.593 78.1912C468.593 73.6456 472.002 70.4424 476.654 70.4424C481.306 70.4424 484.744 73.6527 484.744 78.1912C484.744 82.7297 481.363 85.9684 476.654 85.9684C471.945 85.9684 468.593 82.7297 468.593 78.1912ZM481.171 78.1912C481.171 75.2934 479.239 73.4467 476.654 73.4467C474.069 73.4467 472.165 75.2934 472.165 78.1912C472.165 81.089 474.097 82.9356 476.654 82.9356C479.211 82.9356 481.171 81.089 481.171 78.1912Z" fill="white"/>
<path d="M486.711 84.2709L488.075 81.572C489.41 82.4527 491.456 83.0777 493.359 83.0777C495.603 83.0777 496.541 82.4527 496.541 81.4015C496.541 78.5037 487.173 81.231 487.173 75.1868C487.173 72.3174 489.758 70.4424 493.842 70.4424C495.859 70.4424 498.16 70.9253 499.524 71.7492L498.16 74.4482C496.711 73.5959 495.263 73.3118 493.814 73.3118C491.655 73.3118 490.632 74.022 490.632 75.0164C490.632 78.0846 500 75.3573 500 81.295C500 84.136 497.386 85.9826 493.132 85.9826C490.603 85.9826 488.075 85.2439 486.711 84.278V84.2709Z" fill="white"/>
</svg>
