<svg width="500" height="120" viewBox="0 0 500 120" fill="none" xmlns="http://www.w3.org/2000/svg">
<path fill-rule="evenodd" clip-rule="evenodd" d="M59.1415 119.391L0 59.5676L59.1415 0V8.9632L8.33108 59.5676L59.1415 110.683V119.391Z" fill="#7D1715"/>
<path fill-rule="evenodd" clip-rule="evenodd" d="M59.1414 15.0782V8.83521L8.33105 59.5675L59.1414 110.726V103.822L15.5045 59.5675L59.1414 15.0782Z" fill="#A91918"/>
<path fill-rule="evenodd" clip-rule="evenodd" d="M15.5044 59.5676L59.1414 15.0144V35.1709L34.1907 59.5676L40.7888 66.0876L63.0264 43.8713V63.3105L50.0574 75.7255L59.1414 84.3549V103.993L15.5044 59.5676Z" fill="#D21217"/>
<path fill-rule="evenodd" clip-rule="evenodd" d="M63.0265 119.391L122.175 59.5676L63.0265 0V8.9632L113.844 59.5676L63.0265 110.683V119.391Z" fill="#D21217"/>
<path fill-rule="evenodd" clip-rule="evenodd" d="M63.0265 15.2203V8.97021L113.844 59.5675L63.0265 110.69V103.815L106.671 59.5675L63.0265 15.2203Z" fill="#A91918"/>
<path fill-rule="evenodd" clip-rule="evenodd" d="M106.671 59.5675L63.0265 15.1919V35.1709L87.9558 59.5675L72.1175 75.5195L63.0265 84.3548V103.957L106.671 59.5675Z" fill="#7D1715"/>
<path fill-rule="evenodd" clip-rule="evenodd" d="M165.926 52.6145V64.0209H150.08V106.756H138.006V12.6353H167.936V24.0417H150.08V52.6216H165.926V52.6145ZM187.552 106.756H175.478V28.7576C175.478 18.0118 180.301 12.6353 189.939 12.6353H198.994C208.632 12.6353 213.455 18.0118 213.455 28.7576V106.756H201.381V72.281H187.552V106.756ZM201.388 60.8746V29.546C201.388 25.8741 199.626 24.0417 196.104 24.0417H192.837C189.314 24.0417 187.552 25.8741 187.552 29.546V60.8746H201.381H201.388ZM247.283 37.9339V29.6738C247.283 25.9167 245.522 24.0346 241.999 24.0346H240.11C236.672 24.0346 234.954 25.9167 234.954 29.6738V45.2707C234.954 47.0178 235.287 48.1968 235.962 48.8076C236.63 49.4184 237.724 50.2068 239.229 51.1656L250.671 57.5862C253.185 59.0706 254.968 60.2283 256.012 61.0592C257.063 61.8902 257.88 62.8917 258.462 64.0777C259.052 65.2567 259.343 67.5082 259.343 70.8321V90.8892C259.343 101.465 254.478 106.749 244.755 106.749H237.333C227.695 106.749 222.872 100.982 222.872 89.4474V84.7315H234.947V89.8452C234.947 93.5171 236.751 95.3495 240.351 95.3495H242.489C245.678 95.3495 247.269 93.5171 247.269 89.8452V73.8506C247.269 72.1034 246.935 70.9244 246.261 70.3136C245.586 69.7028 244.499 68.9145 242.994 67.9556L231.552 61.2723C229.037 59.8731 227.212 58.6941 226.083 57.7353C224.953 56.7765 224.137 55.5265 223.632 53.9995C223.128 52.4725 222.88 50.4838 222.88 48.0335V28.7647C222.88 18.0189 227.702 12.6424 237.34 12.6424H244.883C254.521 12.6424 259.343 18.0189 259.343 28.7647V37.941H247.269L247.283 37.9339ZM288.655 24.0417V106.756H276.581V24.0417H265.011V12.6353H300.217V24.0417H288.648H288.655Z" fill="#191A1A"/>
<path d="M313.662 49.5958L314.941 46.7264C316.531 48.0048 319.06 48.9139 321.496 48.9139C324.593 48.9139 325.9 47.806 325.9 46.3287C325.9 42.0388 314.088 44.8514 314.088 37.472C314.088 34.2617 316.645 31.5344 322.093 31.5344C324.479 31.5344 326.979 32.1594 328.705 33.2958L327.54 36.1652C325.75 35.114 323.79 34.6026 322.057 34.6026C318.989 34.6026 317.739 35.7958 317.739 37.3016C317.739 41.5346 329.522 38.7788 329.522 46.073C329.522 49.2548 326.936 51.9822 321.489 51.9822C318.392 51.9822 315.296 51.0162 313.655 49.5958H313.662Z" fill="#D21217"/>
<path d="M332.661 31.911C332.661 30.7178 333.627 29.7803 334.934 29.7803C336.241 29.7803 337.207 30.661 337.207 31.8258C337.207 33.0758 336.269 34.0417 334.934 34.0417C333.599 34.0417 332.661 33.1042 332.661 31.911ZM333.144 36.5346H336.695V51.6982H333.144V36.5346Z" fill="#D21217"/>
<path d="M339.898 50.1923L341.262 47.4934C342.597 48.3741 344.643 48.9991 346.546 48.9991C348.791 48.9991 349.728 48.3741 349.728 47.323C349.728 44.4252 340.36 47.1525 340.36 41.1084C340.36 38.239 342.945 36.364 347.036 36.364C349.053 36.364 351.355 36.847 352.718 37.6709L351.355 40.3698C349.906 39.5175 348.457 39.2334 347.008 39.2334C344.849 39.2334 343.826 39.9436 343.826 40.9379C343.826 44.0062 353.194 41.2789 353.194 47.2164C353.194 50.0574 350.58 51.904 346.326 51.904C343.798 51.904 341.269 51.1654 339.906 50.1994L339.898 50.1923Z" fill="#D21217"/>
<path d="M365.652 50.8744C364.799 51.5562 363.521 51.8971 362.243 51.8971C358.919 51.8971 357.015 50.1357 357.015 46.7834V39.4893H354.515V36.6483H357.015V33.1824H360.566V36.6483H364.629V39.4893H360.566V46.6982C360.566 48.1755 361.305 48.9709 362.669 48.9709C363.407 48.9709 364.118 48.7721 364.657 48.3459L365.652 50.8744Z" fill="#D21217"/>
<path d="M382.548 45.2564H370.652C371.078 47.4723 372.924 48.8928 375.567 48.8928C377.271 48.8928 378.606 48.353 379.686 47.245L381.589 49.4326C380.226 51.0519 378.095 51.9042 375.481 51.9042C370.396 51.9042 367.108 48.6371 367.108 44.1271C367.108 39.6171 370.432 36.3784 374.942 36.3784C379.452 36.3784 382.605 39.4751 382.605 44.2123C382.605 44.4964 382.577 44.9226 382.548 45.2635V45.2564ZM370.623 42.8984H379.224C378.94 40.7109 377.264 39.2052 374.934 39.2052C372.605 39.2052 370.957 40.6825 370.616 42.8984H370.623Z" fill="#D21217"/>
<path d="M411.654 43.0118V51.698H408.102V43.4664C408.102 40.7675 406.852 39.4606 404.693 39.4606C402.364 39.4606 400.744 40.9948 400.744 44.0062V51.698H397.193V43.4664C397.193 40.7675 395.943 39.4606 393.784 39.4606C391.426 39.4606 389.835 40.9948 389.835 44.0062V51.698H386.284V36.5345H389.665V38.4663C390.801 37.1027 392.562 36.364 394.636 36.364C396.852 36.364 398.699 37.1879 399.75 38.8925C400.972 37.3299 403.017 36.364 405.432 36.364C409.097 36.364 411.654 38.4379 411.654 43.0047V43.0118Z" fill="#D21217"/>
<path d="M429.175 42.813V51.6981H425.823V49.8514C424.971 51.1583 423.323 51.8969 421.05 51.8969C417.584 51.8969 415.397 49.9935 415.397 47.3514C415.397 44.7093 417.101 42.8343 421.704 42.8343H425.624V42.607C425.624 40.5331 424.374 39.3115 421.846 39.3115C420.141 39.3115 418.38 39.8797 417.243 40.8172L415.851 38.232C417.471 36.9819 419.829 36.3569 422.265 36.3569C426.64 36.3569 429.161 38.4308 429.161 42.7988L429.175 42.813ZM425.624 46.9608V45.1994H421.959C419.545 45.1994 418.891 46.1085 418.891 47.2165C418.891 48.4949 419.971 49.3188 421.789 49.3188C423.607 49.3188 425.028 48.5233 425.624 46.9608Z" fill="#D21217"/>
<path d="M432.272 50.1923L433.636 47.4934C434.971 48.3741 437.016 48.9991 438.92 48.9991C441.164 48.9991 442.102 48.3741 442.102 47.323C442.102 44.4252 432.734 47.1525 432.734 41.1084C432.734 38.239 435.319 36.364 439.41 36.364C441.427 36.364 443.728 36.847 445.092 37.6709L443.728 40.3698C442.279 39.5175 440.83 39.2334 439.381 39.2334C437.222 39.2334 436.2 39.9436 436.2 40.9379C436.2 44.0062 445.568 41.2789 445.568 47.2164C445.568 50.0574 442.954 51.904 438.7 51.904C436.171 51.904 433.643 51.1654 432.279 50.1994L432.272 50.1923Z" fill="#D21217"/>
<path d="M313.918 75.839C313.918 69.9014 318.464 65.6187 324.564 65.6187C327.803 65.6187 330.587 66.7834 332.427 68.9426L330.04 71.1869C328.591 69.6244 326.802 68.8573 324.728 68.8573C320.608 68.8573 317.633 71.7551 317.633 75.839C317.633 79.9228 320.616 82.8206 324.728 82.8206C326.802 82.8206 328.591 82.0535 330.04 80.4626L332.427 82.7354C330.58 84.8945 327.796 86.0593 324.536 86.0593C318.456 86.0593 313.918 81.7694 313.918 75.839Z" fill="#D21217"/>
<path d="M334.11 78.1901C334.11 73.6446 337.519 70.4414 342.171 70.4414C346.823 70.4414 350.261 73.6517 350.261 78.1901C350.261 82.7285 346.88 85.9672 342.171 85.9672C337.462 85.9672 334.11 82.7285 334.11 78.1901ZM346.688 78.1901C346.688 75.2923 344.756 73.4457 342.171 73.4457C339.586 73.4457 337.682 75.2923 337.682 78.1901C337.682 81.0879 339.614 82.9345 342.171 82.9345C344.728 82.9345 346.688 81.0879 346.688 78.1901Z" fill="#D21217"/>
<path d="M368.89 77.0892V85.7754H365.339V77.5438C365.339 74.8449 364.004 73.538 361.731 73.538C359.203 73.538 357.498 75.0722 357.498 78.112V85.7754H353.947V70.6119H357.327V72.5721C358.492 71.1801 360.339 70.4414 362.555 70.4414C366.191 70.4414 368.89 72.5153 368.89 77.0821V77.0892Z" fill="#D21217"/>
<path d="M371.958 84.2697L373.322 81.5708C374.657 82.4515 376.703 83.0765 378.606 83.0765C380.851 83.0765 381.788 82.4515 381.788 81.4004C381.788 78.5026 372.42 81.2299 372.42 75.1858C372.42 72.3164 375.005 70.4414 379.096 70.4414C381.113 70.4414 383.415 70.9244 384.778 71.7482L383.415 74.4471C381.966 73.5949 380.517 73.3108 379.068 73.3108C376.909 73.3108 375.886 74.021 375.886 75.0153C375.886 78.0836 385.254 75.3562 385.254 81.2938C385.254 84.1348 382.64 85.9814 378.386 85.9814C375.858 85.9814 373.329 85.2428 371.966 84.2768L371.958 84.2697Z" fill="#D21217"/>
<path d="M397.712 84.9515C396.859 85.6334 395.581 85.9743 394.303 85.9743C390.979 85.9743 389.075 84.2129 389.075 80.8606V73.5664H386.575V70.7255H389.075V67.2595H392.626V70.7255H396.689V73.5664H392.626V80.7753C392.626 82.2526 393.365 83.0481 394.729 83.0481C395.467 83.0481 396.178 82.8492 396.717 82.4231L397.712 84.9515Z" fill="#D21217"/>
<path d="M409.693 70.4414V73.8221C409.381 73.7653 409.125 73.7369 408.869 73.7369C406.171 73.7369 404.466 75.3278 404.466 78.4245V85.7754H400.915V70.6119H404.296V72.8278C405.318 71.2369 407.165 70.4414 409.693 70.4414Z" fill="#D21217"/>
<path d="M427.812 70.6118V85.7754H424.431V83.8435C423.295 85.2356 421.505 85.9743 419.544 85.9743C415.652 85.9743 413.01 83.8435 413.01 79.2767V70.6189H416.561V78.7938C416.561 81.5495 417.868 82.8563 420.113 82.8563C422.584 82.8563 424.26 81.3222 424.26 78.2824V70.6189H427.812V70.6118Z" fill="#D21217"/>
<path d="M441.867 84.9515C441.015 85.6334 439.737 85.9743 438.458 85.9743C435.134 85.9743 433.231 84.2129 433.231 80.8606V73.5664H430.731V70.7255H433.231V67.2595H436.782V70.7255H440.844V73.5664H436.782V80.7753C436.782 82.2526 437.521 83.0481 438.884 83.0481C439.623 83.0481 440.333 82.8492 440.873 82.4231L441.867 84.9515Z" fill="#D21217"/>
<path d="M444.594 65.9811C444.594 64.7879 445.56 63.8503 446.867 63.8503C448.174 63.8503 449.14 64.731 449.14 65.8958C449.14 67.1458 448.202 68.1118 446.867 68.1118C445.532 68.1118 444.594 67.1743 444.594 65.9811ZM445.077 70.6118H448.629V85.7754H445.077V70.6118Z" fill="#D21217"/>
<path d="M467.762 70.6118L461.264 85.7754H457.599L451.1 70.6118H454.794L459.51 81.8549L464.368 70.6118H467.777H467.762Z" fill="#D21217"/>
<path d="M468.586 78.1901C468.586 73.6446 471.996 70.4414 476.648 70.4414C481.3 70.4414 484.737 73.6517 484.737 78.1901C484.737 82.7285 481.356 85.9672 476.648 85.9672C471.939 85.9672 468.586 82.7285 468.586 78.1901ZM481.165 78.1901C481.165 75.2923 479.233 73.4457 476.648 73.4457C474.062 73.4457 472.159 75.2923 472.159 78.1901C472.159 81.0879 474.091 82.9345 476.648 82.9345C479.204 82.9345 481.165 81.0879 481.165 78.1901Z" fill="#D21217"/>
<path d="M486.704 84.2697L488.068 81.5708C489.403 82.4515 491.449 83.0765 493.352 83.0765C495.597 83.0765 496.534 82.4515 496.534 81.4004C496.534 78.5026 487.166 81.2299 487.166 75.1858C487.166 72.3164 489.751 70.4414 493.842 70.4414C495.859 70.4414 498.16 70.9244 499.524 71.7482L498.16 74.4471C496.712 73.5949 495.263 73.3108 493.814 73.3108C491.655 73.3108 490.632 74.021 490.632 75.0153C490.632 78.0836 500 75.3562 500 81.2938C500 84.1348 497.386 85.9814 493.132 85.9814C490.604 85.9814 488.075 85.2428 486.711 84.2768L486.704 84.2697Z" fill="#D21217"/>
</svg>
