<svg width="495" height="150" viewBox="0 0 495 150" fill="none" xmlns="http://www.w3.org/2000/svg">
<path d="M149.823 92.3594V103.443H136.589V77.8334C136.687 72.7813 140.786 68.7344 145.823 68.698H178.385C180.797 68.6615 183.115 69.6302 184.786 71.375C186.536 73.0625 187.516 75.3959 187.495 77.8334V103.443H174.365V92.3594H149.823ZM157.651 84.974H174.365V77.3542H149.823V84.974H157.651Z" fill="#DC1941"/>
<path d="M234.016 77.3542H196.094V68.6979H238.031C240.443 68.6667 242.76 69.6354 244.432 71.375C246.187 73.0625 247.167 75.3959 247.146 77.8334V94.3125C247.125 99.3438 243.057 103.422 238.031 103.443H196.031V82.8959H209.203V94.8073H234.057V77.3542" fill="#DC1941"/>
<path d="M268.479 103.443H255.245V77.8334C255.281 75.4011 256.271 73.0834 258 71.375C259.687 69.625 262.031 68.6563 264.464 68.6979H306.422V77.3542H268.479V103.443ZM274.031 82.1302H298.224V89.6407H274.031V82.1302Z" fill="#DC1941"/>
<path d="M353.396 68.6979C358.479 68.651 362.63 72.7448 362.677 77.8333V94.3125C362.703 96.7552 361.724 99.099 359.963 100.786C358.229 102.536 355.859 103.5 353.396 103.443H320.776C318.338 103.495 315.984 102.531 314.276 100.786C312.521 99.0937 311.552 96.75 311.604 94.3125V77.8333C311.604 75.401 312.573 73.0677 314.292 71.3542C316.016 69.6354 318.349 68.6823 320.776 68.6979H353.396ZM324.693 94.8073H349.547V77.3542H324.693V94.8073Z" fill="#DC1941"/>
<path d="M384.385 103.443H370.88V68.698H410.979C413.453 68.6302 415.849 69.6042 417.583 71.375C419.38 73.0365 420.385 75.3854 420.359 77.8334V81.9844C420.365 83 420.193 84.0105 419.865 84.974C419.521 85.8959 419.031 86.7552 418.411 87.5261C417.786 88.323 417.047 89.0209 416.219 89.599C415.37 90.1563 414.437 90.5677 413.463 90.823L421.604 103.589H406.172L393.745 83.0417H406.771V77.1875H384.385V103.547" fill="#DC1941"/>
<path d="M466.937 89.6406H439.786C438.396 89.4375 437.036 89.0573 435.75 88.5C434.604 87.9792 433.547 87.2761 432.62 86.4219C431.75 85.6563 431.047 84.7136 430.547 83.6615C430.057 82.5677 429.812 81.3802 429.823 80.1771V77.8542C429.792 75.4063 430.818 73.0677 432.641 71.4375C434.51 69.6615 437.005 68.6979 439.578 68.7604H481.208V77.0625H443.927V81.9636H471C472.406 82.0781 473.797 82.3594 475.141 82.7917C476.292 83.1719 477.375 83.7344 478.354 84.4531C479.219 85.1302 479.922 85.9844 480.422 86.9636C480.948 87.9896 481.213 89.1302 481.187 90.2865V94.4375C481.234 96.9219 480.161 99.3021 478.271 100.911C476.375 102.682 473.859 103.635 471.271 103.568H429.802V95.2656H466.937V89.6406Z" fill="#DC1941"/>
<path d="M184.182 56.2656L181.698 56.0573C180.807 56.6615 178.094 58.3646 178.094 58.3646H181.12L184.182 56.2656Z" fill="#DC1941"/>
<path d="M179.708 55.8542L176.891 55.7084C175.937 56.3282 172.917 58.4063 172.917 58.4063H176.021C176.021 58.4063 178.755 56.4323 179.708 55.8542Z" fill="#DC1941"/>
<path d="M188.51 56.7657L186.318 56.5365L183.542 58.3646H186.089C186.089 58.3646 187.682 57.349 188.51 56.7657Z" fill="#DC1941"/>
<path d="M186.583 48.6511C185.797 49.3334 184.969 50 184.12 50.724H186.729C187.578 50.0625 188.406 49.375 189.219 48.6511C188.344 48.6719 187.474 48.6719 186.583 48.6511Z" fill="#DC1941"/>
<path d="M175.047 55.5625H171.901C170.865 56.224 167.76 58.4479 167.76 58.4479H171.344C171.344 58.4479 174.016 56.224 175.047 55.5625Z" fill="#DC1941"/>
<path d="M186.687 52.6146C185.88 53.2188 185.031 53.7969 184.203 54.4011L186.604 54.5677C187.453 53.9844 188.307 53.3594 189.114 52.7605C188.307 52.698 187.495 52.6355 186.687 52.6146Z" fill="#DC1941"/>
<path d="M165.214 55.3334C163.927 55.3334 162.604 55.3334 161.297 55.4584C160.135 56.1615 156.76 58.4063 156.76 58.4063H160.901C163.719 56.4323 163.823 56.2032 165.214 55.3334Z" fill="#DC1941"/>
<path d="M170.224 55.375H166.703C165.604 56.0573 162.562 58.3854 162.562 58.3854H166.536C166.536 58.3854 169.125 56.0781 170.224 55.375Z" fill="#DC1941"/>
<path d="M193.422 53.2344C192.729 53.1563 192.042 53.0938 191.349 53.0521L189.135 54.6459L191.203 54.8542L193.422 53.2344Z" fill="#DC1941"/>
<path d="M154.109 55.8334L149.969 56.1615C148.828 56.8073 146.385 58.4063 146.385 58.4063H150.234C150.234 58.4063 152.948 56.4323 154.109 55.8334Z" fill="#DC1941"/>
<path d="M159.745 55.5L155.599 55.7292C154.443 56.4115 151.292 58.3646 151.292 58.3646H155.437C155.437 58.3646 158.583 56.224 159.745 55.5Z" fill="#DC1941"/>
<path d="M144.729 58.5104C144.729 58.5104 147.109 57.0156 148.25 56.4323L143.922 56.8906L140.854 58.5729L144.729 58.5104Z" fill="#DC1941"/>
<path d="M202.266 40.6823H200.422L198.766 42.4219H200.672C201.187 41.9063 201.724 41.2813 202.266 40.6823Z" fill="#DC1941"/>
<path d="M191.495 48.9427L189.422 50.6823C190.167 50.6823 190.896 50.6823 191.62 50.8073L193.812 49.0261L191.495 48.9427Z" fill="#DC1941"/>
<path d="M199.864 14.2604L196.963 14.7761C196.484 16.0209 195.948 17.2292 195.391 18.4323L198.349 17.9531C198.891 16.75 199.385 15.5261 199.864 14.2604Z" fill="#DC1941"/>
<path d="M209.495 13.4271C208.708 13.4271 207.917 13.4271 207.13 13.6355C206.739 14.6927 206.344 15.7136 205.891 16.7292L208.312 16.5209C208.708 15.5053 209.12 14.4688 209.495 13.4271Z" fill="#DC1941"/>
<path d="M208.521 25.5521H206.448C206.036 26.2969 205.578 27.0625 205.104 27.7917H207.172C207.672 27.0625 208.125 26.2969 208.521 25.5521Z" fill="#DC1941"/>
<path d="M188.12 20.1927C188.802 18.8229 189.464 17.4323 190.068 16.0417C188.927 16.3334 187.766 16.625 186.625 16.9584C185.984 18.3906 185.302 19.8021 184.557 21.1094L188.12 20.1927Z" fill="#DC1941"/>
<path d="M193.276 19.073C193.875 17.7865 194.458 16.4584 194.995 15.1302L191.807 15.7969C191.266 17.1459 190.667 18.4532 190.026 19.7396C191.099 19.3855 192.135 19.1771 193.276 19.073Z" fill="#DC1941"/>
<path d="M204.708 13.7604L202.078 14.0729C201.646 15.2552 201.187 16.375 200.693 17.474C201.583 17.349 202.474 17.2292 203.365 17.1459C203.859 16.0417 204.297 14.9219 204.708 13.7604Z" fill="#DC1941"/>
<path d="M201.542 35.9062H199.469C198.932 36.5937 198.391 37.276 197.812 37.9844H199.88C200.422 37.2552 201.021 36.5937 201.542 35.9062Z" fill="#DC1941"/>
<path d="M139.115 56.8073L143.609 56.1823C144.771 55.5417 145.927 54.875 147.068 54.1094L142.594 54.8125C141.463 55.5208 140.302 56.1823 139.115 56.8073Z" fill="#DC1941"/>
<path d="M182.922 21.6875C183.687 20.2344 184.432 18.7396 185.135 17.2084C183.896 17.5782 182.651 17.974 181.427 18.4115C180.682 19.9271 179.917 21.4011 179.109 22.8282L182.922 21.6875Z" fill="#DC1941"/>
<path d="M197.646 40.5156H195.411C194.807 41.1771 194.167 41.8229 193.526 42.4635C194.292 42.4635 195.036 42.4635 195.76 42.4635C196.401 41.9063 197.047 41.1771 197.646 40.5156Z" fill="#DC1941"/>
<path d="M202.495 45.349H200.755C200.213 45.8698 199.677 46.3855 199.094 46.8855H200.812C201.422 46.4011 201.979 45.8907 202.495 45.349Z" fill="#DC1941"/>
<path d="M205.203 30.9479C204.5 30.9479 203.818 30.9479 203.135 30.9479C202.656 31.6511 202.141 32.3594 201.646 33.0209H203.713C204.213 32.3594 204.708 31.6719 205.203 30.9479Z" fill="#DC1941"/>
<path d="M206.198 36.0312C205.599 36.0312 205 36.0312 204.354 36.0312C203.901 36.6354 203.406 37.2344 202.906 37.8177H204.729L206.198 36.0312Z" fill="#DC1941"/>
<path d="M194.5 29.0156C195.411 28.8906 196.323 28.8073 197.229 28.724C197.833 27.8125 198.411 26.8594 198.953 25.9011L196.239 26.1927C195.677 27.1459 195.099 28.0834 194.5 29.0156Z" fill="#DC1941"/>
<path d="M184.557 52.4271C183.667 52.4271 182.755 52.4271 181.844 52.4271C180.974 53.073 180.083 53.7136 179.172 54.3386C180.062 54.3386 180.974 54.3386 181.864 54.4636L184.557 52.4271Z" fill="#DC1941"/>
<path d="M196.818 35.9062L194.312 36.0521C193.708 36.8177 193.068 37.5677 192.406 38.2917L194.911 38.1875C195.573 37.4635 196.281 36.6927 196.818 35.9062Z" fill="#DC1941"/>
<path d="M181.531 48.5886L178.859 50.6615H181.781C182.693 49.9792 183.604 49.25 184.474 48.5886H181.531Z" fill="#DC1941"/>
<path d="M197.75 23.4948C198.661 23.3698 199.573 23.2656 200.484 23.2031C201.021 22.1667 201.542 21.1302 202.036 20.0886C201.146 20.1927 200.234 20.2761 199.344 20.4219C198.849 21.4584 198.349 22.5 197.75 23.4948Z" fill="#DC1941"/>
<path d="M200.422 30.9896L198.021 31.1511C197.479 31.9427 196.901 32.7292 196.302 33.5L198.724 33.3542C199.323 32.5834 199.901 31.7969 200.422 30.9896Z" fill="#DC1941"/>
<path d="M188.865 44.6459C187.911 44.6459 186.979 44.6459 186.026 44.6459C185.24 45.3907 184.411 46.1198 183.583 46.8438C184.536 46.8438 185.469 46.8438 186.422 46.8438C187.25 46.0573 187.995 45.3907 188.865 44.6459Z" fill="#DC1941"/>
<path d="M159 52.8021L154.854 53.198C153.74 53.9427 152.578 54.6459 151.417 55.2709L155.557 54.9167C156.677 54.3594 157.818 53.5469 159 52.8021Z" fill="#DC1941"/>
<path d="M179.833 52.2812C178.839 52.2812 177.76 52.2812 176.807 52.2812C175.88 52.9687 174.906 53.6302 173.932 54.3594H176.932C177.927 53.5677 178.88 52.8854 179.833 52.2812Z" fill="#DC1941"/>
<path d="M164.589 52.2812L160.448 52.5729C159.307 53.3385 158.172 54.0677 157.01 54.7917L161.151 54.5469C162.333 53.901 163.474 53.1354 164.589 52.2812Z" fill="#DC1941"/>
<path d="M148.432 53.3177C149.573 52.6146 150.672 51.8646 151.792 51.099L147.339 51.8855C146.24 52.6355 145.099 53.3386 143.964 53.9636L148.432 53.3177Z" fill="#DC1941"/>
<path d="M169.932 52.1354L166.161 52.3021C165.068 53.0521 163.969 53.7969 162.849 54.5261L166.599 54.4011C167.76 53.6511 168.833 52.9063 169.932 52.1354Z" fill="#DC1941"/>
<path d="M174.969 52.0938H171.568C170.557 52.8229 169.5 53.5052 168.505 54.1719H171.859C172.917 53.5469 173.953 52.8229 174.969 52.0938Z" fill="#DC1941"/>
<path d="M145.328 55.9792L149.656 55.5C150.818 54.8125 151.974 54.1302 153.094 53.4219C151.667 53.5885 150.213 53.7552 148.766 53.9635C147.625 54.6458 146.573 55.3125 145.328 55.9792Z" fill="#DC1941"/>
<path d="M147.604 40.8229C148.953 40.0156 150.297 39.2084 151.75 38.4584C152.865 37.3177 153.984 36.1354 155.083 34.9323C153.776 35.7396 152.516 36.5729 151.229 37.4427C149.948 38.3125 148.807 39.8281 147.604 40.8229Z" fill="#DC1941"/>
<path d="M152.786 40.1823C153.859 39.125 154.854 38.1042 155.953 36.9219C154.568 37.5677 153.198 38.2292 151.812 39C150.734 40.0573 149.615 41.0729 148.495 42.1354C150.01 41.4271 151.437 40.7865 152.786 40.1823Z" fill="#DC1941"/>
<path d="M159 34.7657C160.323 34.1615 161.672 33.5625 163.141 33C164.135 31.7761 165.109 30.5105 166.021 29.224C164.713 29.8021 163.411 30.448 162.125 31.0938C160.943 32.3594 159.911 33.6042 159 34.7657Z" fill="#DC1941"/>
<path d="M153.24 37.5885L157.38 35.5104C158.437 34.3281 159.453 33.125 160.49 31.8594C159.161 32.5417 157.88 33.2708 156.594 33.9323C155.458 35.2448 154.359 36.4479 153.24 37.5885Z" fill="#DC1941"/>
<path d="M150.255 49.0052C148.766 49.3334 147.255 49.6875 145.76 50.0625C144.646 50.8282 143.526 51.599 142.406 52.323C143.922 51.9688 145.432 51.6615 146.963 51.349C148.083 50.5782 149.182 49.7917 150.255 49.0052Z" fill="#DC1941"/>
<path d="M192.302 24.4479C193.338 24.2604 194.375 24.1406 195.391 23.9948C196.031 22.8698 196.63 21.7084 197.193 20.5261L194.125 21.0261C193.547 22.2084 192.943 23.3281 192.302 24.4479Z" fill="#DC1941"/>
<path d="M143.859 46.0573C145.349 45.4531 146.818 44.8542 148.312 44.2917L151.583 41.3854C150.114 41.9896 148.682 42.6094 147.234 43.2552C146.135 44.2709 145.016 45.2031 143.859 46.0573Z" fill="#DC1941"/>
<path d="M186.792 25.5885L190.208 24.9271C190.917 23.724 191.578 22.5 192.281 21.2344C191.161 21.4375 190.026 21.6667 188.906 21.9167C188.203 23.224 187.495 24.3854 186.792 25.5885Z" fill="#DC1941"/>
<path d="M181.182 26.9636L184.948 26.1094C185.714 24.823 186.484 23.4948 187.187 22.1459C185.943 22.4375 184.724 22.7292 183.5 23.0573C182.755 24.3855 181.99 25.6719 181.182 26.9636Z" fill="#DC1941"/>
<path d="M164.505 32.3594C165.854 31.8177 167.198 31.3177 168.526 30.8438C169.458 29.5573 170.37 28.2917 171.24 26.9427L167.323 28.5365C166.411 29.8438 165.479 31.1302 164.505 32.3594Z" fill="#DC1941"/>
<path d="M188.948 29.8854L192.135 29.4531C192.839 28.4323 193.484 27.375 194.208 26.2969L191.099 26.776C190.312 27.8333 189.63 28.8698 188.948 29.8854Z" fill="#DC1941"/>
<path d="M175.568 28.5157C176.87 28.1459 178.177 27.7709 179.5 27.4375C180.344 26.1355 181.151 24.7552 181.927 23.2865L178.073 24.4271C177.328 25.9011 176.5 27.2292 175.568 28.5157Z" fill="#DC1941"/>
<path d="M170.099 30.2813C171.427 29.8229 172.75 29.3906 174.078 28.9948C174.969 27.7083 175.797 26.3802 176.625 25.0312C175.338 25.4479 174.036 25.901 172.75 26.3802C171.901 27.7083 171.01 29.0156 170.099 30.2813Z" fill="#DC1941"/>
<path d="M109.807 62.5365L108.13 63.1979C109.453 62.724 110.76 62.224 112.062 61.7031L113.391 61.125L110.531 62.2656L111.859 61.7448L109.807 62.5365Z" fill="#DC1941"/>
<path d="M114.052 119.406C113.865 122.953 113.745 128.911 113.724 132.708C117.573 133.578 124.844 135.635 126.354 136.073V121.708C124.844 121.417 117.573 120.005 114.052 119.406Z" fill="#DC1941"/>
<path d="M96.677 127.995C100.115 128.766 104.109 130.073 107.776 130.839C107.963 127.396 108.38 122.104 108.708 118.906C105.354 118.344 101.771 117.682 98.6458 117.161C98.0208 120.089 97.1718 124.927 96.677 127.995Z" fill="#DC1941"/>
<path d="M98.9323 112.781L109.292 114.276C109.703 110.958 110.203 107.76 110.76 104.667L101.193 103.901C100.526 106.766 99.7187 109.714 98.9323 112.781Z" fill="#DC1941"/>
<path d="M102.37 100.661L111.63 101.182C112.229 98.2969 112.875 95.5157 113.703 92.8802H105.229C104.151 95.3907 103.24 97.9427 102.37 100.661Z" fill="#DC1941"/>
<path d="M117.245 92.7552C116.62 95.5365 116.083 98.4219 115.604 101.391C118.651 101.557 124.969 101.823 126.354 101.885V92.5469L117.245 92.7552Z" fill="#DC1941"/>
<path d="M115.088 105C114.656 108.198 114.302 111.516 114.031 114.943C117.489 115.443 124.719 116.688 126.354 117.016V106.036C125.135 105.87 120.036 105.375 115.088 105Z" fill="#DC1941"/>
<path d="M81.927 123.781C84.578 124.385 88.1405 125.443 90.8958 126.089C91.4166 123.411 92.0989 119.156 92.7187 116.646C90.151 116.229 87.3749 115.646 84.953 115.234C84.1041 117.557 82.6978 121.312 81.927 123.781Z" fill="#DC1941"/>
<path d="M33.5467 105.146C31.703 106.641 29.88 108.198 28.0571 109.797L33.3592 111.229C35.078 109.505 36.8175 107.844 38.5571 106.245L33.5467 105.146Z" fill="#DC1941"/>
<path d="M57.7604 117.432L65.1093 119.156C66.1875 117.078 67.5573 114.526 68.6927 112.536C66.625 112.182 63.7031 111.599 61.776 111.229C60.4948 113.073 59 115.458 57.7604 117.432Z" fill="#DC1941"/>
<path d="M42.203 106.87C40.3801 108.609 38.578 110.417 36.7968 112.266L42.8853 113.823C44.5468 111.828 46.2238 109.901 47.9218 108.031L42.203 106.87Z" fill="#DC1941"/>
<path d="M120.099 82.0885C119.333 84.5156 118.609 87.0469 118.031 89.6198L126.312 89.3073V81.5469C125.401 81.6094 122.38 81.8385 120.099 82.0885Z" fill="#DC1941"/>
<path d="M69.2968 120.464C71.5311 120.964 74.7238 121.917 77.0832 122.536C77.8905 120.276 79.4843 116.932 80.3749 114.818L72.7343 113.573C71.6978 115.458 70.2707 118.344 69.2968 120.464Z" fill="#DC1941"/>
<path d="M89.3228 103.026C88.1822 105.521 87.0676 108.094 86.0311 110.75L94.9374 112.057C95.7499 109.193 96.6197 106.427 97.5468 103.755L89.3228 103.026Z" fill="#DC1941"/>
<path d="M51.5468 109.005C50.0103 110.813 48.3541 113.052 46.8645 114.964C48.9374 115.458 51.6718 116.063 53.7812 116.583C55.151 114.505 56.6614 112.161 58.0885 110.229L51.5468 109.005Z" fill="#DC1941"/>
<path d="M215.271 27.4792H216.76C217.115 26.9219 217.448 26.3385 217.776 25.7344H216.286C215.953 26.3385 215.625 26.901 215.271 27.4792Z" fill="#DC1941"/>
<path d="M216.99 13.3229C216.703 14.1563 216.391 15.0052 216.036 15.8177H217.901C218.255 14.9844 218.542 14.1771 218.833 13.3229C218.255 13.2813 217.63 13.2813 216.99 13.3229Z" fill="#DC1941"/>
<path d="M214.443 19.7396C214.109 20.4844 213.781 21.1927 213.406 21.9167H215.167C215.521 21.2136 215.87 20.4844 216.203 19.8438L214.443 19.7396Z" fill="#DC1941"/>
<path d="M218.38 21.75H219.87C220.182 21.1302 220.49 20.4844 220.781 19.8438H219.271C219.062 20.4844 218.687 21.151 218.38 21.75Z" fill="#DC1941"/>
<path d="M127.391 64.7344C126.396 66.6042 125.443 68.5104 124.552 70.4844L126.625 69.9844C127 67.8698 127.891 65.8802 129.213 64.1979L127.391 64.7344Z" fill="#DC1941"/>
<path d="M221.839 13.4271C221.568 14.1563 221.318 14.9011 221.01 15.5053H222.625C222.896 14.7761 223.182 14.0521 223.432 13.4271H221.839Z" fill="#DC1941"/>
<path d="M211.771 32.8125H213.281C213.656 32.2761 214.052 31.7136 214.401 31.1302H212.849C212.536 31.7344 212.167 32.2761 211.771 32.8125Z" fill="#DC1941"/>
<path d="M138.823 58.5105L142.203 57.0365L137.729 57.6355L137.292 57.7813L137.849 56.8698C138.865 56.349 139.922 55.8125 140.812 55.25L138.74 55.625L139.115 55.0417L142.302 54.4427C143.463 53.7552 144.583 53.0313 145.703 52.3646C144.167 52.6563 142.656 52.9688 141.125 53.2969C140.708 53.5261 140.271 53.698 139.818 53.8177L139.052 55.0625C138.307 55.3125 133.5 56.9115 131.74 57.698C130.682 59.3177 129.672 61 128.677 62.724C129.422 62.4532 130.542 62.099 131.677 61.7448C133.026 60.4532 134.667 59.5157 136.463 59.0052C138.286 58.5105 138.823 58.5105 138.823 58.5105Z" fill="#DC1941"/>
<path d="M207.896 37.7552H209.453L210.734 36.1771C210.224 36.1771 209.708 36.1771 209.182 36.1771C208.708 36.7552 208.354 37.2761 207.896 37.7552Z" fill="#DC1941"/>
<path d="M126.354 72.2292C125.588 72.3542 124.594 72.5625 123.5 72.7865C122.609 74.8646 121.781 77.125 120.99 79.3698C123.062 79.0573 125.547 78.6823 126.354 78.5365V72.2292Z" fill="#DC1941"/>
<path d="M203.672 42.4427H205.307C205.807 41.9271 206.281 41.4063 206.76 40.8646H205.146C204.667 41.4271 204.193 41.9063 203.672 42.4427Z" fill="#DC1941"/>
<path d="M209.844 31.0104H208.083C207.672 31.6302 207.234 32.2552 206.781 32.8542H208.542C208.995 32.2761 209.432 31.6563 209.844 31.0104Z" fill="#DC1941"/>
<path d="M132.651 51.0781L130.583 52.3438L132.385 51.224L132.651 51.0781Z" fill="#DC1941"/>
<path d="M120.021 58.1563L119.208 58.5729C120.557 57.9479 121.901 57.2865 123.229 56.4948L124.469 55.7917L124.078 56C123.042 56.4948 122.005 57.0156 120.99 57.5521L122.526 56.8073C121.719 57.349 120.849 57.7604 120.021 58.1563Z" fill="#DC1941"/>
<path d="M126.771 54.6094L124.469 55.8958L126.068 55.0208L126.771 54.6094Z" fill="#DC1941"/>
<path d="M120.021 58.1563L120.989 57.6562L118.547 58.8594H118.713L120.021 58.1563Z" fill="#DC1941"/>
<path d="M126.068 55.0208L124.865 55.75C126.213 55.0208 127.578 54.2552 129.005 53.4844C129.568 53.0937 130.146 52.7188 130.724 52.3438L129.568 53.0729L126.854 54.6094L128.016 53.9844L126.068 55.0208Z" fill="#DC1941"/>
<path d="M114.943 60.4583L113.661 61.0625C114.984 60.5 116.292 59.9219 117.615 59.3177L118.547 58.8594L115.771 60.0885L117.161 59.5052L114.943 60.4583Z" fill="#DC1941"/>
<path d="M115.771 60.0886L113.391 61.125L114.943 60.4584L115.771 60.0886Z" fill="#DC1941"/>
<path d="M172.297 25.3021C173.187 23.9115 174.016 22.4584 174.844 20.9636C173.578 21.5 172.359 22.0834 171.156 22.6667C170.286 24.1406 169.396 25.5521 168.464 26.9427C169.724 26.3594 171.01 25.7969 172.297 25.3021Z" fill="#DC1941"/>
<path d="M166.974 27.6042C167.906 26.2344 168.833 24.8021 169.708 23.4531C168.464 24.0781 167.26 24.7396 166.062 25.5313C165.109 26.9792 164.135 28.349 163.12 29.6823C164.385 28.8281 165.667 28.2083 166.974 27.6042Z" fill="#DC1941"/>
<path d="M177.641 23.3281C178.469 21.8958 179.255 20.4219 180.021 18.9062C178.75 19.3646 177.505 19.8437 176.292 20.3385C175.505 21.8333 174.677 23.3073 173.807 24.7187C175.047 24.2187 176.333 23.7656 177.641 23.3281Z" fill="#DC1941"/>
<path d="M161.63 30.3021C162.661 28.9531 163.698 27.5834 164.651 26.1511C163.411 26.8802 162.229 27.6459 161.047 28.4531C160 29.8386 158.922 31.224 157.818 32.6042C159 31.7344 160.344 30.9896 161.63 30.3021Z" fill="#DC1941"/>
<path d="M154.464 52.4896C155.599 51.7448 156.698 50.974 157.797 50.1875L153.49 50.8281C152.391 51.6198 151.271 52.3437 150.135 53.0729L154.464 52.4896Z" fill="#DC1941"/>
<path d="M136.609 48.5469L137 48.3178L136.401 48.7969C136.859 48.5053 137.292 48.1928 137.729 47.8803C138.76 47.2605 139.797 46.6563 140.896 46.0573C139.734 47.2605 138.62 48.4844 137.542 49.75C139.177 48.7553 143.484 46.3646 143.484 46.3646L145.224 43.75L146.922 42.9011C148.083 41.8855 149.203 40.823 150.297 39.7865C148.995 40.4948 147.687 41.2188 146.406 41.8646V41.7396C146.406 41.7396 143.255 44.125 141.495 45.4115C142.49 44.6042 143.568 43.8125 144.458 42.9636L142.865 43.9792L144.932 42.2969L145.823 41.7188C147.047 40.6407 148.25 39.5157 149.448 38.3542L147.937 39.474L148.745 38.6042C149.464 38.0261 150.156 37.4636 150.818 36.9219C152.036 35.6771 153.26 34.4115 154.464 33.0834C153.302 34.0782 152.161 35.1615 151.068 36.1563C149.969 37.1511 148.745 38.3542 147.583 39.4115L145.703 41.0521L144.87 41.8021C144.167 42.4011 143.443 43.0052 142.802 43.5625L144.125 42.4219C142.823 43.5053 141.495 44.5 140.172 45.5782C139.219 46.2657 138.286 46.9896 137.354 47.6563L136.609 48.5469ZM143.422 43.5469L142.635 44.2917L141.516 45.0157L142.365 44.2709L143.422 43.5469Z" fill="#DC1941"/>
<path d="M156.349 33.4167C157.463 32.1302 158.562 30.8021 159.661 29.4115C158.458 30.2813 157.281 31.1719 156.141 32.0886C154.958 33.4167 153.776 34.724 152.578 35.948C153.818 35.0782 155.083 34.224 156.349 33.4167Z" fill="#DC1941"/>
<path d="M69.1926 76.9792L65.0468 77.2292C62.9791 78.0625 60.9062 78.9115 58.8333 79.8021H63.1041C65.0676 78.7865 67.1405 77.875 69.1926 76.9792Z" fill="#DC1941"/>
<path d="M25.4063 103.589C23.75 104.766 22.0937 105.969 20.4375 107.198C21.8021 107.635 23.1927 108.052 24.5781 108.427C26.1719 107.12 27.7708 105.807 29.3646 104.563L25.4063 103.589Z" fill="#DC1941"/>
<path d="M51.651 85.2813L47.1562 84.9948C44.9374 86.0521 42.6822 87.0677 40.4426 88.2709C41.9739 88.4584 43.5103 88.6459 45.0833 88.7917C47.2812 87.5677 49.4739 86.4219 51.651 85.2813Z" fill="#DC1941"/>
<path d="M60.5573 80.8854H56.2448C54.177 81.8177 51.9166 82.7709 49.7448 83.7865C51.1927 83.7865 52.6614 83.9531 54.177 83.9948L60.5573 80.8854Z" fill="#DC1941"/>
<path d="M41.75 90.4532L37.6042 89.9115C35.5365 90.948 33.5885 91.9844 31.5781 93.1094C32.9687 93.3959 34.375 93.6459 35.724 93.8959C37.8125 92.6927 39.7813 91.5521 41.75 90.4532Z" fill="#DC1941"/>
<path d="M31.453 96.2604L27.828 95.5781C26.0885 96.5313 24.3697 97.526 22.6301 98.5677L26.401 99.5C28.078 98.3802 29.7551 97.3229 31.453 96.2604Z" fill="#DC1941"/>
<path d="M110.49 62.2656L108.276 63.0938L109.807 62.5365L110.49 62.2656Z" fill="#DC1941"/>
<path d="M17.7447 101.948C16.2916 102.844 14.8437 103.755 13.3958 104.708L16.6458 105.729C18.052 104.708 19.4426 103.651 20.7864 102.76C19.7812 102.51 18.7655 102.24 17.7447 101.948Z" fill="#DC1941"/>
<path d="M105.375 64.1146L104.359 64.4427L105.25 64.1563L105.375 64.1146Z" fill="#DC1941"/>
<path d="M77.578 73.5156L73.5624 74.0104C71.4895 74.7396 69.4218 75.4844 67.4739 76.2969L71.6145 75.9635C73.5833 75.1146 75.5937 74.3021 77.578 73.5156Z" fill="#DC1941"/>
<path d="M95.7655 67.0781L96.8645 66.8125L97.5884 66.6458L97.2759 66.75L97.6926 66.625L99.7603 66.1458L100.135 66.0417C98.4165 66.7083 96.6978 67.3698 94.979 68.1198L98.9947 67.0208C100.385 66.3958 101.792 65.7917 103.141 65.2135H103.364H103.219L103.781 64.9635L104.568 64.776C103.239 65.3594 101.917 65.9375 100.588 66.5625L104.734 65.2552L107.859 63.7396L108.521 63.4896L108.088 63.6146L108.667 63.3438L109.516 63.1146L106.391 64.6927C107.797 64.2188 109.187 63.6979 110.531 63.1771L112.833 61.8906L113.641 61.5781L113.12 61.724L113.745 61.3958L114.614 61.125L112.229 62.5156C113.641 61.9531 115.068 61.3958 116.495 60.7917C117.12 60.3542 117.76 59.9635 118.401 59.5469L118.797 59.3802H118.526L119.13 59.0052L120.141 58.6563C119.5 59.0677 118.859 59.4844 118.239 59.9219C119.687 59.276 121.156 58.6146 122.609 57.8438L124.864 56.1615L125.422 55.9583L126.375 55.4375L124.307 56.974C125.818 56.224 127.307 55.4375 128.802 54.625C129.568 53.9427 130.354 53.276 131.141 52.5521L133.213 51.2656C132.364 52.0104 131.516 52.7604 130.682 53.5469C132.26 52.6979 133.812 51.7865 135.364 50.849C136.38 49.75 137.437 48.776 138.474 47.6354L139.239 47.0729L138.781 47.3229L138.989 47.0938L138.245 47.6146C137.125 48.2083 136.026 48.8281 134.953 49.4792C136.151 48.5469 137.354 47.6563 138.599 46.7812C137.312 47.7344 136.005 48.6302 134.682 49.5208L132.427 50.9948L133.109 50.5781L132.219 51.1406L130.354 52.4063L131.906 51.474L131.036 52.0104C132.094 51.4531 133.109 50.8906 134.224 50.3542L133.583 50.9323L132.448 51.474L132.901 51.099L131.573 51.9063L129.505 52.9479C128.26 53.6927 127 54.3854 125.713 55.0208L128.156 53.901L127.474 54.401L126.417 54.8542L126.979 54.4635L125.422 55.2917L124.203 55.8542C122.958 56.5156 121.698 57.1615 120.411 57.7813L122.255 57.0156L121.635 57.4271L120.661 57.8021L121.156 57.4896L119.875 58.1146L118.901 58.4896C117.656 59.0885 116.396 59.651 115.13 60.1875L116.703 59.6302L116.104 59.9635L115.213 60.2708L115.463 60.1302L114.859 60.3958L113.62 60.8333C112.375 61.3542 111.114 61.849 109.87 62.3073L111.505 61.7865L110.969 62.0573L108.422 62.849L106.724 63.4271L108.109 62.8906H107.88L105.208 63.8229L106.349 63.4271L105.083 63.8646L103.385 64.4635H103.177L102.516 64.6719L104.193 64.0938L102.599 64.6094L98.8488 65.7708L98.104 65.9583L101.088 65.0677L97.3801 66.125L95.6822 66.5833L94.3332 66.9375L94.9999 66.7708L91.828 67.6615C93.2603 67.724 94.5207 67.4115 95.7655 67.0781ZM105.083 64.2813L107.323 63.6354L106.099 64.0729L104.031 64.6094L105.083 64.2813ZM101.13 65.5677H101.255L103.323 65.0469L102.229 65.4219L100.156 65.8958L101.13 65.5677Z" fill="#DC1941"/>
<path d="M93.6093 67.7865C92.3489 68.099 91.0833 68.3907 89.802 68.6563C87.8958 69.2188 85.9895 69.8021 84.0833 70.4219L87.9791 69.6771C89.8437 69.0105 91.7447 68.3907 93.6093 67.7865Z" fill="#DC1941"/>
<path d="M85.7186 70.4636C84.4165 70.7136 83.1301 70.9427 81.828 71.1511C79.7551 71.7917 77.8905 72.4584 75.9218 73.224L79.9009 72.6406C81.8488 71.875 83.7707 71.1511 85.7186 70.4636Z" fill="#DC1941"/>
<path d="M111.359 75.3021C109.292 75.7136 107.219 76.0886 105.146 76.4427C103.76 78.2032 102.411 80.0313 101.005 81.9011L107.63 81.1302C109 79.1407 110.182 77.1875 111.359 75.3021Z" fill="#DC1941"/>
<path d="M93.177 70.0677C94.6041 69.7396 96.0572 69.4063 97.4843 69.0104C99.2447 68.0365 101.026 67.0781 102.807 66.1667C101.417 66.6042 100.031 67 98.6666 67.3906C96.828 68.2656 94.9999 69.1563 93.177 70.0677Z" fill="#DC1941"/>
<path d="M87.2916 71.3334C88.677 71.073 90.0573 70.7813 91.4375 70.4636L96.9687 67.849C95.6198 68.224 94.2552 68.573 92.8229 68.9063C91.0416 69.698 89.1562 70.5052 87.2916 71.3334Z" fill="#DC1941"/>
<path d="M99.2448 68.5313C100.714 68.1615 102.187 67.724 103.677 67.2865C105.354 66.2292 107.031 65.2136 108.729 64.1771C107.323 64.6719 105.911 65.1719 104.589 65.6302C102.745 66.5834 101.005 67.5365 99.2448 68.5313Z" fill="#DC1941"/>
<path d="M81.5155 72.375C82.8801 72.1667 84.2499 71.9167 85.6561 71.6667C87.5624 70.8594 89.4686 70.0469 91.3749 69.2812L87.3749 70.151C85.3905 70.9635 83.4634 71.6042 81.5155 72.375Z" fill="#DC1941"/>
<path d="M95.1665 67.3907C93.302 67.9948 91.4165 68.6563 89.5311 69.3438C90.854 69.0313 92.1822 68.7396 93.4843 68.4115C95.3488 67.6823 97.1718 67 99.0155 66.3334L95.1665 67.3907Z" fill="#DC1941"/>
<path d="M105.479 66.8125C106.99 66.3542 108.521 65.8334 110.036 65.3177C111.609 64.1771 113.203 63.0521 114.797 61.974C113.349 62.5573 111.922 63.1146 110.469 63.6355C108.792 64.5677 107.219 65.6511 105.479 66.8125Z" fill="#DC1941"/>
<path d="M73.2708 75.8177L77.4166 75.3438C79.3593 74.4063 81.3072 73.5156 83.2551 72.6406C81.8697 72.8698 80.4999 73.099 79.1145 73.2865C77.2499 74.0937 75.2603 74.9479 73.2708 75.8177Z" fill="#DC1941"/>
<path d="M102.87 76.8542L97.1301 77.7917C95.5572 79.3906 94.0468 81.0469 92.5311 82.7709C94.604 82.5834 96.677 82.3959 98.7447 82.1719C100.031 80.3438 101.417 78.5781 102.87 76.8542Z" fill="#DC1941"/>
<path d="M116.578 68.0781L111.031 69.6354C109.599 71.1927 108.214 72.7865 106.885 74.4479C108.958 74.0521 110.844 73.6406 112.854 73.1823C114.052 71.4167 115.318 69.7187 116.578 68.0781Z" fill="#DC1941"/>
<path d="M97.0259 84.3698C94.9582 84.5573 92.8853 84.7031 90.8124 84.8281C89.2811 86.6511 87.7707 88.5417 86.2811 90.4948H93.0311C94.2759 88.3334 95.6405 86.3438 97.0259 84.3698Z" fill="#DC1941"/>
<path d="M127.495 56.0781C125.943 56.8906 124.411 57.6354 122.875 58.3438C121.427 59.5469 119.979 60.8125 118.568 62.099C120.203 61.4375 121.859 60.7708 123.5 60.026C124.802 58.6979 126.13 57.3698 127.495 56.0781Z" fill="#DC1941"/>
<path d="M121.964 61.6823C120.266 62.3906 118.589 63.0313 116.911 63.6354C115.464 65.0052 114.052 66.4375 112.667 67.8906L118.073 66.2084C119.354 64.7344 120.641 63.1563 121.964 61.6823Z" fill="#DC1941"/>
<path d="M111.901 64.5886C113.495 64.0313 115.047 63.4688 116.62 62.849C118.094 61.599 119.562 60.375 121.052 59.2136L116.578 61.1459C115.005 62.2656 113.432 63.4063 111.901 64.5886Z" fill="#DC1941"/>
<path d="M85.5311 102.865C83.1093 102.635 80.7499 102.427 78.4478 102.177C77.104 104.255 75.7759 106.578 74.5155 108.859L82.1353 110.021C83.2134 107.552 84.4374 105.146 85.5311 102.865Z" fill="#DC1941"/>
<path d="M74.8645 101.844L68.4478 101.182C66.9113 103.13 65.3801 105.125 63.8905 107.198L70.7447 108.281C72.0103 106.057 73.4582 103.922 74.8645 101.844Z" fill="#DC1941"/>
<path d="M65.2551 100.724L59.2082 100.021C57.4478 101.823 55.7082 103.693 53.9686 105.625L60.4322 106.724C62.0259 104.667 63.7238 102.656 65.2551 100.724Z" fill="#DC1941"/>
<path d="M88.2864 85.0156L82.427 85.3229C80.6874 86.9844 79.0103 88.7083 77.3333 90.474C79.401 90.474 81.4739 90.474 83.5468 90.474C85.1197 88.6042 86.6926 86.776 88.2864 85.0156Z" fill="#DC1941"/>
<path d="M56.5155 99.5417L50.6145 98.7552C48.5415 100.453 46.6353 102.26 44.6874 104.089L50.9009 105.25C52.7655 103.276 54.6301 101.391 56.5155 99.5417Z" fill="#DC1941"/>
<path d="M101.917 92.9011C99.3072 92.9011 96.7812 92.9011 94.3124 92.9011C93.0312 95.1823 91.8072 97.5261 90.6301 99.9584L98.9114 100.453C99.8228 97.9427 100.838 95.349 101.917 92.9011Z" fill="#DC1941"/>
<path d="M91.3958 92.9011H84.4583C82.9427 94.974 81.4739 97.0521 80.026 99.2709L87.4791 99.8125C88.7343 97.4063 90.0416 95.099 91.3958 92.9011Z" fill="#DC1941"/>
<path d="M64.7604 79.6771L69.2135 79.4948C71.2812 78.4532 73.2083 77.4167 75.1979 76.4427C73.75 76.6094 72.3177 76.7344 70.9114 76.8334C68.8593 77.7709 66.8073 78.7032 64.7604 79.6771Z" fill="#DC1941"/>
<path d="M56.0208 84.0573C57.552 84.0573 59.1041 84.1615 60.677 84.1615C62.7239 83 64.7916 81.8594 66.8905 80.7396L62.3958 80.8646C60.2239 81.9011 58.1093 82.9584 56.0208 84.0573Z" fill="#DC1941"/>
<path d="M47.9634 98.4427L42.6197 97.6302C40.5468 99.1667 38.4738 100.724 36.4061 102.365L42.0363 103.505C44.0468 101.76 45.9947 100.021 47.9634 98.4427Z" fill="#DC1941"/>
<path d="M106.495 83.5417L99.6562 84.1615C98.3333 86.2396 97.0468 88.3125 95.7864 90.3906L103.161 90.2031C104.213 87.8959 105.333 85.6771 106.495 83.5417Z" fill="#DC1941"/>
<path d="M29.3228 100.453C30.8123 100.807 32.3436 101.161 33.9217 101.495C35.7603 100.104 37.5832 98.7552 39.4269 97.3438L35.0155 96.5729C33.1092 97.9427 31.2082 99.1667 29.3228 100.453Z" fill="#DC1941"/>
<path d="M37.9583 94.4792L42.9895 95.2656C45.0624 93.8333 47.1353 92.4219 49.203 91.1146L44.401 90.5938C42.2864 91.8229 40.1353 93.1094 37.9583 94.4792Z" fill="#DC1941"/>
<path d="M47.0104 89L51.9375 89.4323C54.0104 88.1042 56.0833 86.8177 58.151 85.5729C56.5573 85.5729 55.0052 85.5729 53.4531 85.3854C51.3385 86.5469 49.1927 87.7552 47.0104 89Z" fill="#DC1941"/>
<path d="M101.521 72.0209C99.8437 72.4167 98.1874 72.7657 96.5312 73.1198C94.8333 74.4271 93.1353 75.7761 91.4583 77.2709C93.1978 77.0209 94.9583 76.7344 96.7603 76.4427C98.3124 74.8646 99.927 73.4115 101.521 72.0209Z" fill="#DC1941"/>
<path d="M94.8958 78.1042L89.4895 78.849C87.7708 80.3229 86.0728 81.8594 84.3958 83.4167L90.1301 83C91.6822 81.3386 93.2812 79.6771 94.8958 78.1042Z" fill="#DC1941"/>
<path d="M87.354 79.099C85.6353 79.3073 83.9165 79.5105 82.2186 79.6771C80.3749 81.0261 78.552 82.4167 76.7499 83.8282L82.1561 83.5417C83.8749 82.0469 85.6145 80.5521 87.354 79.099Z" fill="#DC1941"/>
<path d="M114.922 64.3594C113.307 64.9427 111.693 65.5052 110.099 66C108.5 67.2865 106.948 68.5729 105.417 69.9219L110.531 68.5104C111.964 67.0781 113.432 65.7083 114.922 64.3594Z" fill="#DC1941"/>
<path d="M210.281 27.5834H212.042C212.432 26.9427 212.828 26.2552 213.177 25.5104H211.458C211.088 26.2761 210.776 26.9427 210.281 27.5834Z" fill="#DC1941"/>
<path d="M80.1249 85.4896L74.5989 85.6771C72.7343 87.2136 70.8905 88.7709 69.0676 90.4115L74.9062 90.5365C76.6353 88.7605 78.3749 87.0834 80.1249 85.4896Z" fill="#DC1941"/>
<path d="M108.854 70.2136C107.094 70.6719 105.333 71.1302 103.594 71.5417C102.021 72.974 100.469 74.4479 98.9323 75.9427C100.776 75.6302 102.641 75.2813 104.526 74.9271C105.932 73.2865 107.385 71.75 108.854 70.2136Z" fill="#DC1941"/>
<path d="M77.5573 78.8698C79.1354 78.7032 80.7291 78.5573 82.3645 78.349C84.1875 77.125 86.0312 75.9011 87.875 74.7396C86.3229 75.0105 84.7864 75.2396 83.2552 75.4636C81.3281 76.5677 79.4427 77.7084 77.5573 78.8698Z" fill="#DC1941"/>
<path d="M196.135 51.0156C196.797 50.4948 197.437 49.9792 198.062 49.4375L196.219 49.2917C195.594 49.8334 194.953 50.3542 194.312 50.8698L196.135 51.0156Z" fill="#DC1941"/>
<path d="M94.5416 73.5156L89.7604 74.4271C87.9375 75.6094 86.1562 76.8542 84.3541 78.1406L89.3854 77.4792C91.0833 76.1094 92.7187 74.8021 94.5416 73.5156Z" fill="#DC1941"/>
<path d="M69.4999 84.099C71.1822 84.099 72.9009 84.099 74.6197 83.9532C76.4843 82.5417 78.328 81.1927 80.2082 79.8021C78.552 79.9688 76.9165 80.0938 75.302 80.2188C73.354 81.5052 71.427 82.7917 69.4999 84.099Z" fill="#DC1941"/>
<path d="M61.302 90.0156C63.1041 90.0156 64.927 90.1823 66.7916 90.2448C68.651 88.6667 70.5364 87.1302 72.4426 85.6354H67.203C65.2135 87.0886 63.2499 88.5209 61.302 90.0156Z" fill="#DC1941"/>
<path d="M210.365 22.1459C210.797 21.3386 211.172 20.5261 211.542 19.6771H209.474C209.099 20.5261 208.687 21.3594 208.271 22.1459H210.365Z" fill="#DC1941"/>
<path d="M81.7655 92.776L75.3645 92.6094C73.6665 94.5 71.9895 96.4271 70.3124 98.4427L77.1665 99C78.6561 96.8646 80.2915 94.7865 81.7655 92.776Z" fill="#DC1941"/>
<path d="M53.9686 89.6406L59.1249 89.974C61.1301 88.5886 63.1353 87.2084 65.1509 85.8229H60.203C58.1093 86.9011 56.0207 88.2084 53.9686 89.6406Z" fill="#DC1941"/>
<path d="M62.5833 84.1823H67.4739C69.4426 82.8959 71.4062 81.6302 73.3749 80.4271L68.6718 80.6771C66.6458 81.7969 64.6145 82.9792 62.5833 84.1823Z" fill="#DC1941"/>
<path d="M45.0833 95.6406L50.6145 96.3854C52.6822 94.7448 54.7551 93.1719 56.7239 91.6563L51.4426 91.1979C49.3697 92.6302 47.1562 94.125 45.0833 95.6406Z" fill="#DC1941"/>
<path d="M64.5728 92.1511L58.9791 91.8021C56.9114 93.375 54.9635 94.974 52.9739 96.6563C54.901 96.9063 56.8697 97.1146 58.8749 97.323C60.7395 95.5573 62.6666 93.7917 64.5728 92.1511Z" fill="#DC1941"/>
<path d="M72.8801 92.5261L66.9113 92.2761C65.0311 93.9792 63.1874 95.7656 61.3436 97.5886L67.5572 98.1927C69.3488 96.2709 71.1249 94.3802 72.8801 92.5261Z" fill="#DC1941"/>
<path d="M71.0155 79.3906L75.6561 79.0365C77.5572 77.8959 79.5051 76.7917 81.4113 75.7136L76.979 76.2552C74.9895 77.1875 73.0051 78.3073 71.0155 79.3906Z" fill="#DC1941"/>
<path d="M85.4479 74.198C86.9427 73.974 88.4531 73.7032 89.9843 73.4115C91.7864 72.3125 93.5885 71.2292 95.3906 70.1927C94.0104 70.5521 92.5625 70.8855 91.0416 71.1927C89.1562 72.1667 87.2916 73.1823 85.4479 74.198Z" fill="#DC1941"/>
<path d="M214.213 13.2604H212.146C211.812 14.2396 211.458 15.1719 211.068 16.0834C211.771 16.0834 212.495 16.0834 213.141 15.9584C213.526 15.1146 213.885 14.2188 214.213 13.2604Z" fill="#DC1941"/>
<path d="M79.2551 75.1146C80.7083 74.9479 82.177 74.7188 83.651 74.4896C85.5312 73.474 87.3958 72.4167 89.302 71.5417L85.1614 72.3542C83.1301 73.2448 81.1822 74.1563 79.2551 75.1146Z" fill="#DC1941"/>
<path d="M153.114 50.2084C154.234 49.4167 155.312 48.6094 156.391 47.7761C154.917 48.0677 153.469 48.3386 151.995 48.6719C150.922 49.4792 149.823 50.25 148.703 51.0156L153.114 50.2084Z" fill="#DC1941"/>
<path d="M91.8489 73.0365L96.552 72.0417C98.2499 70.8594 99.9687 69.6771 101.667 68.5312C100.177 68.974 98.6874 69.3698 97.1926 69.7188C95.3905 70.8177 93.6093 71.9167 91.8489 73.0365Z" fill="#DC1941"/>
<path d="M98.4999 71.625C100.135 71.25 101.75 70.8802 103.385 70.4427C104.958 69.1355 106.578 67.8698 108.172 66.6459L103.531 68.0573C101.833 69.198 100.156 70.4011 98.4999 71.625Z" fill="#DC1941"/>
<path d="M188.969 46.7188H191.37C192.114 46.0782 192.838 45.4323 193.443 44.6459H191.036C190.417 45.4323 189.713 46.0573 188.969 46.7188Z" fill="#DC1941"/>
<path d="M159.12 49.2292C160.219 48.4011 161.193 47.5521 162.333 46.6979L158.068 47.4063C157.01 48.2552 155.995 49.0886 154.812 49.875C156.245 49.6459 157.693 49.4167 159.12 49.2292Z" fill="#DC1941"/>
<path d="M151.667 45.5365C153.135 45.1198 154.609 44.7084 156.057 44.3334C157.135 43.4219 158.13 42.4636 159.161 41.4896C157.714 41.8855 156.286 42.3177 154.833 42.7761C153.797 43.7084 152.786 44.6459 151.667 45.5365Z" fill="#DC1941"/>
<path d="M157.672 46.698C158.75 45.8282 159.745 44.9375 160.823 44.0209L156.49 45.0157C155.437 45.9115 154.422 46.7813 153.302 47.6146L157.672 46.698Z" fill="#DC1941"/>
<path d="M160.302 51.8646C161.422 51.099 162.542 50.3125 163.614 49.4792C162.234 49.6198 160.854 49.7865 159.474 49.9792C158.375 50.7656 157.26 51.5573 156.141 52.3021L160.302 51.8646Z" fill="#DC1941"/>
<path d="M169.354 48.9636C168.005 48.9636 166.661 49.1875 165.312 49.2917C164.239 50.1459 163.12 50.9323 162 51.724L166.021 51.4115C167.073 50.6198 168.172 49.7917 169.354 48.9636Z" fill="#DC1941"/>
<path d="M174.49 48.6719L170.844 48.901C169.828 49.6875 168.776 50.4583 167.76 51.224L171.406 51.0156C172.458 50.2083 173.495 49.4792 174.49 48.6719Z" fill="#DC1941"/>
<path d="M181.969 32.6667C181.141 33.7917 180.292 34.8698 179.401 35.9271C180.641 35.7188 181.906 35.5105 183.146 35.3438C184.016 34.2657 184.865 33.2709 185.693 32.0677L181.969 32.6667Z" fill="#DC1941"/>
<path d="M187.062 36.3438L183.646 36.7135C182.859 37.6719 182.01 38.625 181.161 39.5365C182.297 39.3958 183.437 39.2917 184.578 39.1875C185.427 38.25 186.255 37.2969 187.062 36.3438Z" fill="#DC1941"/>
<path d="M156.099 41.5938C157.526 41.1355 158.958 40.7032 160.406 40.2865C161.422 39.2709 162.479 38.2084 163.391 37.1302L159.245 38.5209C158.172 39.5782 157.135 40.599 156.099 41.5938Z" fill="#DC1941"/>
<path d="M173.641 37.0469L177.781 36.2813C178.713 35.1823 179.625 34.0365 180.495 32.8959C179.172 33.1459 177.823 33.4167 176.5 33.7084C175.568 34.849 174.594 35.948 173.641 37.0469Z" fill="#DC1941"/>
<path d="M162.062 39.8281C163.443 39.4427 164.823 39.0677 166.203 38.7083C167.198 37.6719 168.151 36.5938 169.062 35.4688L164.922 36.651C164.052 37.7552 163.141 38.7917 162.062 39.8281Z" fill="#DC1941"/>
<path d="M167.906 38.2917L172.047 37.3802C173 36.2813 173.932 35.1823 174.823 34.0365C173.474 34.349 172.109 34.6823 170.677 35.0365C169.828 36.1563 168.875 37.2344 167.906 38.2917Z" fill="#DC1941"/>
<path d="M179.562 48.5469H176.271C175.338 49.3125 174.385 50.0417 173.391 50.7656H176.687C177.641 50.0625 178.609 49.2917 179.562 48.5469Z" fill="#DC1941"/>
<path d="M116.891 82.4584L109.375 83.2709C108.297 85.3438 107.302 87.7136 106.286 90.0782L114.573 89.7657C115.234 87.2552 116.021 84.8073 116.891 82.4584Z" fill="#DC1941"/>
<path d="M160.385 37.2344C161.771 36.7136 163.161 36.2605 164.526 35.8021C165.5 34.6615 166.453 33.5 167.365 32.3177L163.224 33.8125C162.375 34.974 161.401 36.1146 160.385 37.2344Z" fill="#DC1941"/>
<path d="M150.031 43.6875C151.479 43.151 152.948 42.6302 154.401 42.1563C155.479 41.1563 156.469 40.0781 157.526 39.125C156.099 39.6198 154.667 40.1823 153.239 40.7448C152.203 41.7396 151.125 42.7344 150.031 43.6875Z" fill="#DC1941"/>
<path d="M151.583 48.0052C152.661 47.1563 153.656 46.3073 154.792 45.4323L150.359 46.5938C149.286 47.4688 148.292 48.2969 147.089 49.0886L151.583 48.0052Z" fill="#DC1941"/>
<path d="M145.432 47.4688C146.922 46.9688 148.432 46.5105 149.927 46.0365C151.026 45.1407 151.995 44.25 153.135 43.3177C151.667 43.7917 150.177 44.2917 148.724 44.8125C147.646 45.7032 146.573 46.5938 145.432 47.4688Z" fill="#DC1941"/>
<path d="M183.974 44.6667L180.766 44.8542C179.896 45.6615 179.005 46.4271 178.094 47.1979L181.281 47.0729C182.213 46.2865 183.104 45.4948 183.974 44.6667Z" fill="#DC1941"/>
<path d="M166.182 35.2813L170.328 34.0781C171.281 32.9167 172.172 31.7344 173.062 30.5104C171.714 30.9063 170.37 31.3386 168.917 31.7761C168.068 32.9792 167.135 34.1615 166.182 35.2813Z" fill="#DC1941"/>
<path d="M188.141 40.5156C187.104 40.5156 186.068 40.6406 185.031 40.7448C184.224 41.5729 183.417 42.3802 182.568 43.1927L185.693 43.0052C186.526 42.1927 187.333 41.3646 188.141 40.5156Z" fill="#DC1941"/>
<path d="M185.219 34.8906L188.469 34.4948C189.219 33.5417 189.963 32.5417 190.667 31.5469C189.609 31.6719 188.594 31.8177 187.453 31.9844C186.729 32.9583 185.922 33.9531 185.219 34.8906Z" fill="#DC1941"/>
<path d="M177.474 32.2761L181.448 31.4427C182.338 30.2396 183.187 29.0156 183.995 27.7292C182.672 28 181.385 28.2917 180.083 28.599C179.255 29.875 178.385 31.099 177.474 32.2761Z" fill="#DC1941"/>
<path d="M171.88 33.6042C173.229 33.2292 174.594 32.8959 176.021 32.5834C176.932 31.3802 177.802 30.1771 178.651 28.9323C177.328 29.2656 175.979 29.6198 174.677 29.9896C173.703 31.2969 172.812 32.4844 171.88 33.6042Z" fill="#DC1941"/>
<path d="M185.552 27.5417C184.802 28.724 184.016 29.8646 183.229 30.9896L186.833 30.3646C187.62 29.2448 188.365 28.0834 189.115 26.8802C187.995 27.0834 186.729 27.375 185.552 27.5417Z" fill="#DC1941"/>
<path d="M154.526 39.474C155.932 38.8959 157.339 38.3334 158.667 37.8177C159.703 36.7136 160.74 35.5938 161.672 34.4323C160.281 34.9948 158.917 35.5729 157.526 36.1979C156.635 37.3177 155.578 38.4167 154.526 39.474Z" fill="#DC1941"/>
<path d="M206.823 19.8021L204.458 20.0105C204.047 20.9427 203.588 21.875 203.094 22.7709C203.88 22.7709 204.687 22.6459 205.474 22.5834C205.932 21.6667 206.406 20.7344 206.823 19.8021Z" fill="#DC1941"/>
<path d="M196.052 44.9375C195.432 45.5365 194.807 46.1198 194.167 46.6771H196.24C196.88 46.1198 197.5 45.5156 198.12 44.9375H196.052Z" fill="#DC1941"/>
<path d="M188.161 42.7552H190.792C191.536 42.0313 192.26 41.2813 192.859 40.5365H190.208C189.609 41.3021 188.885 42.0313 188.161 42.7552Z" fill="#DC1941"/>
<path d="M195.594 31.1927L192.818 31.4636C192.177 32.3594 191.557 33.2292 190.875 34.099C191.786 34.099 192.739 33.9323 193.667 33.8542C194.333 32.9792 194.974 32.1094 195.594 31.1927Z" fill="#DC1941"/>
<path d="M177.844 41.2396L174.057 41.7396C173.104 42.6719 172.151 43.5834 171.156 44.4792C172.437 44.3125 173.724 44.1459 174.969 44.0417C175.958 43.1302 176.932 42.1927 177.844 41.2396Z" fill="#DC1941"/>
<path d="M165.214 45.3698L169.354 44.75C170.411 43.8333 171.427 42.8802 172.396 41.9062L168.255 42.5677C167.281 43.526 166.307 44.4583 165.214 45.3698Z" fill="#DC1941"/>
<path d="M129.422 58.5104C127.62 59.2969 125.838 60.0677 124.057 60.7917C122.802 62.2604 121.557 63.7969 120.328 65.4011C122.234 64.7761 124.161 64.0938 126.13 63.3229C127.182 61.7865 128.281 60.1459 129.422 58.5104Z" fill="#DC1941"/>
<path d="M124.885 65.5052C122.812 66.1667 120.87 66.7709 118.901 67.3907C117.698 69.073 116.495 70.8177 115.339 72.6198C117.406 72.1459 119.625 71.625 121.818 71.1094C122.792 69.1771 123.786 67.3073 124.885 65.5052Z" fill="#DC1941"/>
<path d="M199.901 28.3334L202.266 28.1667C202.781 27.3542 203.302 26.5052 203.776 25.6511L201.437 25.8177C200.937 26.6719 200.422 27.5209 199.901 28.3334Z" fill="#DC1941"/>
<path d="M181.885 36.8594C180.641 37.026 179.38 37.1927 178.135 37.401C177.245 38.4167 176.333 39.474 175.401 40.3698L179.193 39.8698C180.125 38.8958 181.016 37.8802 181.885 36.8594Z" fill="#DC1941"/>
<path d="M120.682 73.4323L113.99 74.8021C112.833 76.7396 111.714 78.7292 110.635 80.7813C112.995 80.4896 115.422 80.1563 117.906 79.8021C118.776 77.625 119.646 75.4844 120.682 73.4323Z" fill="#DC1941"/>
<path d="M134.146 52.4896L129.318 55.125C127.937 56.4115 126.651 57.7605 125.464 59.1719C127.182 58.4063 128.901 57.6146 130.646 56.7865C131.865 55.3125 133.026 53.8802 134.146 52.4896Z" fill="#DC1941"/>
<path d="M140.604 52.7396C141.745 52.0104 142.865 51.2656 143.984 50.5156L140.792 51.3698L141.167 50.724L145.307 49.5625C146.427 48.7552 147.505 47.9427 148.599 47.0938L144.042 48.4636C143.151 49.1459 142.24 49.7917 141.312 50.5365L142.427 48.6094L143.63 48.1511C144.75 47.3229 145.865 46.4479 146.964 45.5573L143.255 46.9271L142.49 48.3802C141.828 48.6927 137.75 50.5573 136.276 51.4531C135.135 52.8854 134.021 54.3386 132.964 55.8542C134.328 55.1875 137.625 53.7761 139.177 53.1979L140.604 52.7396Z" fill="#DC1941"/>
<path d="M186.875 38.8125L189.818 38.6042C190.542 37.7761 191.286 36.9219 191.891 36.0521L188.969 36.3021C188.344 37.1511 187.62 37.9844 186.875 38.8125Z" fill="#DC1941"/>
<path d="M164.943 48.4636C166.042 47.6146 167.016 46.7396 168.13 45.8698C166.745 46.0365 165.375 46.2448 163.99 46.4479C162.911 47.3229 161.917 48.1719 160.76 48.9844L164.943 48.4636Z" fill="#DC1941"/>
<path d="M173.641 45.2656C172.359 45.3906 171.031 45.5365 169.745 45.7031C168.734 46.5729 167.677 47.4063 166.661 48.2552L170.557 47.8594C171.609 47.0104 172.625 46.1615 173.641 45.2656Z" fill="#DC1941"/>
<path d="M178.88 44.8959L175.338 45.1823C174.406 46.0157 173.453 46.823 172.458 47.6355L176.021 47.3855C177.005 46.5834 177.958 45.75 178.88 44.8959Z" fill="#DC1941"/>
<path d="M163.615 45.6198C164.672 44.7292 165.687 43.7917 166.703 42.8594L162.562 43.6667C161.547 44.6042 160.49 45.4948 159.432 46.3646L163.615 45.6198Z" fill="#DC1941"/>
<path d="M183.104 40.7865C181.948 40.7865 180.786 40.9896 179.625 41.1146C178.734 42.0313 177.823 42.9011 176.911 43.75L180.411 43.4636C181.323 42.5886 182.234 41.698 183.104 40.7865Z" fill="#DC1941"/>
<path d="M157.776 43.9792L162.062 42.9636C163.099 42.0105 164.115 41.0313 165.109 40.0365C163.677 40.3698 162.25 40.724 160.839 41.0938C159.849 42.0105 158.812 42.9636 157.776 43.9792Z" fill="#DC1941"/>
<path d="M163.719 42.5261L167.864 41.6771C168.875 40.7032 169.932 39.599 170.823 38.6459C169.437 38.9375 168.047 39.2292 166.682 39.5573C165.75 40.5782 164.755 41.573 163.719 42.5261Z" fill="#DC1941"/>
<path d="M169.542 41.3854L173.682 40.7031C174.677 39.7031 175.755 38.625 176.583 37.5886L172.437 38.3334C171.526 39.375 170.557 40.3906 169.542 41.3854Z" fill="#DC1941"/>
<path d="M326.76 125.505C324.526 124.823 323.552 124.406 323.552 123.12C323.552 121.833 325.062 121.563 326.37 121.563C327.5 121.563 328.609 121.87 329.578 122.453C329.776 122.583 330.016 122.62 330.245 122.557C330.469 122.495 330.656 122.333 330.76 122.125L331.135 121.375C331.318 120.995 331.193 120.531 330.844 120.297C329.505 119.484 327.974 119.047 326.411 119.031C323.182 119.031 321.005 120.693 321.005 123.182C321.005 126.401 323.719 127.208 325.891 127.875C328.068 128.536 329.167 128.995 329.167 130.365C329.167 131.734 327.552 132.208 326.057 132.208C324.583 132.146 323.182 131.557 322.104 130.552C321.911 130.375 321.656 130.286 321.401 130.323C321.146 130.344 320.922 130.495 320.797 130.714L320.365 131.443C320.156 131.766 320.208 132.193 320.49 132.458C321.99 133.88 323.969 134.688 326.036 134.724C329.411 134.724 331.713 132.958 331.713 130.344C331.713 127.021 328.979 126.193 326.76 125.505Z" fill="black"/>
<path d="M341.698 119.552C341.562 119.255 341.271 119.068 340.948 119.073H340.057C339.74 119.068 339.448 119.255 339.312 119.552L332.974 133.536C332.854 133.786 332.854 134.078 332.974 134.328C333.13 134.557 333.385 134.698 333.661 134.703H334.594C334.917 134.703 335.213 134.505 335.338 134.203L336.911 130.714H344.016L345.609 134.224C345.745 134.516 346.036 134.703 346.354 134.703H347.266C347.547 134.698 347.812 134.557 347.974 134.328C348.094 134.078 348.094 133.786 347.974 133.536L341.698 119.552ZM338.073 128.224L340.495 122.849L342.937 128.224H338.073Z" fill="black"/>
<path d="M352.219 119.073H351.391C350.932 119.073 350.562 119.443 350.562 119.901V133.87C350.562 134.328 350.932 134.703 351.391 134.703H352.219C352.677 134.703 353.047 134.328 353.047 133.87V119.901C353.047 119.443 352.677 119.073 352.219 119.073Z" fill="black"/>
<path d="M369.615 119.073H368.807C368.349 119.073 367.979 119.443 367.979 119.901V130.073L360.151 119.406C359.995 119.198 359.75 119.073 359.49 119.073H358.516C358.057 119.073 357.688 119.443 357.688 119.901V133.87C357.688 134.328 358.057 134.703 358.516 134.703H359.344C359.802 134.703 360.172 134.328 360.172 133.87V123.703L367.979 134.37C368.135 134.578 368.38 134.703 368.641 134.703H369.615C370.073 134.703 370.443 134.328 370.443 133.87V119.901C370.443 119.443 370.073 119.073 369.615 119.073Z" fill="black"/>
<path d="M384.01 119.073H373.656C373.437 119.073 373.229 119.161 373.078 119.318C372.922 119.474 372.838 119.682 372.849 119.901V120.776C372.838 120.995 372.922 121.203 373.078 121.359C373.229 121.516 373.437 121.604 373.656 121.604H377.547V133.932C377.547 134.391 377.917 134.766 378.375 134.766H379.203C379.661 134.766 380.031 134.391 380.031 133.932V121.604H383.927C384.146 121.604 384.354 121.516 384.505 121.359C384.656 121.203 384.74 120.995 384.734 120.776V119.964C384.74 119.745 384.656 119.536 384.505 119.38C384.354 119.224 384.146 119.135 383.927 119.135" fill="black"/>
<path d="M390.141 126.688H385.688C385.229 126.688 384.859 127.063 384.859 127.521V128.203C384.859 128.422 384.948 128.63 385.104 128.786C385.26 128.937 385.469 129.021 385.688 129.016H390.141C390.354 129.021 390.568 128.937 390.719 128.781C390.87 128.63 390.953 128.422 390.948 128.203V127.521C390.953 127.302 390.87 127.089 390.719 126.932C390.568 126.776 390.359 126.688 390.141 126.688Z" fill="black"/>
<path d="M407.536 126.193H404.286C404.068 126.193 403.859 126.281 403.708 126.438C403.557 126.594 403.474 126.802 403.479 127.021V127.854C403.474 128.068 403.557 128.281 403.708 128.438C403.859 128.594 404.068 128.682 404.286 128.682H405.964V131.151C404.984 131.828 403.818 132.188 402.63 132.188C400.63 132.313 398.729 131.318 397.687 129.599C396.651 127.88 396.651 125.729 397.687 124.01C398.729 122.292 400.63 121.292 402.63 121.417C404.052 121.422 405.427 121.938 406.505 122.87C406.667 123.021 406.885 123.099 407.104 123.078C407.271 123.047 407.422 122.969 407.536 122.849L408.036 122.25C408.172 122.083 408.24 121.87 408.219 121.656C408.203 121.443 408.099 121.245 407.932 121.104C406.427 119.776 404.49 119.036 402.484 119.031C399.594 118.88 396.859 120.344 395.37 122.828C393.88 125.313 393.88 128.417 395.37 130.906C396.859 133.391 399.594 134.849 402.484 134.703C404.5 134.677 406.443 133.943 407.974 132.625C408.156 132.464 408.266 132.229 408.266 131.984V127C408.266 126.542 407.891 126.172 407.437 126.172" fill="black"/>
<path d="M419.156 119.052C414.859 119.167 411.458 122.729 411.536 127.036C411.615 131.344 415.146 134.786 419.448 134.74C423.745 134.693 427.203 131.182 427.193 126.875C427.125 122.495 423.531 118.995 419.156 119.052ZM419.156 132.25C416.219 132.161 413.901 129.714 413.958 126.771C414.021 123.823 416.438 121.474 419.375 121.505C422.318 121.531 424.688 123.927 424.688 126.875C424.63 129.885 422.161 132.286 419.156 132.25Z" fill="black"/>
<path d="M440.406 126.443C441.281 125.656 441.755 124.521 441.713 123.349C441.713 120.714 439.641 119.073 436.536 119.073H430.818C430.599 119.073 430.391 119.161 430.24 119.318C430.088 119.474 430.005 119.682 430.01 119.901V133.87C430.005 134.089 430.088 134.302 430.24 134.458C430.391 134.615 430.599 134.703 430.818 134.703H436.536C440.182 134.703 442.354 132.979 442.354 130.115C442.385 128.604 441.588 127.198 440.281 126.443M436.391 125.401H432.37V121.542H436.536C437.755 121.542 439.229 121.875 439.229 123.453C439.229 125.031 438.338 125.401 436.536 125.401M432.516 127.875H436.536C437.797 127.875 439.932 128.161 439.932 129.948C439.932 131.734 438.088 132.167 436.536 132.167H432.516V127.875Z" fill="black"/>
<path d="M452.526 119.552C452.385 119.266 452.099 119.078 451.781 119.073H450.87C450.547 119.073 450.255 119.26 450.12 119.552L443.807 133.536C443.672 133.786 443.672 134.083 443.807 134.328C443.964 134.557 444.229 134.698 444.51 134.703H445.422C445.75 134.703 446.052 134.505 446.187 134.203L447.76 130.714H454.844L456.437 134.224C456.578 134.51 456.865 134.693 457.182 134.703H458.115C458.391 134.698 458.651 134.557 458.802 134.328C458.943 134.083 458.943 133.781 458.802 133.536L452.526 119.552ZM448.964 128.224L451.385 122.849L453.828 128.224H448.964Z" fill="black"/>
<path d="M463.047 119.073H462.198C461.74 119.073 461.37 119.443 461.37 119.901V133.87C461.37 134.328 461.74 134.703 462.198 134.703H463.047C463.505 134.703 463.875 134.328 463.875 133.87V119.901C463.875 119.443 463.505 119.073 463.047 119.073Z" fill="black"/>
<path d="M480.443 119.073H479.615C479.156 119.073 478.786 119.443 478.786 119.901V130.073L470.958 119.406C470.802 119.193 470.557 119.068 470.297 119.073H469.323C468.865 119.073 468.495 119.443 468.495 119.901V133.87C468.495 134.328 468.865 134.703 469.323 134.703H470.172C470.391 134.703 470.599 134.615 470.75 134.458C470.901 134.302 470.984 134.089 470.979 133.87V123.703L478.786 134.37C478.948 134.573 479.193 134.693 479.448 134.703H480.443C480.661 134.703 480.87 134.615 481.021 134.458C481.177 134.302 481.255 134.089 481.25 133.87V119.901C481.255 119.682 481.177 119.474 481.021 119.318C480.87 119.162 480.661 119.073 480.443 119.073Z" fill="black"/>
</svg>
