<svg width="450" height="139" viewBox="0 0 450 139" fill="none" xmlns="http://www.w3.org/2000/svg">
<mask id="mask0_183_784" style="mask-type:luminance" maskUnits="userSpaceOnUse" x="0" y="0" width="450" height="139">
<path d="M0 -2.96422e-06H450V138.412H0V-2.96422e-06Z" fill="white"/>
</mask>
<g mask="url(#mask0_183_784)">
<path d="M430.839 32.0042L429.771 50.2431C428.946 49.8832 428.031 49.6226 427.037 49.4427C426.024 49.2628 424.839 49.1821 423.502 49.1821C418.685 49.1821 415.055 50.8036 412.608 54.0438C410.16 57.2818 408.936 62.0433 408.936 68.3415V84.9318C408.936 90.28 404.803 94.6189 399.697 94.6409H390.433V32.9438H406.76V44.7236C408.803 40.1637 411.307 36.7844 414.25 34.5844C417.215 32.4035 420.711 31.3032 424.743 31.3032C425.777 31.3032 427.686 31.5242 430.438 31.9423L430.839 32.0042Z" fill="#214972"/>
<path d="M261.932 38.3518H250.48C245.928 38.3518 242.239 42.0416 242.239 46.5936V94.6396H253.314C258.074 94.6396 261.932 90.7816 261.932 86.0214V38.3518Z" fill="#214972"/>
<path d="M197.229 4.77573H240.355V10.5823C240.355 16.1109 235.873 20.5927 230.344 20.5927H209.28V38.3516H233.873V44.4682V44.4628C233.873 49.8248 229.72 54.1719 224.595 54.1719H209.28V84.9781C209.28 90.3143 204.954 94.6411 199.617 94.6411H187.949V14.4832C187.949 9.12123 192.104 4.77573 197.229 4.77573Z" fill="#214972"/>
<path d="M368.257 55.8625C367.856 51.7231 366.575 48.4622 364.453 46.0815C362.332 43.7228 359.619 42.543 356.331 42.543C353.081 42.543 350.427 43.7228 348.325 46.0815C346.241 48.4622 344.959 51.7231 344.521 55.8625H368.257ZM301.644 46.7638C297.652 46.7638 294.477 48.2441 292.126 51.2219C289.777 54.1836 288.591 58.2212 288.591 63.3018C288.591 68.4826 289.721 72.5617 291.955 75.4798C294.192 78.4211 297.269 79.8801 301.185 79.8801C304.893 79.8801 307.838 78.4402 310.034 75.5824C312.232 72.7009 313.341 68.8616 313.341 64.0631C313.341 58.9015 312.251 54.7226 310.073 51.5423C307.876 48.3629 305.067 46.7638 301.644 46.7638ZM268.371 4.77539H279.314C284.439 4.77539 288.591 8.99289 288.591 14.3548V41.4842C290.941 38.0633 293.714 35.5051 296.907 33.825C300.095 32.1449 303.785 31.3034 307.97 31.3034C315.883 31.3034 322.19 34.1645 326.91 39.8826C327.855 41.0279 328.703 42.2538 329.459 43.5545C330.613 41.5694 332.003 39.7525 333.628 38.1028C339.208 32.4449 346.737 29.6042 356.218 29.6042C365.773 29.6042 373.149 32.5239 378.346 38.343C382.63 43.1564 385.148 49.6524 385.892 57.8306C386.048 59.5414 386.126 61.3258 386.126 63.1838V68.3417H344.75C345.151 72.3614 346.814 75.4606 349.719 77.6419C352.644 79.8203 356.561 80.9227 361.491 80.9227C364.436 80.9227 367.55 80.5009 370.837 79.6399C371.383 79.4974 371.932 79.3432 372.482 79.1774C376.708 77.9045 380.965 81.0653 380.965 85.4781V90.8799C377.678 92.142 374.257 93.0816 370.685 93.6999C367.13 94.3203 363.402 94.6412 359.522 94.6412C348.763 94.6412 340.372 91.6811 334.334 85.7416C332.816 84.253 331.489 82.6191 330.352 80.8417C329.348 82.9137 328.138 84.829 326.72 86.5806C321.865 92.5783 315.539 94.6412 307.741 94.6412C299.335 94.6412 290.696 90.8039 286.413 82.2816V86.1679C286.413 90.8475 282.619 94.6412 277.939 94.6412H268.371V4.77539Z" fill="#214972"/>
<path d="M69.0119 11.3902V4.77621H27.6007C22.4748 4.77621 18.32 9.12129 18.32 14.4832V94.6407H58.6234C64.361 94.6407 69.0119 89.9898 69.0119 84.2526V78.8242H37.9369V54.172H53.2514C58.3769 54.172 62.5288 49.8252 62.5288 44.4633V38.3521H37.9369V20.5928H59.809C64.8917 20.5928 69.0119 16.4725 69.0119 11.3902Z" fill="#009D00"/>
<path d="M115.384 38.8112C115.077 41.5277 112.501 43.4314 109.831 42.8426C108.126 42.4661 106.179 42.2454 103.817 42.2454C93.8564 42.2454 87.4963 50.1655 87.4963 61.8062C87.4963 73.2082 92.8965 81.9678 104.176 81.9678C106.471 81.9678 108.887 81.5427 111.073 80.9671C113.9 80.2225 116.706 82.2084 116.864 85.1277L116.778 92.5537C112.248 93.8889 107.552 94.4479 101.177 94.4479C80.8951 94.4479 70.6953 80.6472 70.6953 61.8062C70.6953 43.9259 81.2554 29.7641 100.577 29.7641C107.057 29.7641 111.737 30.4851 116.178 31.8053L115.384 38.8112Z" fill="#009D00"/>
<path d="M149.279 81.9682C161.64 81.9682 164.88 70.9276 164.88 60.6072C164.88 51.1258 159.839 42.2449 149.279 42.2449C138.839 42.2449 133.798 51.3664 133.798 60.6072C133.798 70.8079 137.038 81.9682 149.279 81.9682ZM149.279 29.764C167.641 29.764 181.681 42.1256 181.681 62.5275C181.681 80.2868 169.8 94.4474 149.279 94.4474C128.879 94.4474 116.998 80.2868 116.998 62.5275C116.998 42.1256 131.038 29.764 149.279 29.764Z" fill="#009D00"/>
<path d="M240.737 21.6901C240.737 15.4227 245.817 10.3425 252.085 10.3425C258.352 10.3425 263.433 15.4227 263.433 21.6901C263.433 27.958 258.352 33.0382 252.085 33.0382C245.817 33.0382 240.737 27.958 240.737 21.6901Z" fill="#214972"/>
<path d="M18.2638 133.066H21.2546V118.154H18.2638V133.066ZM32.4277 133.066H35.2905V121.914H35.3329L41.0372 133.066H44.6908V118.154H41.8276V129.306H41.7848L36.1025 118.154H32.4277V133.066ZM55.3931 125.567C55.3931 130.139 57.9143 133.322 62.6995 133.322C67.4215 133.322 70.0058 130.075 70.0058 125.567C70.0058 121.06 67.3787 117.897 62.6995 117.897C57.9567 117.897 55.3931 120.995 55.3931 125.567ZM58.5127 125.567C58.5127 122.94 59.7303 120.248 62.6995 120.248C65.6695 120.248 66.8871 122.94 66.8871 125.567C66.8871 128.259 65.7542 130.972 62.6995 130.972C59.6447 130.972 58.5127 128.259 58.5127 125.567ZM84.4693 133.066H88.1441L93.1645 118.154H90.1949L86.4133 129.861H86.3705L82.547 118.154H79.3422L84.4693 133.066ZM109.722 127.297H105.364L107.521 121.145H107.564L109.722 127.297ZM100.108 133.066H103.206L104.509 129.648H110.555L111.837 133.066H115.148L109.294 118.154H105.919L100.108 133.066ZM125.188 133.066H129.269C133.841 133.066 137.879 131.528 137.879 125.61C137.879 119.692 133.841 118.154 129.269 118.154H125.188V133.066ZM128.179 120.504H129.845C132.345 120.504 134.76 122.362 134.76 125.61C134.76 128.857 132.345 130.716 129.845 130.716H128.179V120.504ZM148.005 125.567C148.005 130.139 150.526 133.322 155.311 133.322C160.032 133.322 162.618 130.075 162.618 125.567C162.618 121.06 159.99 117.897 155.311 117.897C150.568 117.897 148.005 120.995 148.005 125.567ZM151.124 125.567C151.124 122.94 152.341 120.248 155.311 120.248C158.28 120.248 159.498 122.94 159.498 125.567C159.498 128.259 158.366 130.972 155.311 130.972C152.256 130.972 151.124 128.259 151.124 125.567ZM176.205 120.504H177.187C178.683 120.504 180.35 120.654 180.35 122.448C180.35 124.306 178.661 124.52 177.187 124.52H176.205V120.504ZM173.214 133.066H176.205V126.87H177.166C178.427 126.87 178.811 127.297 179.239 128.408L181.033 133.066H184.366L181.973 127.234C181.673 126.571 181.204 125.76 180.392 125.695V125.653C182.293 125.396 183.469 123.944 183.469 122.192C183.469 118.047 179.644 118.154 176.439 118.154H173.214V133.066ZM202.696 126.144H197.077V128.494H202.696V126.144ZM224.999 118.431C223.91 118.068 222.713 117.897 221.431 117.897C218.804 117.897 216.219 119.115 216.219 122.448C216.219 127.383 222.756 126.208 222.756 129.049C222.756 130.395 221.239 130.972 220.107 130.972C218.932 130.972 217.757 130.609 216.731 130.054L216.454 132.745C217.928 133.108 218.654 133.322 220.278 133.322C223.29 133.322 225.875 132.083 225.875 128.815C225.875 123.815 219.338 124.905 219.338 122.32C219.338 120.696 220.662 120.248 221.688 120.248C222.735 120.248 223.781 120.483 224.722 120.888L224.999 118.431ZM235.745 127.682C235.745 131.677 238.01 133.322 241.834 133.322C245.658 133.322 247.922 131.677 247.922 127.682V118.154H244.931V126.763C244.931 129.306 244.12 130.972 241.834 130.972C239.548 130.972 238.736 129.306 238.736 126.763V118.154H235.745V127.682ZM266.829 118.431C265.739 118.068 264.543 117.897 263.261 117.897C260.634 117.897 258.048 119.115 258.048 122.448C258.048 127.383 264.586 126.208 264.586 129.049C264.586 130.395 263.068 130.972 261.937 130.972C260.762 130.972 259.587 130.609 258.561 130.054L258.284 132.745C259.758 133.108 260.484 133.322 262.107 133.322C265.12 133.322 267.705 132.083 267.705 128.815C267.705 123.815 261.168 124.905 261.168 122.32C261.168 120.696 262.493 120.248 263.518 120.248C264.564 120.248 265.611 120.483 266.552 120.888L266.829 118.431ZM280.395 133.066H283.386V120.504H287.659V118.154H276.122V120.504H280.395V133.066ZM296.823 133.066H305.668V130.716H299.814V126.529H305.134V124.179H299.814V120.504H305.625V118.154H296.823V133.066ZM315.816 133.066H318.679V121.914H318.721L324.426 133.066H328.079V118.154H325.216V129.306H325.173L319.491 118.154H315.816V133.066ZM341.367 133.066H344.358V120.504H348.631V118.154H337.094V120.504H341.367V133.066ZM362.025 117.192H363.799L366.726 114.074H363.799L362.025 117.192ZM365.871 127.297H361.513L363.671 121.145H363.713L365.871 127.297ZM356.257 133.066H359.355L360.658 129.648H366.704L367.986 133.066H371.297L365.444 118.154H362.069L356.257 133.066ZM384.094 133.066H387.768L392.788 118.154H389.82L386.038 129.861H385.995L382.171 118.154H378.967L384.094 133.066ZM401.996 133.066H410.841V130.716H404.987V126.529H410.307V124.179H404.987V120.504H410.798V118.154H401.996V133.066ZM421.139 133.066H429.919V130.716H424.129V118.154H421.139V133.066Z" fill="#2B2B2A"/>
</g>
</svg>
