<svg width="450" height="104" viewBox="0 0 450 104" fill="none" xmlns="http://www.w3.org/2000/svg">
<path d="M207.439 17.5775C193.445 17.5775 181.372 28.5634 181.372 43.3944C181.372 57.9507 192.622 69.2113 207.439 69.2113C222.256 69.2113 233.506 57.9507 233.506 43.3944C233.506 28.5634 221.433 17.5775 207.439 17.5775ZM207.439 58.7746C199.207 58.7746 192.348 51.9084 192.348 43.669C192.348 34.6056 199.482 28.5634 207.439 28.5634C215.396 28.5634 222.53 34.8803 222.53 43.669C222.53 51.9084 215.671 58.7746 207.439 58.7746Z" fill="#FFCC00"/>
<path d="M105.915 17.5775C90.8231 17.5775 79.8475 28.838 79.8475 43.3944C79.8475 59.5986 93.0183 69.2113 108.384 69.2113C118.262 69.2113 124.299 66.1901 127.866 63.4437C129.238 62.3451 129.512 60.4225 128.14 59.0493L124.573 56.0282C123.476 55.2042 122.378 54.9296 121.006 55.7535C120.732 56.0282 115.244 59.5986 107.835 59.5986C98.2317 59.5986 92.7439 53.831 91.3719 48.6127H128.415C129.787 48.6127 130.884 47.5141 131.159 46.1408C131.159 45.0422 131.159 44.493 131.159 43.3944C131.433 28.5634 119.909 17.5775 105.915 17.5775ZM105.915 27.4648C113.872 27.4648 118.537 32.9577 119.909 39.2746H91.6463C93.0183 32.4084 97.9573 27.4648 105.915 27.4648Z" fill="#FFCC00"/>
<path d="M294.97 93.6549C292.774 92.831 291.951 92.5563 291.951 91.1831C291.951 90.0845 293.323 89.8098 294.695 89.8098C295.793 89.8098 297.165 90.0845 297.713 90.9084C297.988 90.9084 297.988 90.9084 298.537 90.9084C298.811 90.9084 298.811 90.6338 299.36 90.6338L299.634 89.8098C299.909 89.5352 299.634 88.9859 299.36 88.7113C298.262 87.8873 296.616 87.338 294.97 87.338C291.402 87.338 289.482 88.9859 289.482 91.4577C289.482 94.4789 292.226 95.5774 294.421 96.4014C296.89 97.2253 297.988 97.5 297.988 98.8732C297.988 100.246 296.341 100.521 294.97 100.521C293.598 100.521 291.951 99.6972 290.854 98.8732C290.579 98.5986 290.579 98.5986 290.03 98.5986C289.482 98.5986 289.756 98.8732 289.207 98.8732L288.933 99.6972C288.659 99.9718 288.933 100.521 288.933 100.796C290.305 102.169 292.5 103.268 294.421 103.268C297.988 103.268 300.183 101.62 300.183 98.8732C300.183 95.0282 297.439 94.2042 294.97 93.6549Z" fill="black"/>
<path d="M310.061 87.6127C310.061 87.338 309.787 87.338 309.238 87.338H308.14C307.866 87.338 307.317 87.6127 307.317 87.6127L301.006 101.62C301.006 101.894 301.006 102.444 301.006 102.444C301.006 102.718 301.28 102.718 301.829 102.718H302.927C303.201 102.718 303.75 102.444 303.75 102.444L305.396 98.8732H312.53L314.177 102.444C314.177 102.718 314.451 102.718 315 102.718H316.098C316.372 102.718 316.921 102.718 316.921 102.444C316.921 102.169 316.921 101.62 316.921 101.62L310.061 87.6127ZM306.768 96.4014L309.238 90.9084L311.707 96.4014H306.768Z" fill="black"/>
<path d="M320.762 87.0634H319.939C319.665 87.0634 319.116 87.338 319.116 87.8873V101.894C319.116 102.169 319.39 102.718 319.939 102.718H320.762C321.037 102.718 321.585 102.444 321.585 101.894V87.8873C321.585 87.338 321.311 87.0634 320.762 87.0634Z" fill="black"/>
<path d="M338.049 87.0634H337.226C336.951 87.0634 336.402 87.338 336.402 87.8873V98.3239L328.445 87.6127C328.445 87.338 328.171 87.338 327.622 87.338H326.524C326.25 87.338 325.701 87.6127 325.701 88.162V101.894C325.701 102.169 325.976 102.718 326.524 102.718H327.348C327.622 102.718 328.171 102.444 328.171 101.894V91.4577L336.128 102.169C336.128 102.444 336.402 102.444 336.951 102.444H338.049C338.323 102.444 338.872 102.169 338.872 101.62V87.6127C339.146 87.338 338.598 87.0634 338.049 87.0634Z" fill="black"/>
<path d="M352.317 87.0634H341.89C341.616 87.0634 341.067 87.338 341.067 87.8873V88.7112C341.067 88.9859 341.341 89.5352 341.89 89.5352H345.732V101.894C345.732 102.169 346.006 102.718 346.555 102.718H347.378C347.652 102.718 348.201 102.444 348.201 101.894V89.5352H352.043C352.317 89.5352 352.866 89.2605 352.866 88.7112V87.8873C353.415 87.338 353.14 87.0634 352.317 87.0634Z" fill="black"/>
<path d="M358.628 94.4789H354.238C353.963 94.4789 353.415 94.7535 353.415 95.3028V96.1268C353.415 96.4014 353.689 96.9507 354.238 96.9507H358.628C358.902 96.9507 359.451 96.6761 359.451 96.1268V95.3028C359.726 95.0282 359.177 94.4789 358.628 94.4789Z" fill="black"/>
<path d="M376.189 94.2042H375.366H373.171C372.896 94.2042 372.347 94.4789 372.347 95.0282V95.8521C372.347 96.1268 372.622 96.6761 373.171 96.6761H374.817V99.1479C373.719 99.9718 372.622 100.246 371.25 100.246C368.232 100.246 365.762 97.7747 365.762 94.7535C365.762 91.7324 368.232 89.2606 371.25 89.2606C372.622 89.2606 373.994 90.0845 375.091 90.6338C375.091 90.6338 375.366 90.9085 375.915 90.9085C376.189 90.9085 376.189 90.9085 376.738 90.6338L377.012 89.8099C377.287 89.5352 377.287 88.9859 377.012 88.7113C375.64 87.338 373.445 86.5141 371.524 86.5141C367.134 86.5141 363.567 90.0845 363.567 94.4789C363.567 98.8732 367.408 102.444 371.524 102.444C373.719 102.444 375.64 101.62 377.012 100.246C377.287 100.246 377.287 99.9718 377.287 99.4225V94.2042C376.738 94.4789 376.463 94.2042 376.189 94.2042Z" fill="black"/>
<path d="M387.713 87.0634C383.323 87.0634 379.756 90.6338 379.756 95.0281C379.756 99.4225 383.598 102.993 387.713 102.993C392.104 102.993 395.671 99.4225 395.671 95.0281C395.671 90.6338 392.378 87.0634 387.713 87.0634ZM387.713 99.9718C384.695 99.9718 382.226 97.5 382.226 94.4788C382.226 91.4577 384.695 88.9859 387.713 88.9859C390.732 88.9859 393.201 91.4577 393.201 94.4788C393.201 98.0493 391.006 99.9718 387.713 99.9718Z" fill="black"/>
<path d="M409.116 94.4788C409.939 93.6549 410.488 92.831 410.488 91.4577C410.488 88.7112 408.293 87.0634 405.274 87.0634H399.512C399.238 87.0634 398.689 87.338 398.689 87.8873V101.894C398.689 102.169 398.963 102.718 399.512 102.718H405.274C409.116 102.718 411.037 101.07 411.037 98.3239C411.311 96.676 410.488 95.3028 409.116 94.4788ZM405.274 93.6549H401.158V89.8098H405.274C406.646 89.8098 408.018 90.0845 408.018 92.007C407.744 92.831 407.195 93.6549 405.274 93.6549ZM401.158 95.8521H405.274C406.646 95.8521 408.841 96.1267 408.841 98.0493C408.841 99.6972 407.195 100.246 405.274 100.246H401.158V95.8521Z" fill="black"/>
<path d="M421.189 87.6127C421.189 87.338 420.915 87.338 420.366 87.338H419.268C418.994 87.338 418.445 87.6127 418.445 87.6127L412.134 101.62C412.134 101.894 412.134 102.444 412.134 102.444C412.134 102.718 412.409 102.718 412.957 102.718H414.055C414.329 102.718 414.878 102.444 414.878 102.444L416.524 98.8732H423.659L425.305 102.444C425.305 102.718 425.579 102.718 426.128 102.718H427.226C427.5 102.718 428.049 102.718 428.049 102.444C428.049 102.169 428.049 101.62 428.049 101.62L421.189 87.6127ZM417.622 96.4014L420.091 90.9084L422.561 96.4014H417.622Z" fill="black"/>
<path d="M431.89 87.0634H431.067C430.793 87.0634 430.244 87.338 430.244 87.8873V101.894C430.244 102.169 430.518 102.718 431.067 102.718H431.89C432.165 102.718 432.713 102.444 432.713 101.894V87.8873C432.439 87.338 432.165 87.0634 431.89 87.0634Z" fill="black"/>
<path d="M449.177 87.0634H448.354C448.079 87.0634 447.53 87.338 447.53 87.8873V98.3239L439.573 87.6127C439.573 87.338 439.299 87.338 438.75 87.338H437.652C437.378 87.338 436.829 87.6127 436.829 88.162V101.894C436.829 102.169 437.104 102.718 437.652 102.718H438.476C438.75 102.718 439.299 102.444 439.299 101.894V91.4577L447.256 102.169C447.256 102.444 447.53 102.444 448.079 102.444H449.177C449.451 102.444 450 102.169 450 101.62V87.6127C450 87.338 449.726 87.0634 449.177 87.0634Z" fill="black"/>
<path d="M238.994 32.4085V80.4718C238.994 81.8451 240.366 83.2183 241.738 83.2183H247.5C248.872 83.2183 250.244 81.8451 250.244 80.4718V65.0915C256.555 68.9366 260.945 69.4859 265.335 69.4859C279.878 69.4859 290.854 57.6761 290.854 43.669C290.854 31.8592 283.171 17.8521 263.415 17.8521C255.183 17.8521 244.756 21.9718 240.366 29.1127C239.817 29.9366 238.994 31.0352 238.994 32.4085ZM250.518 34.331C253.262 30.7606 257.652 28.0141 264.238 28.0141C272.744 28.0141 279.604 34.8803 279.604 43.3944C279.604 51.9085 272.744 58.7746 264.238 58.7746C257.378 58.7746 252.439 54.6549 250.518 51.0845V34.331Z" fill="#FFCC00"/>
<path d="M320.762 17.5775C315 17.5775 310.884 19.7746 307.591 21.9718V2.74648C307.591 1.09859 306.219 0 304.848 0H299.634C297.988 0 296.89 1.37324 296.89 2.74648V65.3662C296.89 67.0141 298.262 68.1127 299.634 68.1127H305.122C306.768 68.1127 307.866 66.7394 307.866 65.3662V33.7817C310.884 29.9366 314.726 28.2887 318.841 28.2887C328.719 28.2887 329.817 36.5282 329.817 43.1197V65.3662C329.817 67.0141 331.189 68.1127 332.561 68.1127H338.049C339.695 68.1127 340.793 66.7394 340.793 65.3662V41.1972C341.341 24.169 331.738 17.5775 320.762 17.5775Z" fill="#FFCC00"/>
<path d="M373.171 17.5775C359.177 17.5775 346.829 28.5634 346.829 43.3944C346.829 57.9507 358.079 69.2113 373.171 69.2113C388.262 69.2113 399.512 57.9507 399.512 43.3944C399.238 28.5634 387.165 17.5775 373.171 17.5775ZM373.171 58.7746C364.939 58.7746 358.079 51.9084 358.079 43.669C358.079 34.6056 365.213 28.5634 373.171 28.5634C381.128 28.5634 388.262 34.8803 388.262 43.669C388.262 51.9084 381.402 58.7746 373.171 58.7746Z" fill="#FFCC00"/>
<path d="M180 58.7746L176.159 54.6549C175.061 53.5563 173.689 53.5563 172.317 54.3803C172.043 54.3803 170.945 55.4789 170.122 55.7535C169.024 56.5775 166.006 58.2253 161.89 58.2253C153.933 58.2253 145.976 51.6338 145.976 43.3944C145.976 35.1549 152.561 28.5634 160.793 28.5634C165.183 28.5634 168.476 30.2113 170.671 32.4084C171.768 33.507 173.415 33.507 174.512 32.4084L178.354 28.2887C179.451 27.1901 179.451 25.5422 178.354 24.169C175.61 21.6972 170.122 17.5775 161.067 17.5775C146.25 17.5775 135 29.3873 135 43.3944C135 58.2253 147.622 69.2113 161.89 69.2113C171.768 69.2113 177.256 63.9929 179.451 62.6197C181.098 61.7958 181.098 59.8732 180 58.7746Z" fill="#FFCC00"/>
<path d="M428.049 17.8521C414.055 17.8521 405.823 25.5423 405.823 39.5493V65.6408C405.823 67.2887 407.195 68.3873 408.567 68.3873H414.055C415.701 68.3873 416.799 67.0141 416.799 65.6408V39.8239C416.799 31.8592 421.738 28.5634 427.774 28.5634C434.085 28.5634 438.75 32.1338 438.75 39.8239V65.6408C438.75 67.2887 440.122 68.3873 441.494 68.3873H446.982C448.628 68.3873 449.726 67.0141 449.726 65.6408V39.5493C450 26.3662 442.043 17.8521 428.049 17.8521Z" fill="#FFCC00"/>
<path d="M62.8353 43.9437C62.8353 36.2535 64.4817 29.3873 68.0488 23.3451C68.8719 21.6972 67.7744 19.7747 65.8536 19.7747H43.0793C43.0793 21.1479 42.8049 22.7958 42.8049 24.7183C42.8049 32.4085 44.4512 39.2747 48.0183 45.3169C48.8414 46.9648 47.7439 48.8873 45.8232 48.8873H19.4817C20.3049 55.2042 22.2256 60.9718 24.9695 66.1901C26.0671 67.5634 27.439 68.662 29.0853 68.662H65.0305C66.6768 68.662 67.7744 66.4648 67.2256 65.0916C64.4817 58.5 62.8353 51.6338 62.8353 43.9437Z" fill="black"/>
<path d="M46.372 0H9.87805C8.23171 0 6.31098 1.09859 5.76219 2.47183C1.92073 9.06338 0 16.2042 0 24.4437C0 32.6831 2.19512 39.8239 5.76219 46.4155C6.85976 47.7887 8.23171 48.8873 9.87805 48.8873H45.8232C47.4695 48.8873 48.5671 46.6901 48.0183 45.3169C44.4512 39 42.8049 31.8592 42.8049 24.7183C42.8049 17.5775 44.4512 10.162 48.0183 4.11972C49.1159 1.64789 48.0183 0 46.372 0Z" fill="#FFCC00"/>
</svg>
