<svg width="500" height="100" viewBox="0 0 500 100" fill="none" xmlns="http://www.w3.org/2000/svg">
<g clip-path="url(#clip0_189_964)">
<path d="M53.738 0.545867L30.534 10.0696C29.9254 10.3065 29.404 10.7243 29.0403 11.2667C28.6766 11.8092 28.488 12.4501 28.4999 13.1031V39.0935L46.8596 31.7214C49.7238 30.6279 52.1809 28.678 53.8967 26.1375C55.6125 23.5969 56.5034 20.5892 56.448 17.524V2.39183C56.4746 2.05985 56.413 1.72674 56.2692 1.42633C56.1255 1.12592 55.9046 0.868917 55.6292 0.681425C55.3538 0.493938 55.0342 0.382641 54.7017 0.358833C54.3696 0.335025 54.0371 0.399546 53.738 0.545867Z" fill="#78DE1F"/>
<path d="M0.310216 52.7567V66.7542C0.310216 85.8312 14.1314 99.6467 33.2318 99.6467H53.9195C54.2575 99.6579 54.5945 99.6 54.9091 99.4758C55.2241 99.3517 55.51 99.1642 55.7491 98.9246C55.9883 98.6854 56.1758 98.3996 56.3 98.085C56.4241 97.77 56.4825 97.4333 56.4708 97.095V74.1146C56.4825 73.7763 56.4241 73.4392 56.3 73.1242C56.1758 72.8092 55.9887 72.5229 55.7495 72.2829C55.5104 72.0433 55.2245 71.8554 54.9095 71.7304C54.595 71.6054 54.2579 71.5467 53.9195 71.5575H32.7614C32.1962 71.5779 31.6328 71.4817 31.1063 71.275C30.5799 71.0679 30.1018 70.7546 29.7019 70.3546C29.3019 69.955 28.9887 69.4767 28.7818 68.9504C28.5749 68.4237 28.4787 67.8604 28.4993 67.2954V39.0768L2.35604 49.7175C1.74177 49.9492 1.21481 50.3663 0.848226 50.9108C0.481643 51.4554 0.293618 52.1004 0.310216 52.7567Z" fill="#01602A"/>
<path d="M169.68 23.4436C152.003 23.4436 138.387 37.1825 138.387 54.5017C138.387 71.8208 152.003 85.5537 169.68 85.5537C187.358 85.5537 200.973 71.8208 200.973 54.5017C200.973 37.1825 187.358 23.4436 169.68 23.4436ZM169.68 73.3725C159.051 73.3725 151.644 65.1421 151.644 54.5017C151.644 43.8608 159.051 35.6304 169.68 35.6304C180.192 35.6304 187.593 43.8608 187.593 54.5017C187.593 65.1421 180.192 73.3725 169.68 73.3725Z" fill="#01602A"/>
<path d="M263.675 68.5933L253.881 63.3375C253.766 63.27 253.638 63.2287 253.505 63.2167C253.372 63.2046 253.239 63.2217 253.114 63.2671C252.988 63.3129 252.875 63.3854 252.781 63.4796C252.687 63.5742 252.615 63.6883 252.57 63.8137C251.072 66.7225 248.793 69.1575 245.99 70.8454C243.187 72.5337 239.969 73.4087 236.697 73.3725C226.062 73.3725 218.537 65.1421 218.537 54.5017C218.537 43.8608 226.062 35.6304 236.697 35.6304C239.97 35.5898 243.188 36.4622 245.992 38.1497C248.796 39.8372 251.074 42.2729 252.57 45.1837C252.614 45.3096 252.685 45.4246 252.779 45.5196C252.873 45.6146 252.987 45.6875 253.112 45.7333C253.238 45.7787 253.372 45.7958 253.505 45.7833C253.638 45.7704 253.767 45.7283 253.881 45.6596L263.675 40.4041C263.794 40.3515 263.9 40.273 263.985 40.1744C264.07 40.0758 264.132 39.9594 264.166 39.8339C264.201 39.7083 264.207 39.5767 264.184 39.4485C264.161 39.3204 264.11 39.199 264.034 39.0931C258.778 29.5341 248.749 23.4436 236.685 23.4436C218.767 23.4436 205.151 36.8239 205.151 54.5017C205.151 72.1792 218.767 85.5537 236.685 85.5537C248.749 85.5537 258.902 79.4633 264.157 69.7867C264.248 69.5642 264.249 69.315 264.159 69.0921C264.069 68.8692 263.895 68.69 263.675 68.5933Z" fill="#01602A"/>
<path d="M136.832 72.4154H106.262V25.5961C106.245 25.3478 106.138 25.1143 105.962 24.9383C105.786 24.7623 105.552 24.6556 105.304 24.6379H94.0758C93.8279 24.6558 93.5954 24.7626 93.4204 24.9388C93.245 25.1149 93.1395 25.3483 93.1233 25.5961V73.3733C93.1233 80.1813 97.3033 84.3613 104.111 84.3613H136.832C137.081 84.3446 137.314 84.2379 137.49 84.0617C137.665 83.885 137.77 83.6508 137.785 83.4029V73.3733C137.77 73.1254 137.665 72.8913 137.49 72.7146C137.314 72.5383 137.081 72.4321 136.832 72.4154Z" fill="#01602A"/>
<path d="M434.242 72.4137H402.902L433.767 35.7475C434.079 35.3803 434.246 34.9127 434.242 34.4307V25.6124C434.225 25.3637 434.121 25.1294 433.942 24.9532C433.767 24.7769 433.533 24.6707 433.283 24.6541H387.429C387.18 24.6707 386.946 24.7769 386.77 24.9532C386.593 25.1294 386.487 25.3637 386.471 25.6124V35.6476C386.487 35.8957 386.594 36.1292 386.77 36.3044C386.947 36.4797 387.181 36.5848 387.429 36.5999H417.254L386.471 73.39C386.161 73.7562 385.992 74.2212 385.995 74.7008V83.4012C386.01 83.6496 386.115 83.8837 386.29 84.06C386.465 84.2367 386.699 84.3429 386.947 84.3596H434.25C434.496 84.3429 434.729 84.2367 434.904 84.06C435.079 83.8837 435.183 83.6496 435.2 83.4012V73.3721C435.183 73.1229 435.079 72.8879 434.904 72.7117C434.725 72.535 434.492 72.4291 434.242 72.4137Z" fill="#01602A"/>
<path d="M376.195 3.26132H364.966C364.719 3.27785 364.486 3.38349 364.311 3.55863C364.136 3.73378 364.03 3.96655 364.014 4.21368V15.6833C364.03 15.9305 364.136 16.1632 364.311 16.3384C364.486 16.5135 364.719 16.6192 364.966 16.6357H369.263C370.308 16.6692 371.348 16.4882 372.32 16.1038C373.291 15.7195 374.174 15.14 374.912 14.4012C375.651 13.6623 376.231 12.7798 376.615 11.8082C377 10.8366 377.18 9.79651 377.147 8.75218V4.21368C377.13 3.96655 377.025 3.73378 376.85 3.55863C376.675 3.38349 376.442 3.27785 376.195 3.26132Z" fill="#01602A"/>
<path d="M498.733 24.637H487.504C487.258 24.6549 487.025 24.7618 486.85 24.9379C486.675 25.114 486.571 25.3475 486.554 25.5952V32.691C483.213 27.8762 476.083 23.4436 467.442 23.4436C451.079 23.4436 438.633 37.4176 438.633 54.5017C438.633 71.5854 451.058 85.5537 467.442 85.5537C476.083 85.5537 483.213 81.1267 486.554 76.3121V83.4021C486.571 83.65 486.675 83.8842 486.85 84.0608C487.025 84.2371 487.258 84.3433 487.504 84.3604H498.733C498.983 84.3437 499.217 84.2375 499.396 84.0612C499.571 83.885 499.675 83.6508 499.692 83.4021V25.5952C499.675 25.347 499.567 25.1134 499.392 24.9374C499.217 24.7614 498.983 24.6547 498.733 24.637ZM469.829 73.6079C459.325 73.6079 452.033 65.2479 452.033 54.5017C452.033 43.755 459.325 35.3894 469.829 35.3894C480.333 35.3894 487.629 43.7492 487.629 54.5017C487.629 65.2542 480.342 73.6079 469.829 73.6079Z" fill="#01602A"/>
<path d="M327.604 24.637H316.376C316.128 24.6549 315.895 24.7618 315.72 24.9379C315.545 25.114 315.44 25.3475 315.423 25.5952V32.691C312.078 27.8762 304.947 23.4436 296.311 23.4436C279.945 23.4436 267.505 37.4176 267.505 54.5017C267.505 71.5854 279.927 85.5537 296.311 85.5537C304.947 85.5537 312.078 81.1267 315.423 76.3121V83.4021C315.438 83.65 315.543 83.8842 315.719 84.0608C315.894 84.2371 316.127 84.3433 316.376 84.3604H327.604C327.852 84.3433 328.086 84.2371 328.261 84.0608C328.437 83.8842 328.542 83.65 328.557 83.4021V25.5952C328.54 25.3475 328.435 25.114 328.26 24.9379C328.085 24.7618 327.852 24.6549 327.604 24.637ZM298.698 73.6079C288.187 73.6079 280.903 65.2479 280.903 54.5017C280.903 43.755 288.187 35.3894 298.698 35.3894C309.21 35.3894 316.493 43.7492 316.493 54.5017C316.493 65.2542 309.186 73.6079 298.675 73.6079H298.698Z" fill="#01602A"/>
<path d="M376.195 24.6379H364.972C364.442 24.6379 364.014 25.0669 364.014 25.5961V83.3971C364.014 83.9263 364.442 84.355 364.972 84.355H376.195C376.724 84.355 377.153 83.9263 377.153 83.3971V25.5961C377.153 25.0669 376.724 24.6379 376.195 24.6379Z" fill="#01602A"/>
<path d="M351.939 3.26132H340.717C340.187 3.26132 339.758 3.69033 339.758 4.21955V83.4017C339.758 83.9308 340.187 84.36 340.717 84.36H351.939C352.468 84.36 352.897 83.9308 352.897 83.4017V4.21955C352.897 3.69033 352.468 3.26132 351.939 3.26132Z" fill="#01602A"/>
</g>
<defs>
<clipPath id="clip0_189_964">
<rect width="500" height="100" fill="white"/>
</clipPath>
</defs>
</svg>
