<svg width="369" height="482" viewBox="0 0 369 482" fill="none" xmlns="http://www.w3.org/2000/svg">
<g clip-path="url(#clip0_189_1005)">
<path d="M128.184 409.365C126.77 390.566 111.084 375.709 91.9302 375.709C72.7767 375.709 55.5755 392.015 55.5755 412.094C55.5755 432.173 71.8341 448.479 91.9302 448.479C93.0074 448.479 94.0846 448.411 95.1617 448.344C95.0944 447.434 95.0608 446.525 95.0608 445.581C95.0608 444.436 95.1281 443.324 95.2291 442.212C94.1519 442.313 93.0747 442.415 91.9639 442.415C75.234 442.415 61.6683 428.838 61.6683 412.094C61.6683 395.35 75.234 381.807 91.9639 381.807C108.694 381.807 121.283 394.474 122.158 410.409C122.192 410.982 122.259 411.521 122.259 412.127C122.259 413.745 122.091 415.328 121.855 416.878C120.071 428.13 112.127 437.327 101.591 440.865C101.355 442.415 101.187 443.998 101.187 445.615C101.187 446.188 101.255 446.761 101.288 447.3C115.83 443.493 126.804 430.859 128.218 415.463C128.319 414.351 128.386 413.239 128.386 412.094C128.386 411.15 128.352 410.241 128.285 409.331" fill="#0E80C3"/>
<path d="M128.117 415.463C128.218 414.351 128.285 413.239 128.285 412.094C128.285 411.15 128.251 410.241 128.184 409.331C129.227 409.23 130.305 409.196 131.382 409.196C132.392 409.196 133.401 409.264 134.411 409.331C136.465 409.5 138.484 409.836 140.47 410.342C155.147 414.115 166.222 426.816 167.602 442.347C165.414 442.111 163.327 441.673 161.307 440.999C159.557 429.579 151.511 420.28 140.773 416.776C138.754 416.103 136.633 415.665 134.479 415.429C133.469 415.328 132.459 415.26 131.415 415.26C130.305 415.26 129.227 415.328 128.15 415.429M161.576 447.434C160.634 463.302 147.472 475.902 131.382 475.902C115.291 475.902 102.062 463.235 101.187 447.299C101.187 446.727 101.12 446.188 101.12 445.615C101.12 443.998 101.288 442.414 101.524 440.865C103.308 429.612 111.252 420.415 121.788 416.878C122.024 415.328 122.192 413.744 122.192 412.127C122.192 411.555 122.125 410.982 122.091 410.409C107.549 414.25 96.5755 426.85 95.1617 442.246C95.0607 443.358 94.9934 444.47 94.9934 445.615C94.9934 446.558 95.0271 447.468 95.0944 448.378C96.5082 467.176 112.195 482 131.348 482C150.502 482 166.121 467.244 167.602 448.479C165.515 448.31 163.495 447.973 161.543 447.468" fill="#F9AF2F"/>
<path d="M173.93 442.313C173.829 443.358 173.796 444.402 173.796 445.48C173.796 446.491 173.863 447.468 173.93 448.411C172.853 448.512 171.742 448.58 170.665 448.58C169.655 448.58 168.645 448.546 167.635 448.445C165.548 448.277 163.562 447.94 161.576 447.434C146.9 443.661 135.825 430.96 134.445 415.429C136.633 415.665 138.72 416.103 140.74 416.777C142.49 428.197 150.535 437.496 161.273 441C163.293 441.64 165.414 442.111 167.568 442.347C168.578 442.448 169.588 442.482 170.631 442.482C171.742 442.482 172.853 442.415 173.93 442.28M206.885 409.264C205.37 390.532 189.751 375.81 170.665 375.81C151.579 375.81 135.892 390.6 134.445 409.331C136.498 409.5 138.518 409.837 140.504 410.342C141.48 394.474 154.575 381.874 170.699 381.874C186.823 381.874 199.917 394.44 200.893 410.308C200.927 410.948 200.994 411.555 200.994 412.195C200.994 413.745 200.826 415.261 200.624 416.777C198.907 428.096 190.929 437.361 180.326 440.932C180.09 442.415 179.956 443.931 179.956 445.514C179.956 446.154 180.023 446.761 180.057 447.401C194.632 443.526 205.606 430.859 206.952 415.395C207.053 414.351 207.087 413.307 207.087 412.228C207.087 411.218 207.053 410.241 206.952 409.297" fill="#221F1F"/>
<path d="M206.851 415.362C206.952 414.317 207.02 413.273 207.02 412.195C207.02 411.184 206.986 410.207 206.885 409.264C207.962 409.163 209.039 409.095 210.15 409.095C211.16 409.095 212.17 409.163 213.18 409.23C215.267 409.398 217.253 409.735 219.239 410.241C233.915 414.014 244.99 426.749 246.37 442.246C244.182 442.01 242.095 441.572 240.076 440.898C238.359 429.478 230.28 420.145 219.542 416.642C217.522 416.002 215.401 415.53 213.247 415.294C212.237 415.193 211.227 415.126 210.184 415.126C209.073 415.126 207.962 415.193 206.885 415.294M240.345 447.367C239.402 463.235 226.274 475.801 210.15 475.801C194.026 475.801 180.932 463.235 179.956 447.367C179.922 446.727 179.855 446.12 179.855 445.48C179.855 443.93 179.989 442.414 180.225 440.898C181.942 429.545 189.92 420.28 200.523 416.743C200.759 415.26 200.893 413.711 200.893 412.161C200.893 411.521 200.826 410.914 200.792 410.274C186.217 414.115 175.243 426.816 173.897 442.28C173.796 443.324 173.762 444.368 173.762 445.447C173.762 446.457 173.829 447.434 173.897 448.378C175.378 467.075 191.03 481.832 210.117 481.832C229.203 481.832 244.889 467.075 246.337 448.31C244.25 448.142 242.23 447.805 240.277 447.299" fill="#00A44F"/>
<path d="M249.4 375.709C230.28 375.709 214.627 390.465 213.18 409.23C215.267 409.399 217.287 409.735 219.239 410.241C220.215 394.373 233.31 381.807 249.433 381.807C265.557 381.807 279.695 395.384 279.695 412.094C279.695 428.804 266.13 442.415 249.433 442.415C248.39 442.415 247.38 442.347 246.37 442.246C244.182 442.01 242.095 441.572 240.076 440.899C229.337 437.395 221.292 428.063 219.542 416.642C217.522 416.002 215.401 415.53 213.247 415.328C214.627 430.825 225.702 443.56 240.379 447.333C242.331 447.839 244.351 448.176 246.438 448.344C247.447 448.411 248.457 448.479 249.467 448.479C269.563 448.479 285.822 432.207 285.822 412.094C285.822 391.981 269.53 375.709 249.467 375.709" fill="#EC364F"/>
<mask id="mask0_189_1005" style="mask-type:luminance" maskUnits="userSpaceOnUse" x="55" y="2" width="247" height="211">
<path d="M68.9392 201.061C61.2644 200.858 57.9655 196.411 55.3062 190.752C56.7874 194.794 58.908 198.467 61.7356 201.398C68.7709 208.742 80.0813 211.707 96.037 205.642C106.27 198.5 115.931 189.64 125.222 181.689C128.083 179.23 130.877 176.972 133.603 174.884C128.756 169.898 124.313 165.349 120.341 161.307C119.365 160.363 118.388 159.42 117.479 158.544C102.466 180.948 83.7841 201.465 68.9729 201.061M127.208 7.74854C118.725 12.6336 110.848 18.8325 103.846 25.9747C103.745 26.0758 103.645 26.1769 103.51 26.3116C115.493 15.194 126.938 7.37795 139.932 10.41C160.903 15.3287 156.695 74.7239 141.447 114.208C139.191 120.07 135.623 127.617 131.146 135.871C137.071 145.203 142.49 155.007 148.65 164.979C148.718 165.08 148.785 165.181 148.852 165.316C166.558 156.826 183.019 159.386 204.63 176.972C213.281 184.014 226.745 197.355 239.975 212.043C250.78 210.157 260.475 205.912 267.409 198.568C273.098 192.503 275.723 186.81 276.801 181.453C259.667 181.622 237.517 175.119 219.273 164.911C197.056 152.446 184.264 135.332 185.745 120.778C188.27 95.7463 225.736 92.9837 248.727 97.9698C270.236 102.619 301.542 119.127 300.599 144.765C304.302 122.9 284.071 99.0142 260.374 87.2565C257.512 86.1447 254.718 85.2014 252.025 84.4602C240.883 81.3608 229.337 79.4068 214.796 78.6993C209.915 78.4634 209.073 78.3961 203.418 78.4297C201.398 78.4297 196.989 78.733 196.181 78.6993C194.901 78.6319 194.127 78.0592 194.834 76.0715C198.2 66.5372 196.181 58.6201 188.506 56.6998C180.932 54.8469 175.782 62.6292 173.728 67.0089C172.382 69.9062 169.756 71.3549 170.295 66.5036C172.415 47.5025 167.804 17.7207 155.248 6.19881C151.478 3.77314 147.573 2.69507 143.567 2.69507C138.35 2.69507 132.897 4.5817 127.208 7.84961" fill="white"/>
</mask>
<g mask="url(#mask0_189_1005)">
<path d="M180.064 -122.042L-49.298 107.031L179.537 336.537L408.899 107.464L180.064 -122.042Z" fill="url(#paint0_radial_189_1005)"/>
</g>
<mask id="mask1_189_1005" style="mask-type:luminance" maskUnits="userSpaceOnUse" x="21" y="0" width="184" height="216">
<path d="M133.368 0.168449C119.903 1.24652 107.381 7.31069 95.734 15.2952C58.6724 40.6636 29.1847 89.4464 22.7217 134.692C19.8604 154.569 20.6683 174.513 28.4442 192.739C42.2791 221.679 75.4359 220.028 96.0369 205.609C42.5821 225.957 41.3703 144.799 77.9269 138.027C91.9639 134.759 100.649 142.205 120.307 161.273C139.461 178.792 155.517 191.527 170.8 199.848C179.686 204.699 191.502 208.843 204.057 211.168C195.238 209.146 187.9 205.811 182.076 202.004C168.511 193.211 157.705 179.567 148.684 164.945C132.964 139.509 122.057 115.084 95.2627 96.7908C94.0172 95.9149 93.142 95.0389 93.1757 94.0282C93.2767 91.7036 94.8251 91.3667 96.5082 85.7069C98.5279 78.9352 98.2923 71.0855 90.9877 68.6935C85.2652 66.8069 80.8555 68.963 77.2873 73.1069C76.4458 74.1176 75.5033 76.4422 74.5944 75.6336C73.7529 75.1956 75.234 71.4224 75.5369 70.5801C84.8612 45.3128 103.611 21.292 127.208 7.74865C137.239 1.9877 146.496 0.539037 155.214 6.09785C149.963 1.6508 143.5 0 136.801 0C135.657 0 134.512 0.0673796 133.334 0.168449" fill="white"/>
</mask>
<g mask="url(#mask1_189_1005)">
<path d="M48.6707 -66.9914L-62.1746 190.603L175.233 292.932L286.078 35.3378L48.6707 -66.9914Z" fill="url(#paint1_linear_189_1005)"/>
</g>
<mask id="mask2_189_1005" style="mask-type:luminance" maskUnits="userSpaceOnUse" x="120" y="87" width="208" height="155">
<path d="M300.599 144.698C299.589 150.661 298.344 152.042 294.843 149.145C291.174 146.079 285.048 144.327 280.571 149.044C269.631 160.532 287.236 177.444 267.443 198.467C245.562 221.713 196.248 213.694 170.833 199.848C155.551 191.527 139.494 178.792 120.341 161.273C129.463 170.47 140.874 182.262 154.036 196.209C184.332 228.282 218.532 240.848 247.952 241.253C286.293 241.758 326.99 216.322 327.024 172.963C327.057 134.591 292.857 98.3405 260.407 87.1218C284.139 98.9133 304.369 122.799 300.633 144.664" fill="white"/>
</mask>
<g mask="url(#mask2_189_1005)">
<path d="M327.024 87.1555H120.341V241.825H327.024V87.1555Z" fill="url(#paint2_radial_189_1005)"/>
</g>
<path d="M320.695 298.054C314.199 298.054 307.769 300.041 301.845 303.781C304.538 293.034 312.145 284.847 321.941 278.918C325.374 276.829 328.808 274.842 330.255 271.035C331.03 268.912 330.828 265.712 327.933 265.509C325.913 265.341 323.893 266.52 322.244 267.43C305.346 276.93 292.521 292.293 289.962 311.732C285.452 316.213 281.513 320.66 277.44 325.949C277.406 325.983 277.406 325.949 277.406 325.949V290.743C277.406 288.317 275.993 287.374 274.276 287.408C272.761 287.408 270.607 288.486 269.53 289.16L261.518 294.247C258.892 295.898 257.916 297.245 258.152 299.435C258.556 303.175 262.764 303.646 265.86 301.861V340.941C265.86 342.558 266.736 344.108 268.587 344.108C270.27 344.108 271.684 343.198 273.3 341.547C278.585 336.292 284.038 329.217 290.534 322.951C292.857 334.776 302.047 344.782 314.872 344.782C329.111 344.782 340.892 331.238 340.791 317.863C340.724 306.881 331.703 298.054 320.729 298.054M328.438 327.33C326.788 330.396 323.489 332.08 320.157 332.249C310.193 332.788 303.629 324.366 301.845 314.461C305.817 312.069 310.361 310.452 315.04 310.485C319.787 310.485 323.994 312.574 326.553 315.707C329.178 318.908 330.491 323.523 328.438 327.364M231.694 289.8C217.556 289.867 206.279 301.962 203.822 315.101C202.846 320.255 200.792 323.49 196.921 326.859C192.209 331.002 186.587 332.788 180.562 332.721C177.633 332.721 172.92 331.777 172.281 328.004C171.911 325.814 173.661 323.692 175.243 322.108C178.104 319.177 180.292 317.358 183.255 314.528C188.068 309.913 192.545 305.971 196.753 300.648C201.533 294.617 204.933 287.981 204.562 281.142C203.956 270.496 196.08 263.589 184.938 263.623C177.229 263.657 169.992 266.756 164.404 271.675C163.226 272.719 162.048 274.134 161.307 275.65C160.701 276.829 160.331 278.109 160.365 279.322C160.365 281.243 162.115 282.961 164 282.961C165.346 282.961 166.861 282.354 168.443 281.007C171.608 278.312 175.681 276.054 179.956 275.886C188.135 275.583 191.973 280.771 192.209 286.363C192.41 290.676 190.492 294.382 187.933 297.616C184.332 302.13 180.865 305.095 176.69 308.902C172.988 312.271 169.655 315.135 166.323 318.605C162.283 322.782 159.22 326.892 159.456 332.552C159.792 340.739 168.073 344.714 175.108 344.748C186.553 344.849 197.695 338.313 205.135 330.025C205.236 329.891 205.337 329.823 205.404 330.025C209.006 338.717 217.152 344.748 226.645 344.748C242.567 344.748 254.954 328.981 254.718 314.124C254.516 301.558 244.755 289.732 231.694 289.8ZM231.963 332.215C221.629 332.215 214.964 323.254 214.93 313.955C214.93 307.15 218.734 302.164 225.904 302.164C236.238 302.164 243.071 311.294 243.071 320.592C243.071 327.398 239.099 332.182 231.929 332.215M129.901 289.8C122.36 289.53 115.527 293.674 111.05 300.075C108.727 303.41 105.395 309.239 101.625 315.775C96.8112 324.197 91.9302 332.552 88.4967 332.485C86.3424 332.451 85.7364 330.362 85.6018 327.903C85.2988 321.435 85.7364 315.067 85.6691 308.632C85.6691 306.847 85.7701 305.466 84.4573 304.623C82.5049 303.343 78.1962 303.309 75.5369 306.746C70.0501 313.821 64.6305 321.367 58.4704 327.869C55.8785 330.598 53.0172 332.653 49.1798 332.653C46.6888 332.653 45.0394 332.249 42.4474 329.217C38.913 325.073 35.6478 318.167 34.4023 314.932C34.2003 314.393 34.4696 314.259 34.6716 314.225C48.7759 310.115 65.9097 300.951 65.674 283.23C65.5057 271.169 56.5181 263.454 44.3662 263.016C30.6322 262.545 17.5041 269.283 9.69457 280.602C-3.29886 299.401 -0.807897 323.591 2.99588 340.2C3.50081 342.356 5.18389 343.266 7.13627 343.266C11.7816 343.266 17.2348 337.639 15.9893 332.923C9.35795 308.262 11.0747 294.348 17.5378 285.353C21.9474 279.221 29.858 275.279 37.4992 275.212C45.679 275.145 54.3974 278.783 54.1617 288.284C53.8588 300.041 38.9803 303.68 29.5213 304.59C26.8957 304.825 24.3374 305.769 22.688 307.992C20.5 310.89 20.702 314.427 21.7455 318.066C23.5969 324.433 26.4581 329.352 29.9589 334.978C32.8875 339.661 38.0378 344.478 44.0295 344.782C52.8826 345.219 58.2011 339.728 63.1158 334.338C66.4483 330.699 69.2085 327.027 72.4401 323.186C72.6757 322.917 72.7767 323.052 72.7767 323.254C72.642 332.956 72.7093 345.017 84.0197 344.748C90.1798 344.613 94.2865 340.2 97.821 335.854C100.75 332.249 103.274 327.869 105.799 323.523C106.001 323.254 106.102 323.119 106.203 323.523C108.593 333.933 117.277 344.478 128.588 344.748C143.904 345.085 153.43 328.678 152.488 315.337C151.646 303.545 142.86 290.238 129.867 289.8M133.772 332.148C124.952 332.283 116.537 318.402 117.244 309.374C117.58 305.297 119.802 302.198 124.481 302.231C133.401 302.231 141.177 314.663 140.874 323.085C140.706 327.667 138.855 332.08 133.805 332.148M76.3448 289.126C76.5131 284.645 80.1486 281.04 84.491 281.04C88.8333 281.04 92.1995 284.679 92.0312 289.126C91.8629 293.607 88.2274 297.212 83.9187 297.212C79.5763 297.212 76.2102 293.607 76.3448 289.126ZM349.274 333.731V344.748H348.13V333.731H344.427V332.788H352.977V333.731H349.274ZM367.788 344.748L366.677 336.999C366.475 335.584 366.374 334.574 366.307 333.967C366.206 334.405 366.004 335.045 365.735 335.854L362.739 344.748H361.392L358.531 336.393C358.228 335.483 357.993 334.675 357.791 333.967C357.757 334.877 357.622 335.854 357.454 337.1L356.545 344.748H355.367L357.016 332.788H358.498L361.392 341.278C361.594 341.884 361.864 342.76 362.066 343.569C362.268 342.76 362.47 342.187 362.739 341.446L365.701 332.788H367.25L369 344.748H367.788Z" fill="#0E4C87"/>
</g>
<defs>
<radialGradient id="paint0_radial_189_1005" cx="0" cy="0" r="1" gradientTransform="matrix(100.561 100.856 100.772 -100.645 172.256 89.3026)" gradientUnits="userSpaceOnUse">
<stop stop-color="#FDD204"/>
<stop offset="0.14" stop-color="#FBC807"/>
<stop offset="0.38" stop-color="#F8AF0F"/>
<stop offset="0.67" stop-color="#F3871D"/>
<stop offset="0.73" stop-color="#F38020"/>
<stop offset="1" stop-color="#EE4F24"/>
</radialGradient>
<linearGradient id="paint1_linear_189_1005" x1="69.7381" y1="220.362" x2="162.058" y2="6.17634" gradientUnits="userSpaceOnUse">
<stop stop-color="#026635"/>
<stop offset="0.01" stop-color="#066935"/>
<stop offset="0.11" stop-color="#2D873A"/>
<stop offset="0.22" stop-color="#4B9E3E"/>
<stop offset="0.32" stop-color="#61AF41"/>
<stop offset="0.41" stop-color="#6EB943"/>
<stop offset="0.5" stop-color="#73BD44"/>
<stop offset="0.58" stop-color="#6EBA43"/>
<stop offset="0.68" stop-color="#60B343"/>
<stop offset="0.78" stop-color="#49A742"/>
<stop offset="0.89" stop-color="#299642"/>
<stop offset="1" stop-color="#008041"/>
</linearGradient>
<radialGradient id="paint2_radial_189_1005" cx="0" cy="0" r="1" gradientUnits="userSpaceOnUse" gradientTransform="translate(280.382 140.23) scale(155.866 155.996)">
<stop stop-color="#14BDEF"/>
<stop offset="0.28" stop-color="#0C96CE"/>
<stop offset="0.63" stop-color="#036CA9"/>
<stop offset="0.8" stop-color="#005C9C"/>
<stop offset="1" stop-color="#005C9C"/>
</radialGradient>
<clipPath id="clip0_189_1005">
<rect width="369" height="482" fill="white"/>
</clipPath>
</defs>
</svg>
