<svg width="443" height="250" viewBox="0 0 443 250" fill="none" xmlns="http://www.w3.org/2000/svg">
<path fill-rule="evenodd" clip-rule="evenodd" d="M323.142 208.64L325.879 209.453C325.307 212.084 324.272 214.095 322.786 215.484C321.295 216.867 319.476 217.556 317.321 217.556C315.094 217.556 313.285 217.025 311.89 215.964C310.495 214.896 309.431 213.355 308.705 211.339C307.978 209.318 307.613 207.15 307.613 204.835C307.613 202.311 308.022 200.109 308.844 198.229C309.667 196.349 310.836 194.92 312.356 193.943C313.872 192.966 315.541 192.481 317.364 192.481C319.433 192.481 321.169 193.096 322.579 194.333C323.989 195.569 324.97 197.303 325.523 199.544L322.834 200.29C322.353 198.522 321.66 197.241 320.746 196.433C319.837 195.626 318.692 195.225 317.307 195.225C315.719 195.225 314.396 195.671 313.328 196.563C312.26 197.461 311.51 198.658 311.081 200.165C310.648 201.667 310.432 203.22 310.432 204.818C310.432 206.884 310.687 208.68 311.197 210.221C311.712 211.757 312.505 212.909 313.588 213.671C314.67 214.433 315.839 214.812 317.1 214.812C318.63 214.812 319.924 214.292 320.987 213.259C322.05 212.22 322.767 210.679 323.142 208.64ZM329.305 217.143V192.893H344.242V195.756H332.037V203.18H343.467V206.026H332.037V214.281H344.723V217.143H329.305ZM348.966 217.143V192.893H351.699V217.143H348.966ZM356.404 217.143V192.893H359.141V214.281H369.316V217.143H356.404ZM373.039 217.143V192.893H375.772V217.143H373.039ZM380.563 217.143V192.893H383.368L394.221 211.932V192.893H396.843V217.143H394.039L383.185 198.088V217.143H380.563ZM411.107 207.63V204.79L419.858 204.773V213.767C418.516 215.026 417.13 215.969 415.701 216.607C414.272 217.24 412.805 217.556 411.304 217.556C409.274 217.556 407.427 217.047 405.772 216.026C404.112 215.009 402.861 213.53 402.015 211.605C401.168 209.674 400.745 207.517 400.745 205.134C400.745 202.774 401.168 200.572 402.01 198.528C402.847 196.478 404.059 194.96 405.637 193.966C407.215 192.978 409.034 192.481 411.092 192.481C412.584 192.481 413.936 192.763 415.143 193.333C416.351 193.898 417.298 194.688 417.982 195.705C418.67 196.721 419.189 198.042 419.55 199.674L417.082 200.47C416.769 199.234 416.385 198.263 415.927 197.557C415.466 196.851 414.807 196.286 413.95 195.863C413.099 195.44 412.146 195.225 411.107 195.225C409.856 195.225 408.774 195.451 407.865 195.897C406.95 196.343 406.219 196.93 405.656 197.658C405.098 198.387 404.666 199.183 404.353 200.058C403.829 201.554 403.564 203.18 403.564 204.936C403.564 207.099 403.881 208.906 404.516 210.363C405.151 211.819 406.075 212.897 407.287 213.603C408.5 214.309 409.784 214.665 411.146 214.665C412.334 214.665 413.488 214.394 414.614 213.857C415.744 213.327 416.596 212.756 417.178 212.147V207.63H411.107ZM307.474 239.092L310.052 238.827C310.172 240.041 310.456 241.035 310.903 241.814C311.351 242.593 312.044 243.22 312.982 243.7C313.92 244.18 314.978 244.417 316.152 244.417C317.196 244.417 318.115 244.236 318.914 243.874C319.712 243.508 320.309 243.011 320.698 242.378C321.088 241.74 321.285 241.051 321.285 240.301C321.285 239.538 321.098 238.878 320.717 238.308C320.342 237.737 319.722 237.263 318.861 236.879C318.302 236.625 317.081 236.23 315.18 235.693C313.285 235.157 311.952 234.654 311.192 234.18C310.206 233.576 309.47 232.819 308.984 231.922C308.503 231.024 308.262 230.019 308.262 228.901C308.262 227.681 308.556 226.535 309.148 225.473C309.739 224.407 310.605 223.599 311.741 223.046C312.881 222.498 314.141 222.221 315.531 222.221C317.066 222.221 318.413 222.509 319.587 223.091C320.756 223.667 321.655 224.519 322.286 225.643C322.911 226.767 323.252 228.042 323.301 229.465L320.679 229.697C320.534 228.167 320.058 227.004 319.245 226.225C318.432 225.44 317.234 225.05 315.647 225.05C313.992 225.05 312.789 225.406 312.029 226.117C311.274 226.829 310.894 227.687 310.894 228.686C310.894 229.562 311.163 230.278 311.697 230.837C312.226 231.402 313.597 231.978 315.82 232.565C318.042 233.158 319.568 233.672 320.395 234.112C321.598 234.767 322.488 235.592 323.06 236.585C323.633 237.585 323.916 238.736 323.916 240.035C323.916 241.328 323.604 242.542 322.974 243.683C322.344 244.823 321.439 245.71 320.26 246.348C319.082 246.98 317.754 247.296 316.282 247.296C314.41 247.296 312.842 246.98 311.582 246.336C310.317 245.698 309.326 244.739 308.604 243.451C307.887 242.17 307.507 240.713 307.474 239.092ZM333.476 246.884V236.614L325.514 222.633H328.838L332.913 229.945C333.663 231.312 334.361 232.678 335.01 234.05C335.631 232.78 336.382 231.351 337.267 229.765L341.269 222.633H344.454L336.208 236.614V246.884H333.476ZM345.979 239.092L348.557 238.827C348.678 240.041 348.962 241.035 349.409 241.814C349.856 242.593 350.549 243.22 351.487 243.7C352.425 244.18 353.484 244.417 354.658 244.417C355.702 244.417 356.62 244.236 357.419 243.874C358.218 243.508 358.814 243.011 359.203 242.378C359.593 241.74 359.791 241.051 359.791 240.301C359.791 239.538 359.603 238.878 359.223 238.308C358.848 237.737 358.227 237.263 357.366 236.879C356.808 236.625 355.586 236.23 353.686 235.693C351.79 235.157 350.458 234.654 349.698 234.18C348.712 233.576 347.975 232.819 347.49 231.922C347.009 231.024 346.768 230.019 346.768 228.901C346.768 227.681 347.061 226.535 347.653 225.473C348.245 224.407 349.111 223.599 350.246 223.046C351.386 222.498 352.647 222.221 354.037 222.221C355.572 222.221 356.918 222.509 358.092 223.091C359.261 223.667 360.161 224.519 360.792 225.643C361.417 226.767 361.758 228.042 361.806 229.465L359.185 229.697C359.04 228.167 358.564 227.004 357.751 226.225C356.938 225.44 355.74 225.05 354.152 225.05C352.498 225.05 351.295 225.406 350.535 226.117C349.779 226.829 349.399 227.687 349.399 228.686C349.399 229.562 349.669 230.278 350.203 230.837C350.732 231.402 352.103 231.978 354.326 232.565C356.548 233.158 358.073 233.672 358.901 234.112C360.103 234.767 360.993 235.592 361.566 236.585C362.138 237.585 362.422 238.736 362.422 240.035C362.422 241.328 362.109 242.542 361.479 243.683C360.849 244.823 359.945 245.71 358.766 246.348C357.588 246.98 356.259 247.296 354.787 247.296C352.916 247.296 351.348 246.98 350.088 246.336C348.822 245.698 347.831 244.739 347.109 243.451C346.393 242.17 346.013 240.713 345.979 239.092ZM371.418 246.884V225.496H364.611V222.633H380.987V225.496H374.151V246.884H371.418ZM383.849 246.884V222.633H398.787V225.496H386.582V232.921H398.012V235.767H386.582V244.021H399.268V246.884H383.849ZM402.958 246.884V222.633H407.076L411.964 239.804C412.416 241.402 412.748 242.599 412.95 243.395C413.186 242.514 413.551 241.215 414.051 239.504L418.997 222.633H422.677V246.884H420.041V226.586L414.037 246.884H411.569L405.594 226.241V246.884H402.958ZM426.16 239.092L428.738 238.827C428.859 240.041 429.143 241.035 429.59 241.814C430.037 242.593 430.73 243.22 431.668 243.7C432.607 244.18 433.665 244.417 434.839 244.417C435.883 244.417 436.801 244.236 437.6 243.874C438.399 243.508 438.995 243.011 439.385 242.378C439.775 241.74 439.972 241.051 439.972 240.301C439.972 239.538 439.784 238.878 439.404 238.308C439.029 237.737 438.408 237.263 437.547 236.879C436.989 236.625 435.767 236.23 433.867 235.693C431.972 235.157 430.639 234.654 429.879 234.18C428.893 233.576 428.156 232.819 427.671 231.922C427.19 231.024 426.949 230.019 426.949 228.901C426.949 227.681 427.243 226.535 427.834 225.473C428.426 224.407 429.292 223.599 430.427 223.046C431.567 222.498 432.828 222.221 434.218 222.221C435.753 222.221 437.1 222.509 438.274 223.091C439.442 223.667 440.342 224.519 440.973 225.643C441.598 226.767 441.939 228.042 441.987 229.465L439.366 229.697C439.221 228.167 438.745 227.004 437.932 226.225C437.119 225.44 435.921 225.05 434.333 225.05C432.679 225.05 431.476 225.406 430.716 226.117C429.961 226.829 429.58 227.687 429.58 228.686C429.58 229.562 429.85 230.278 430.384 230.837C430.913 231.402 432.284 231.978 434.507 232.565C436.729 233.158 438.254 233.672 439.082 234.112C440.285 234.767 441.174 235.592 441.747 236.585C442.32 237.585 442.603 238.736 442.603 240.035C442.603 241.328 442.291 242.542 441.66 243.683C441.03 244.823 440.126 245.71 438.947 246.348C437.769 246.98 436.441 247.296 434.969 247.296C433.097 247.296 431.529 246.98 430.269 246.336C429.003 245.698 428.012 244.739 427.29 243.451C426.574 242.17 426.193 240.713 426.16 239.092Z" fill="#000200"/>
<path fill-rule="evenodd" clip-rule="evenodd" d="M106.089 219.381C106.089 236.024 92.0863 249.516 74.8145 249.516C57.5436 249.516 43.5434 236.024 43.5434 219.381L43.5404 30.1329C43.5404 13.49 57.5396 0 74.8115 0C92.0862 0 106.086 13.49 106.086 30.1329L106.089 219.381ZM79.5849 219.85L79.5809 29.6674C79.5809 25.9535 77.4416 22.9462 74.8008 22.9462C72.1609 22.9462 70.0216 25.9535 70.0216 29.6674L70.0246 219.85C70.0246 223.56 72.1639 226.567 74.8048 226.567C77.4417 226.567 79.5849 223.56 79.5849 219.85ZM269.167 153.494V57.3042L268.303 57.0739L258.171 153.518L269.167 153.494ZM255.743 176.985L248.381 246.701H221.534L247.082 2.4892H295.851V246.701H269.167V176.982L255.743 176.985ZM143.231 2.4892V157.924H144.528L159.251 2.4892H194.871V157.814H196.06L208.616 2.4892H236.764L211.215 246.701H170.511V123.351H169.428L156.219 246.701H116.595V2.4892H143.231Z" fill="#EE3124"/>
<path fill-rule="evenodd" clip-rule="evenodd" d="M79.5849 219.85C79.5849 223.56 77.4417 226.567 74.8048 226.567C72.1639 226.567 70.0246 223.56 70.0246 219.85L70.0216 29.6674C70.0216 25.9535 72.1609 22.9462 74.8008 22.9462C77.4416 22.9462 79.5809 25.9535 79.5809 29.6674L79.5849 219.85ZM106.089 219.381C106.089 236.024 92.0863 249.516 74.8145 249.516C57.5436 249.516 43.5434 236.024 43.5434 219.381L43.5404 30.1329C43.5404 13.49 57.5396 0 74.8115 0C92.0862 0 106.086 13.49 106.086 30.1329L106.089 219.381Z" fill="#EE3124"/>
<path fill-rule="evenodd" clip-rule="evenodd" d="M269.167 153.494V57.3042L268.303 57.0739L258.171 153.518L269.167 153.494ZM255.743 176.985L248.381 246.701H221.534L247.082 2.4892H295.851V246.701H269.167V176.982L255.743 176.985Z" fill="#EE3124"/>
</svg>
