<svg width="450" height="225" viewBox="0 0 450 225" fill="none" xmlns="http://www.w3.org/2000/svg">
<g clip-path="url(#clip0_189_992)">
<path d="M87.92 113.565C117.705 75.7483 199.855 0 311.851 0C390.467 0 450 44.8183 450 44.8183C405.737 23.2688 230.69 -11.7591 92.9063 115.747L87.9289 113.556H87.92V113.565Z" fill="#FAB71C"/>
<path d="M169.491 153.189C172.465 138.544 182.625 128.994 198.252 128.994C213.879 128.994 224.029 138.749 226.264 153.189H169.491ZM440.829 126.936C443.847 126.936 446.812 127.177 449.688 127.622V103.266C444.355 102.536 438.656 102.18 432.485 102.18C389.692 102.18 357.379 127.809 357.379 162.089C357.379 164.432 357.53 166.712 357.815 168.939C351.537 158.383 337.611 153.02 317.799 148.922C292.565 143.791 289.075 141.555 289.582 136.005C290.063 130.713 298.54 125.831 311.184 125.831C319.278 125.831 330.105 127.756 339.748 132.254V106.758C330.452 103.908 320.302 102.01 309.34 102.01C277.49 102.01 256.129 117.279 254.428 138.241C254.419 138.374 254.419 138.499 254.402 138.633C246.708 117.974 228.74 102.491 197.798 102.491C160.569 102.491 135.139 129.724 135.139 162.748C135.139 163.585 135.157 164.414 135.183 165.233C128.185 150.036 109.922 143.034 85.2754 137.653C56.1676 131.399 52.0183 128.54 52.0183 121.894C52.0183 115.248 59.4622 110.081 71.0465 110.331C80.0665 110.518 85.4357 112.683 87.9111 113.573C95.1057 104.647 102.826 96.0862 111.026 87.9528C98.8365 83.5075 85.5247 81.218 71.1712 81.218C36.5517 81.218 12.359 98.5449 12.359 124.611C12.359 144.601 22.8125 153.697 41.0928 159.915C42.0723 160.218 44.9394 161.109 46.5956 161.652C52.8998 163.478 59.9608 165.1 67.7164 166.757C96.281 172.886 98.6584 178.044 98.6584 183.718C98.6584 190.4 90.707 194.391 77.413 194.391C62.2047 194.391 48.136 189.91 33.3996 180.378C25.8489 190.596 18.0577 201.82 13.8994 208.698C32.4112 218.782 54.0306 225 76.7185 225C113.689 225 137.027 209.072 138.255 182.997C146.073 206.747 167.951 222.167 197.513 222.167C203.203 222.167 211.377 221.98 224.84 218.63V193.304C212.329 196.93 206.96 197.304 199.614 196.921C184.913 196.163 172.919 187.87 169.465 173.349H258.391C258.622 170.373 258.854 168.467 258.854 165.278V164.85C258.854 161.723 258.685 158.614 258.337 155.559C265.096 164.886 279.912 168.681 300.249 172.797C325.012 177.83 326.383 181.616 326.383 187.424C326.383 192.547 319.785 198.435 305.164 197.954C290.134 197.455 272.548 192.974 258.952 185.295V214.541C273.127 220.893 291.105 224.84 305.066 224.84C338.564 224.84 361.555 205.205 361.555 184.003C361.555 183.531 361.537 183.077 361.519 182.614C367.449 196.511 379.096 207.058 392.336 213.499C405.532 219.922 419.646 221.935 431.248 222.016C438.068 222.069 443.981 221.57 449.671 220.662V195.923C446.794 196.386 443.838 196.627 440.811 196.627C416.03 196.627 395.916 181.019 395.916 161.777C395.916 142.535 416.03 126.927 440.811 126.927" fill="#0F4E8B"/>
<path d="M47.7532 162.026C38.751 172.494 21.0139 196.938 13.9262 208.689C6.94527 204.617 3.26784 201.989 0 199.468C10.7741 187.674 27.2646 170.284 40.7634 159.808C40.7634 159.808 46.9251 161.715 47.7532 162.026Z" fill="#FAB71C"/>
</g>
<defs>
<clipPath id="clip0_189_992">
<rect width="450" height="225" fill="white"/>
</clipPath>
</defs>
</svg>
