<svg width="450" height="164" viewBox="0 0 450 164" fill="none" xmlns="http://www.w3.org/2000/svg">
<g clip-path="url(#clip0_189_976)">
<mask id="mask0_189_976" style="mask-type:luminance" maskUnits="userSpaceOnUse" x="0" y="0" width="450" height="164">
<path d="M450 0H0V164H450V0Z" fill="white"/>
</mask>
<g mask="url(#mask0_189_976)">
<mask id="mask1_189_976" style="mask-type:luminance" maskUnits="userSpaceOnUse" x="0" y="0" width="450" height="164">
<path d="M450 0H0V164H450V0Z" fill="white"/>
</mask>
<g mask="url(#mask1_189_976)">
<path fill-rule="evenodd" clip-rule="evenodd" d="M294.174 116.757V30.5805C294.174 1.33453 324.943 -4.94555 346.908 3.3959V19.7706C331.812 13.6272 314.852 15.0431 314.852 34.113H339.392V50.4732H314.852V116.437L294.174 116.757Z" fill="#FBBA00"/>
<path fill-rule="evenodd" clip-rule="evenodd" d="M391.593 21.3319H406.875L410.012 34.1246H429.019V50.4732H412.28V88.5607C412.28 96.1898 415.579 100.008 422.176 100.016H432.655V116.367H412.198C398.463 116.367 391.596 109.02 391.596 94.3261L391.593 21.3319Z" fill="#FBBA00"/>
<path d="M375.834 34.1188H355.156V116.356H375.834V34.1188Z" fill="#FBBA00"/>
<path d="M375.834 4.35535H355.156V21.3319H375.834V4.35535Z" fill="#FBBA00"/>
<path fill-rule="evenodd" clip-rule="evenodd" d="M450 116.379C431.831 144.994 399.839 163.997 363.409 163.997C326.978 163.997 295.006 144.994 276.829 116.376C298.179 136.019 329.065 148.358 363.409 148.358C397.752 148.358 428.647 136.01 450 116.376" fill="#FBBA00"/>
<path d="M2.55272 97.4604V86.226C8.51391 88.6101 15.3959 89.8012 23.1986 89.7993C29.0201 89.7993 31.9308 87.9298 31.9308 84.1908C31.9308 80.7775 29.9602 79.0882 26.054 79.0882H16.3409C5.44696 79.0844 0 73.6358 0 62.7426C0 51.5393 7.95602 45.9376 23.868 45.9376C30.3462 45.8928 36.787 46.9224 42.9276 48.9846V60.219C36.9605 57.832 30.5016 56.6515 23.5071 56.6515C16.1779 56.6515 12.5336 58.5152 12.5336 62.26C12.522 65.6462 14.6507 67.3412 18.9198 67.3451H27.5851C39.4958 67.3451 45.455 72.7849 45.4628 83.6646C45.4628 94.9067 37.8706 100.522 22.6863 100.51C15.2232 100.51 8.51197 99.4936 2.55272 97.4604ZM54.9111 100.016V46.4261H65.3897L66.9732 53.1655C73.1265 48.6735 79.2506 46.4261 85.3108 46.4261C92.0618 46.4261 96.8509 48.8761 99.6782 53.7761C106.513 48.8683 112.928 46.4183 118.924 46.4261C130.241 46.4261 135.898 53.2101 135.897 66.7781V100.016H122.341V66.2897C122.341 60.3508 119.825 57.3774 114.794 57.3697C110.765 57.3697 106.555 59.6811 102.164 64.3039V100.016H88.6378V66.4234C88.6378 60.3779 86.151 57.3522 81.1776 57.3464C76.8813 57.3464 72.6442 59.6578 68.4664 64.2807V100.016H54.9111ZM145.694 83.3302C145.694 72.344 153.456 66.8528 168.98 66.8566C173.159 66.8131 177.334 67.1498 181.452 67.8626V64.3446C181.452 59.5551 176.802 57.1584 167.501 57.1545C161.587 57.1633 155.705 58.024 150.037 59.7102V48.9817C155.707 47.3049 161.588 46.4482 167.501 46.4377C185.831 46.4377 194.99 52.3204 194.979 64.0859V100.016H188.133L182.311 96.2363C177.745 98.7394 172.616 100.04 167.408 100.016C152.93 100.016 145.694 94.4541 145.7 83.3302M181.461 78.0677C178.041 77.3903 173.893 77.0618 168.989 77.0618C162.474 77.0521 159.217 79.0824 159.217 83.1529C159.217 87.2233 161.945 89.2672 167.399 89.2846C172.907 89.2846 177.591 87.891 181.452 85.1037L181.461 78.0677ZM208.167 100.016V46.4261H218.646L220.317 53.2556C225.03 48.7123 230.007 46.4358 235.249 46.4261V57.3464C230.203 57.3464 225.692 59.6045 221.714 64.1207V100.016H208.167ZM243.629 37.7532H253.642L255.7 46.4261H268.152V57.1429H257.184V81.7864C257.184 86.7852 259.346 89.2876 263.669 89.2934H268.152V100.016H257.135C248.131 100.016 243.629 95.1984 243.629 85.5631V37.7532Z" fill="black"/>
</g>
</g>
</g>
<defs>
<clipPath id="clip0_189_976">
<rect width="450" height="164" fill="white"/>
</clipPath>
</defs>
</svg>
