<svg width="791" height="153" viewBox="0 0 791 153" fill="none" xmlns="http://www.w3.org/2000/svg">
<path d="M46.3192 103.014C44.9572 104.204 43.2801 104.975 41.4899 105.235C39.6997 105.494 37.8727 105.229 36.2291 104.474C34.5337 103.826 33.0849 102.661 32.0873 101.145C31.0896 99.6289 30.5935 97.8375 30.6692 96.024C30.5692 84.344 30.4892 81.804 30.5792 70.124C30.5733 68.8072 30.8323 67.5026 31.3408 66.2879C31.8493 65.0732 32.597 63.9731 33.5393 63.0532C34.4816 62.1333 35.5992 61.4124 36.8258 60.9332C38.0524 60.454 39.3629 60.2264 40.6792 60.264C45.9192 60.334 49.8792 64.584 49.9092 70.264C49.9792 81.394 49.9992 83.384 50.0492 94.514C50.0492 97.914 49.0492 100.844 46.3192 103.024" fill="#B5B3AA"/>
<path d="M76.5692 124.614C75.2087 125.803 73.5333 126.574 71.7449 126.833C69.9564 127.092 68.1312 126.829 66.4891 126.074C64.7928 125.426 63.3426 124.262 62.3432 122.746C61.3439 121.23 60.8458 119.438 60.9192 117.624C60.8192 105.944 60.7392 60.204 60.8292 48.524C60.8247 47.2067 61.0848 45.9019 61.5945 44.6872C62.1041 43.4724 62.8527 42.3725 63.7958 41.4527C64.7388 40.5329 65.8572 39.8121 67.0843 39.3331C68.3115 38.854 69.6224 38.6265 70.9392 38.664C76.1692 38.734 80.1392 42.984 80.1692 48.664C80.2292 59.794 80.2492 104.984 80.2992 116.114C80.2992 119.514 79.2992 122.444 76.5692 124.624" fill="#B5B3AA"/>
<path d="M107.559 149.384C106.2 150.576 104.524 151.348 102.735 151.607C100.946 151.866 99.1206 151.601 97.4791 150.844C95.7818 150.201 94.3303 149.039 93.3304 147.524C92.3306 146.009 91.8333 144.218 91.9092 142.404C91.8092 130.714 91.7292 47.534 91.8192 35.854C91.8146 34.5367 92.0748 33.2319 92.5845 32.0171C93.0941 30.8024 93.8427 29.7024 94.7858 28.7827C95.7288 27.8629 96.8472 27.1421 98.0743 26.663C99.3015 26.184 100.612 25.9564 101.929 25.994C107.159 26.064 111.129 30.314 111.159 35.994C111.219 47.124 111.239 129.754 111.289 140.884C111.289 144.284 110.289 147.224 107.559 149.394" fill="#9C958E"/>
<path d="M15.7692 81.664C14.4087 82.8535 12.7333 83.6242 10.9448 83.8832C9.15636 84.1423 7.33123 83.8786 5.6892 83.124C3.99382 82.4759 2.54491 81.3114 1.54723 79.7952C0.549548 78.2789 0.0534788 76.4875 0.129137 74.674C0.029137 62.994 -0.0508288 60.454 0.0391712 48.774C0.0332714 47.4572 0.292243 46.1526 0.800768 44.9379C1.30929 43.7232 2.05697 42.6232 2.99925 41.7033C3.94154 40.7834 5.05929 40.0624 6.28588 39.5832C7.51246 39.104 8.82282 38.8765 10.1391 38.914C15.3691 38.984 19.3391 43.234 19.3691 48.914C19.4391 60.044 19.4491 62.034 19.5091 73.164C19.5091 76.564 18.5092 79.494 15.7692 81.674" fill="#FC0606"/>
<path d="M46.0292 103.264C44.6687 104.454 42.9933 105.224 41.2048 105.483C39.4164 105.742 37.5912 105.479 35.9492 104.724C34.2528 104.076 32.8026 102.912 31.8032 101.396C30.8038 99.88 30.3057 98.0884 30.3791 96.274C30.2791 84.594 30.1992 38.854 30.2892 27.174C30.2846 25.8567 30.5449 24.5519 31.0546 23.3372C31.5642 22.1224 32.3128 21.0225 33.2558 20.1027C34.1989 19.183 35.3172 18.4621 36.5443 17.9831C37.7714 17.504 39.0824 17.2765 40.3992 17.314C45.6292 17.384 49.5991 21.634 49.6291 27.314C49.6891 38.444 49.7091 83.634 49.7591 94.764C49.7591 98.164 48.7592 101.094 46.0292 103.274" fill="#FC0606"/>
<path d="M157.219 107.654C158.581 108.844 160.258 109.615 162.049 109.875C163.839 110.134 165.666 109.869 167.309 109.114C169.006 108.467 170.455 107.303 171.453 105.786C172.451 104.27 172.946 102.478 172.869 100.664C172.969 88.984 173.049 86.444 172.959 74.764C172.965 73.4472 172.706 72.1426 172.198 70.9279C171.689 69.7132 170.941 68.6131 169.999 67.6933C169.057 66.7734 167.939 66.0524 166.713 65.5732C165.486 65.094 164.176 64.8665 162.859 64.904C157.619 64.974 153.659 69.234 153.629 74.904C153.559 86.034 153.539 88.024 153.489 99.154C153.489 102.554 154.489 105.484 157.219 107.664" fill="#9C958E"/>
<path d="M125.679 129.254C127.04 130.444 128.715 131.214 130.504 131.473C132.292 131.732 134.117 131.469 135.759 130.714C137.455 130.067 138.905 128.903 139.903 127.386C140.901 125.87 141.396 124.078 141.319 122.264C141.419 110.584 141.499 64.844 141.409 53.164C141.415 51.8472 141.156 50.5426 140.648 49.3279C140.139 48.1132 139.391 47.0132 138.449 46.0933C137.507 45.1734 136.389 44.4524 135.162 43.9732C133.936 43.4941 132.626 43.2665 131.309 43.304C126.079 43.374 122.109 47.634 122.079 53.304C122.009 64.434 121.999 109.624 121.939 120.754C121.939 124.154 122.939 127.084 125.679 129.264" fill="#9C958E"/>
<path d="M125.679 81.664C127.04 82.8535 128.715 83.6242 130.504 83.8832C132.292 84.1423 134.117 83.8786 135.759 83.124C137.455 82.4759 138.903 81.3114 139.901 79.7952C140.899 78.2789 141.395 76.4875 141.319 74.674C141.419 62.994 141.499 60.454 141.409 48.774C141.415 47.4572 141.156 46.1526 140.648 44.9379C140.139 43.7232 139.391 42.6232 138.449 41.7033C137.507 40.7834 136.389 40.0624 135.162 39.5832C133.936 39.104 132.626 38.8765 131.309 38.914C126.079 38.984 122.109 43.234 122.079 48.914C122.009 60.044 121.999 62.034 121.939 73.164C121.939 76.564 122.939 79.494 125.679 81.674" fill="#FC0606"/>
<path d="M95.4092 103.264C96.7696 104.454 98.4451 105.224 100.234 105.483C102.022 105.742 103.847 105.479 105.489 104.724C107.186 104.076 108.636 102.912 109.635 101.396C110.635 99.88 111.133 98.0884 111.059 96.274C111.159 84.594 111.239 38.854 111.149 27.174C111.154 25.8567 110.893 24.5519 110.384 23.3372C109.874 22.1224 109.126 21.0225 108.182 20.1027C107.239 19.183 106.121 18.4621 104.894 17.9831C103.667 17.504 102.356 17.2765 101.039 17.314C95.8092 17.384 91.8392 21.634 91.8092 27.314C91.7492 38.444 91.7292 83.634 91.6792 94.764C91.6792 98.164 92.6792 101.094 95.4092 103.274" fill="#FC0606"/>
<path d="M76.409 123.394C75.0498 124.586 73.3743 125.358 71.5853 125.617C69.7963 125.876 67.9706 125.611 66.3291 124.854C64.6318 124.207 63.1808 123.044 62.1813 121.527C61.1817 120.011 60.6841 118.219 60.759 116.404C60.659 104.724 60.5791 21.544 60.6691 9.86398C60.6645 8.54666 60.9248 7.24187 61.4344 6.02712C61.9441 4.81236 62.6927 3.71243 63.6357 2.79267C64.5788 1.87291 65.697 1.15209 66.9242 0.673035C68.1513 0.193977 69.4622 -0.0335403 70.779 0.0039906C76.009 0.0739906 79.979 4.32398 80.009 10.004C80.069 21.134 80.089 103.764 80.139 114.894C80.139 118.294 79.139 121.224 76.409 123.404" fill="#FC0606"/>
<path d="M287.409 96.4041C283.641 91.8827 278.839 88.3359 273.409 86.0641C266.959 83.4797 260.324 81.3838 253.559 79.7941C253.219 79.7041 252.929 79.624 252.669 79.534C252.409 79.444 252.119 79.364 251.779 79.284L250.129 78.8941C244.889 77.6341 240.702 76.4741 237.569 75.4141C234.763 74.5152 232.112 73.1896 229.709 71.4841C226.449 69.0707 225.706 65.8974 227.479 61.9641C227.906 61.0096 228.514 60.1469 229.269 59.424C231.283 57.5841 233.723 56.2746 236.369 55.6141C239.409 54.8036 242.543 54.4001 245.689 54.4141C250.406 54.5297 255.084 55.3004 259.589 56.7041C262.741 57.6065 265.828 58.7224 268.829 60.0441C270.396 60.7612 272.166 60.8995 273.825 60.4344C275.484 59.9694 276.924 58.931 277.889 57.5041L283.579 48.9641C284.144 48.1062 284.52 47.1385 284.682 46.1246C284.845 45.1108 284.791 44.0739 284.524 43.0825C284.256 42.0911 283.781 41.1677 283.131 40.3733C282.48 39.5789 281.668 38.9316 280.749 38.4741C276.445 36.2675 271.924 34.5115 267.259 33.2341C260.2 31.2443 252.904 30.2183 245.569 30.1841C237.874 30.1024 230.24 31.5504 223.109 34.4441C216.59 37.0209 210.891 41.3165 206.619 46.8741C202.462 52.3551 200.271 59.076 200.399 65.9541C200.399 73.8341 202.366 80.1374 206.299 84.8641C210.016 89.4393 214.833 92.9969 220.299 95.2041C226.937 97.7524 233.739 99.8505 240.659 101.484L242.309 101.864L244.719 102.374C249.633 103.647 253.586 104.724 256.579 105.604C259.292 106.35 261.849 107.576 264.129 109.224C265.058 109.858 265.817 110.71 266.34 111.706C266.863 112.701 267.134 113.81 267.129 114.934C267.128 116.185 266.867 117.423 266.365 118.569C265.862 119.715 265.129 120.745 264.209 121.594C262.001 123.645 259.354 125.163 256.469 126.034C253.066 127.119 249.511 127.652 245.939 127.614C241.441 127.643 236.954 127.174 232.559 126.214C228.523 125.343 224.602 124 220.879 122.214C219.471 121.539 218.102 120.784 216.779 119.954C215.19 118.994 213.289 118.691 211.48 119.109C209.671 119.528 208.096 120.634 207.089 122.194L202.009 129.884C201.482 130.686 201.119 131.584 200.942 132.528C200.764 133.471 200.776 134.44 200.976 135.378C201.176 136.317 201.56 137.206 202.107 137.995C202.653 138.784 203.351 139.457 204.159 139.974C206.676 141.58 209.295 143.02 211.999 144.284C217.376 146.816 223.012 148.754 228.809 150.064C234.466 151.375 240.252 152.046 246.059 152.064C253.909 152.119 261.703 150.743 269.059 148.004C275.895 145.518 281.926 141.222 286.509 135.574C290.989 129.987 293.229 123.051 293.229 114.764C293.229 107.151 291.262 101.017 287.329 96.3641" fill="#FC0606"/>
<path d="M363.409 152.104C352.554 152.194 341.865 149.435 332.409 144.104C323.12 138.903 315.358 131.355 309.899 122.214C304.407 112.762 301.519 102.023 301.53 91.091C301.54 80.1591 304.449 69.4255 309.959 59.9841C315.428 50.8294 323.217 43.2815 332.539 38.1041C342.044 32.8981 352.709 30.1742 363.547 30.1847C374.384 30.1952 385.044 32.9397 394.539 38.1641C403.836 43.3596 411.602 50.9088 417.059 60.0541C422.667 69.4124 425.565 80.1448 425.429 91.0541C425.573 102 422.697 112.775 417.119 122.194C411.682 131.355 403.91 138.908 394.599 144.084C385.071 149.427 374.312 152.185 363.389 152.084M363.389 126.964C369.63 126.939 375.76 125.309 381.189 122.23C386.618 119.151 391.164 114.727 394.389 109.384C397.625 103.817 399.329 97.4929 399.329 91.0541C399.329 84.6152 397.625 78.2911 394.389 72.7241C391.18 67.3566 386.604 62.9363 381.129 59.9141C375.73 56.8625 369.631 55.2669 363.429 55.2841C357.244 55.3291 351.173 56.9574 345.796 60.0138C340.418 63.0702 335.913 67.4528 332.709 72.7441C329.461 78.3067 327.749 84.6325 327.749 91.0741C327.749 97.5156 329.461 103.841 332.709 109.404C335.903 114.775 340.447 119.215 345.889 122.284C351.209 125.367 357.25 126.989 363.399 126.984" fill="#FC0606"/>
<path d="M544.949 57.824C540.089 48.3907 533.576 41.3907 525.409 36.824C517.089 32.2145 507.71 29.8536 498.199 29.974C492.053 29.988 485.95 31.0012 480.129 32.974C474.208 34.9402 468.606 37.7599 463.499 41.344C462.889 41.774 462.379 42.294 461.789 42.744V39.664C461.789 37.7703 461.037 35.9543 459.698 34.6153C458.359 33.2762 456.543 32.524 454.649 32.524H444.569C442.676 32.524 440.859 33.2762 439.52 34.6153C438.181 35.9543 437.429 37.7703 437.429 39.664V141.974C437.432 143.866 438.185 145.679 439.524 147.016C440.863 148.353 442.677 149.104 444.569 149.104H455.409C456.346 149.105 457.275 148.922 458.141 148.564C459.007 148.206 459.794 147.681 460.457 147.019C461.12 146.357 461.647 145.571 462.005 144.705C462.364 143.839 462.549 142.911 462.549 141.974V72.394C462.972 71.6367 463.439 70.9054 463.949 70.204C466.154 66.9704 468.826 64.0822 471.879 61.634C475.108 59.0405 478.753 57.0119 482.659 55.634C486.83 54.1419 491.23 53.3906 495.659 53.414C501.285 53.2867 506.857 54.5254 511.899 57.024C516.566 59.4373 520.266 63.584 522.999 69.464C525.733 75.344 527.109 83.144 527.129 92.864V141.934C527.129 142.871 527.314 143.799 527.673 144.665C528.032 145.531 528.558 146.317 529.221 146.979C529.884 147.641 530.671 148.166 531.538 148.524C532.404 148.882 533.332 149.065 534.269 149.064H545.109C547 149.064 548.814 148.313 550.151 146.976C551.488 145.639 552.239 143.825 552.239 141.934V92.904C552.239 78.9573 549.809 67.264 544.949 57.824Z" fill="#FC0606"/>
<path d="M690.999 149.104C689.711 149.104 688.447 148.753 687.344 148.088C686.241 147.424 685.34 146.471 684.738 145.332C684.136 144.193 683.856 142.912 683.929 141.626C684.001 140.34 684.423 139.098 685.149 138.034L720.489 86.214L720.619 95.584L685.189 43.904C684.461 42.8406 684.037 41.5986 683.963 40.312C683.888 39.0254 684.167 37.7429 684.768 36.6028C685.369 35.4627 686.269 34.5082 687.373 33.8423C688.476 33.1764 689.74 32.8243 691.029 32.824H704.739C705.888 32.8249 707.02 33.1047 708.037 33.6394C709.054 34.1742 709.927 34.9478 710.579 35.894L740.409 79.384H733.829L763.829 35.874C764.488 34.9421 765.362 34.1829 766.377 33.6607C767.392 33.1385 768.518 32.8686 769.659 32.874H783.409C784.701 32.872 785.968 33.2239 787.074 33.8915C788.18 34.5591 789.082 35.5169 789.681 36.6609C790.281 37.8049 790.556 39.0914 790.477 40.3806C790.397 41.6699 789.965 42.9126 789.229 43.974L753.509 95.634V86.264L789.249 138.054C789.982 139.116 790.41 140.358 790.488 141.646C790.566 142.934 790.29 144.219 789.691 145.362C789.092 146.504 788.192 147.462 787.088 148.13C785.985 148.798 784.719 149.153 783.429 149.154H769.629C768.482 149.153 767.353 148.875 766.337 148.342C765.322 147.809 764.451 147.037 763.799 146.094L733.799 102.464H740.409L710.629 146.064C709.98 147.017 709.107 147.797 708.088 148.335C707.068 148.874 705.932 149.155 704.779 149.154L690.999 149.104Z" fill="#FC0606"/>
<path d="M679.539 60.744C674.343 51.6564 666.809 44.1257 657.719 38.934C648.334 33.5531 637.676 30.7903 626.859 30.934C615.919 30.7705 605.134 33.5324 595.619 38.934C586.516 44.0881 578.992 51.629 573.859 60.744C568.594 70.0574 565.883 80.5961 565.999 91.294C565.999 103.534 568.952 114.221 574.859 123.354C580.746 132.469 589.057 139.762 598.859 144.414C609.294 149.399 620.736 151.914 632.299 151.764C639.604 151.811 646.887 150.947 653.979 149.194C654.979 148.944 655.839 148.624 656.769 148.354V148.414C657.279 148.264 657.769 148.054 658.269 147.894C659.319 147.564 660.359 147.194 661.379 146.824C662.399 146.454 663.139 146.144 663.999 145.774C664.529 145.554 665.069 145.374 665.589 145.144C665.699 145.094 665.759 144.994 665.859 144.944C666.649 144.584 667.469 144.264 668.239 143.884C669.141 143.438 669.938 142.808 670.581 142.034C671.224 141.261 671.697 140.361 671.971 139.393C672.244 138.425 672.311 137.411 672.168 136.415C672.025 135.42 671.674 134.466 671.139 133.614L666.199 125.814C665.289 124.36 663.883 123.284 662.242 122.786C660.6 122.288 658.834 122.401 657.269 123.104C655.619 123.864 653.809 124.494 652.019 125.104C650.539 125.624 649.119 126.194 647.549 126.644C642.868 128 638.022 128.7 633.149 128.724C626.27 128.795 619.462 127.333 613.219 124.444C607.275 121.71 602.206 117.379 598.579 111.934C596.746 109.217 595.355 106.227 594.459 103.074H680.139C681.934 103.082 683.666 102.412 684.989 101.197C686.311 99.9828 687.125 98.3136 687.269 96.524C687.379 94.944 687.459 93.184 687.459 91.254C687.578 80.5684 684.848 70.044 679.549 60.764M596.999 71.954C599.522 66.5113 603.533 61.8934 608.569 58.634C613.636 55.3006 619.736 53.634 626.869 53.634C633.2 53.5126 639.427 55.251 644.779 58.634C649.902 61.8983 654.032 66.5055 656.719 71.954C658.04 74.6183 659.047 77.4272 659.719 80.324H594.159C594.795 77.4394 595.744 74.6329 596.989 71.954" fill="#FC0606"/>
</svg>
